<svg fill="currentColor" viewBox="0 0 534 69.39" class="svg-logo-skoringen svg-icon"><path d="M139.53 0a34.7 34.7 0 1 0 34.69 34.69A34.74 34.74 0 0 0 139.53 0m0 60.47a25.78 25.78 0 1 1 25.78-25.78 25.8 25.8 0 0 1-25.76 25.78z" class="svg-logo-skoringen__o"></path><path d="M478.09 68.51V1.06h8.6l38.82 52.4V1.06H534v67.45h-7.8l-39.48-52.97v52.97zm-203.34 0V1.06h8.61l38.81 52.4V1.06h8.49v67.45h-7.8l-39.48-52.97v52.97ZM422 1.05v67.46h39v-7.7h-30.39V38.34h28.72v-7.7h-28.72V8.75h29.59v-7.7zm-78.58 33.74c0 17.19 12.53 34.6 36.49 34.6 8.18 0 15.77-1.73 24.61-5.61l.38-.17V35.8h-24.38v7.71h15.78v14.66a47.4 47.4 0 0 1-17.07 3.5c-13 0-26.72-9.45-26.72-27 0-15.26 11.53-26.77 26.81-26.77a44.8 44.8 0 0 1 23.23 6.71l1 .61V5.87l-.39-.17C397.17 3.16 389.72 0 379.81 0c-21.09 0-36.39 14.63-36.39 34.79M248.34 1.06v67.45H257V1.06Zm-10.86 65.79c-2.95-4.16-4.42-6.25-7.09-10.49-7.58-11.91-11-17.27-15.45-20.55 5.33-2.24 11.18-6.84 11.18-16.36 0-4.31-1.62-18.4-22.48-18.4h-17.53v67.46h8.58v-30.1h5.4c6.91 0 9.17 2.48 13.23 7.64 3 3.81 5.89 8 8.5 12.16l6.49 10.3h10.34zm-33.6-36.15h-9.19V8.75h7.89c9.2 0 14.48 3.94 14.48 10.8 0 7.45-4.43 11.15-13.18 11.15M2.65 17.22a17.5 17.5 0 0 0 4.92 12.46c3.09 3.32 7.21 5.72 11.2 8 6.57 3.82 12.77 7.43 12.77 14.45 0 6.42-6.52 9.35-12.58 9.35A25.24 25.24 0 0 1 4.78 57l-.57-.42L0 63.69l.51.31a32.8 32.8 0 0 0 18.55 5.37c12.54 0 21.65-7.54 21.65-17.92 0-11.12-8.87-16.34-16.71-20.94-6.57-3.86-12.78-7.51-12.78-14 0-7.84 8.78-8.45 11.47-8.45a26.77 26.77 0 0 1 14.18 4.24l1 .7V3.49l-.35-.18a32.56 32.56 0 0 0-15-3.3C10.62 0 2.65 6.93 2.65 17.22M90.81 1.05S67.9 30.24 67.51 30.7H65.1V1.05h-8.63v67.46h8.63v-30.1h2.42c.39.43 25.22 30.1 25.22 30.1h11.35s-29-33.16-29.75-34c.66-.81 27.17-33.46 27.17-33.46Z"></path></svg>