<svg xmlns="http://www.w3.org/2000/svg" width="762.534" height="598" viewBox="0 0 762.534 598">
  <g id="undraw_ideas_flow_cy7b" transform="translate(0)">
    <path id="Path_53" data-name="Path 53" d="M467.9,462.305l0-1.279c2.543.008,5.124-.036,7.673-.13l.047,1.278C473.056,462.269,470.457,462.313,467.9,462.305Zm-7.721-.173c-2.556-.108-5.15-.27-7.708-.48l.1-1.275c2.542.209,5.118.37,7.657.477Zm23.156-.4-.1-1.275c2.538-.195,5.108-.444,7.636-.741l.149,1.271C488.475,461.289,485.889,461.54,483.333,461.736Zm-38.547-.872c-2.549-.314-5.121-.682-7.646-1.1l.207-1.262c2.507.411,5.063.777,7.594,1.088Zm53.886-.929-.2-1.263c2.509-.4,5.05-.853,7.552-1.353l.251,1.253c-2.518.5-5.076.963-7.6,1.363Zm-69.126-1.571c-2.515-.518-5.049-1.094-7.533-1.71l.308-1.242c2.467.613,4.984,1.185,7.482,1.7Zm84.271-1.462-.3-1.242c2.478-.6,4.974-1.261,7.418-1.96l.352,1.23c-2.461.7-4.973,1.368-7.468,1.973Zm-99.26-2.262c-2.464-.72-4.943-1.5-7.369-2.315l.408-1.213c2.41.811,4.873,1.585,7.32,2.3Zm114.109-1.986-.4-1.214c2.417-.8,4.851-1.658,7.234-2.555l.451,1.2C533.548,450.986,531.1,451.851,528.664,452.655ZM399.9,449.707c-2.4-.917-4.81-1.9-7.174-2.913l.5-1.175c2.348,1.009,4.746,1.983,7.126,2.893Zm143.2-2.481-.5-1.178c2.341-.991,4.692-2.042,6.987-3.124l.546,1.157c-2.31,1.089-4.677,2.147-7.034,3.145Zm-157.426-3.632c-2.319-1.11-4.644-2.282-6.91-3.483l.6-1.13c2.251,1.192,4.56,2.356,6.864,3.459Zm171.365-2.94-.592-1.133c2.256-1.178,4.516-2.416,6.717-3.68l.637,1.109c-2.216,1.272-4.491,2.519-6.762,3.7ZM372,436.353c-2.224-1.3-4.446-2.65-6.6-4.027l.688-1.078c2.142,1.367,4.349,2.713,6.559,4Zm198.409-3.379-.681-1.083c2.148-1.351,4.3-2.767,6.4-4.21l.723,1.054C574.744,430.188,572.575,431.614,570.413,432.974Zm-211.446-4.936c-2.11-1.468-4.214-3-6.255-4.542l.772-1.019c2.027,1.535,4.118,3.053,6.213,4.512Zm224.166-3.8-.766-1.024c2.033-1.518,4.068-3.1,6.05-4.712l.806.993c-1.995,1.619-4.044,3.215-6.09,4.743Zm-236.488-5.535c-1.98-1.629-3.954-3.32-5.868-5.027l.851-.954c1.9,1.7,3.862,3.376,5.829,4.993Zm248.473-4.192-.845-.959c1.911-1.682,3.814-3.426,5.655-5.183l.882.926c-1.854,1.768-3.769,3.523-5.693,5.217Zm-260-6.091c-1.839-1.778-3.671-3.621-5.445-5.478l.925-.884c1.762,1.845,3.582,3.676,5.409,5.442Zm271.177-4.568-.919-.89c1.769-1.828,3.527-3.718,5.225-5.62l.954.852c-1.71,1.914-3.479,3.818-5.26,5.658Zm-281.842-6.6c-1.7-1.928-3.377-3.911-4.988-5.894l.993-.806c1.6,1.97,3.267,3.94,4.954,5.854Zm292.132-4.924-.988-.813c1.622-1.97,3.224-4,4.761-6.023l1.019.773c-1.547,2.04-3.159,4.08-4.792,6.063Zm-301.867-7.057c-1.534-2.051-3.048-4.161-4.5-6.27l1.054-.725c1.44,2.1,2.943,4.192,4.468,6.229Zm311.2-5.259-1.049-.73c1.459-2.1,2.894-4.246,4.263-6.389l1.078.688C628.834,375.741,627.39,377.905,625.921,380.015Zm-319.944-7.456c-1.363-2.165-2.7-4.388-3.978-6.608l1.109-.637c1.268,2.2,2.6,4.413,3.952,6.563Zm328.267-5.576-1.1-.644c1.287-2.208,2.544-4.468,3.736-6.715l1.13.6C636.805,362.485,635.54,364.76,634.243,366.983ZM298.29,359.19c-1.184-2.266-2.339-4.589-3.431-6.9l1.156-.546c1.086,2.3,2.232,4.605,3.408,6.856Zm343.2-5.875-1.153-.553c1.1-2.3,2.173-4.654,3.183-7l1.175.506C643.679,348.629,642.6,351,641.491,353.315Zm-349.781-8.06c-1-2.359-1.962-4.765-2.861-7.152l1.2-.451c.893,2.37,1.849,4.761,2.842,7.1Zm355.9-6.159-1.194-.457c.914-2.389,1.792-4.825,2.606-7.238l1.211.409c-.819,2.43-1.7,4.881-2.623,7.287Zm-361.34-8.275c-.806-2.434-1.573-4.917-2.279-7.38l1.229-.352c.7,2.446,1.463,4.913,2.264,7.33Zm366.282-6.381-1.228-.359c.714-2.438,1.388-4.929,2.005-7.406l1.24.309C653.952,319.478,653.273,321.987,652.555,324.44Zm-370.539-8.466c-.606-2.492-1.169-5.029-1.674-7.54l1.254-.252c.5,2.494,1.06,5.015,1.662,7.49Zm374.271-6.52-1.253-.259c.514-2.489.984-5.027,1.4-7.543l1.262.208c-.417,2.533-.89,5.088-1.407,7.594Zm-377.311-8.622c-.4-2.526-.758-5.1-1.059-7.651l1.27-.149c.3,2.534.653,5.09,1.052,7.6Zm379.819-6.618-1.27-.157c.312-2.53.577-5.1.787-7.631l1.275.105c-.211,2.55-.478,5.135-.792,7.682ZM277.167,285.5c-.2-2.555-.347-5.149-.442-7.712l1.278-.048c.1,2.545.243,5.122.44,7.66Zm382.9-6.671-1.277-.055c.108-2.548.168-5.129.176-7.671v-.424l1.279,0v.421C660.24,273.661,660.181,276.259,660.071,278.824Zm-382.2-8.76-1.279,0v-.215c.008-2.495.065-5.021.169-7.506l1.277.053c-.1,2.468-.159,4.978-.167,7.459Zm380.96-7.059c-.1-2.54-.247-5.117-.448-7.66l1.275-.1c.2,2.56.352,5.154.45,7.711Zm-380.319-8.27-1.275-.1c.209-2.56.473-5.145.784-7.684l1.27.155C278.978,249.625,278.716,252.193,278.508,254.735Zm379.118-7.025c-.3-2.523-.657-5.08-1.06-7.6l1.263-.2c.406,2.535.765,5.109,1.067,7.65Zm-377.256-8.2-1.262-.206c.414-2.531.884-5.087,1.4-7.6l1.252.257C281.249,234.455,280.782,236.994,280.371,239.508ZM655.2,232.562c-.505-2.5-1.067-5.02-1.67-7.488l1.242-.3c.608,2.485,1.173,5.021,1.681,7.539ZM283.455,224.48l-1.241-.308c.616-2.487,1.293-5,2.01-7.459l1.228.358C284.739,219.517,284.067,222.01,283.455,224.48Zm368.1-6.82c-.7-2.445-1.468-4.91-2.271-7.328l1.214-.4c.809,2.434,1.578,4.916,2.286,7.378Zm-363.81-7.909-1.212-.407c.817-2.432,1.7-4.885,2.615-7.29l1.195.456c-.912,2.389-1.786,4.825-2.6,7.241ZM646.718,203.1c-.9-2.382-1.86-4.771-2.85-7.1l1.177-.5c1,2.346,1.963,4.75,2.87,7.148Zm-353.484-7.72-1.175-.5c1.013-2.359,2.088-4.731,3.2-7.049l1.154.551C295.308,190.682,294.24,193.038,293.234,195.382Zm347.5-6.363c-1.087-2.3-2.236-4.6-3.415-6.852l1.132-.594c1.188,2.266,2.345,4.587,3.439,6.9Zm-340.868-7.506-1.131-.6c1.2-2.268,2.463-4.544,3.754-6.764l1.106.643C302.31,177,301.056,179.261,299.864,181.513Zm333.762-6.058c-1.272-2.206-2.6-4.412-3.959-6.56l1.081-.683c1.365,2.162,2.705,4.383,3.986,6.6ZM307.59,168.234l-1.079-.687c1.379-2.165,2.821-4.33,4.285-6.436l1.05.73C310.391,163.932,308.96,166.083,307.59,168.234ZM625.446,162.5c-1.444-2.1-2.949-4.189-4.474-6.224l1.023-.767c1.536,2.048,3.051,4.156,4.5,6.266Zm-309.091-6.874-1.02-.771c1.548-2.046,3.158-4.088,4.785-6.069l.988.812c-1.617,1.968-3.216,4-4.754,6.028Zm299.9-5.391c-1.607-1.973-3.276-3.941-4.961-5.849l.958-.847c1.7,1.92,3.377,3.9,4.994,5.888ZM326.1,143.763l-.954-.851c1.7-1.913,3.472-3.818,5.254-5.664l.92.888c-1.77,1.833-3.526,3.726-5.219,5.626Zm280-5.026c-1.764-1.842-3.586-3.671-5.416-5.436l.888-.921c1.842,1.777,3.676,3.618,5.451,5.472Zm-269.34-6.012-.884-.925c1.851-1.77,3.765-3.527,5.687-5.223l.846.959c-1.91,1.685-3.811,3.431-5.65,5.189Zm258.3-4.64c-1.905-1.7-3.869-3.374-5.835-4.987l.811-.989c1.979,1.624,3.956,3.313,5.873,5.021Zm-246.795-5.507-.807-.992c1.99-1.619,4.037-3.216,6.084-4.75l.767,1.023c-2.034,1.523-4.068,3.111-6.044,4.718Zm234.927-4.23c-2.035-1.538-4.128-3.054-6.218-4.505l.729-1.05c2.1,1.462,4.211,2.987,6.26,4.536Zm-222.657-4.96-.725-1.053c2.113-1.454,4.28-2.882,6.442-4.245l.682,1.082C364.781,110.525,362.628,111.943,360.529,113.388Zm210.043-3.8c-2.152-1.369-4.36-2.712-6.564-3.992l.643-1.106c2.218,1.289,4.441,2.641,6.607,4.019ZM373.49,105.216l-.638-1.109c2.215-1.275,4.489-2.524,6.758-3.712l.593,1.133c-2.254,1.18-4.513,2.42-6.713,3.687Zm183.8-3.345c-2.255-1.191-4.565-2.352-6.868-3.451l.551-1.154c2.318,1.107,4.645,2.276,6.914,3.475ZM387.057,98.117l-.547-1.156c2.31-1.092,4.675-2.153,7.031-3.153l.5,1.177c-2.34.993-4.69,2.047-6.984,3.132Zm156.359-2.869c-2.347-1.006-4.746-1.976-7.129-2.885l.456-1.195c2.4.915,4.815,1.892,7.177,2.9Zm-142.273-3.11-.452-1.2c2.4-.9,4.845-1.773,7.28-2.58l.4,1.214C405.956,90.378,403.523,91.241,401.143,92.139Zm127.9-2.37c-2.414-.809-4.877-1.58-7.322-2.291l.357-1.228c2.461.716,4.941,1.491,7.371,2.306ZM415.7,87.308l-.353-1.229c2.462-.708,4.974-1.374,7.466-1.982l.3,1.242C420.645,85.943,418.15,86.605,415.7,87.308Zm98.607-1.821c-2.467-.61-4.985-1.179-7.484-1.69l.256-1.253c2.515.515,5.05,1.087,7.534,1.7Zm-83.7-1.813-.253-1.253c2.509-.505,5.066-.966,7.6-1.371l.2,1.263C435.641,82.714,433.1,83.172,430.609,83.673Zm68.674-1.263c-2.514-.409-5.069-.773-7.6-1.08l.155-1.27c2.544.31,5.116.676,7.647,1.088Zm-53.524-1.155-.151-1.27c2.545-.3,5.131-.556,7.686-.754l.1,1.275C450.855,80.7,448.286,80.956,445.758,81.255Zm38.3-.7c-2.535-.206-5.111-.364-7.658-.468l.053-1.278c2.564.106,5.157.264,7.709.472Zm-23-.494L461,78.784c2.557-.1,5.156-.144,7.722-.14l0,1.279C466.175,79.919,463.594,79.966,461.053,80.062Z" transform="translate(-119.179 -36.687)" fill="#3f3d56"/>
    <path id="Path_54" data-name="Path 54" d="M804.437,317.089,682.548,528.21,642.254,598l-7.677-4.431-76.666-44.263L500.68,516.262,292.585,396.122,321.7,0Z" transform="translate(-90.065)" fill="#f1f1f1"/>
    <path id="Path_55" data-name="Path 55" d="M257.364,496.942c6.125-25.025,25.965-45.2,51.146-51.064a69.79,69.79,0,0,1,40.269,2.588c13.107,4.944,24.349,13.738,34.811,22.847,20.21,17.595,39.786,35.911,64.2,47.651,21.807,10.487,46.362,14.941,70.073,8.687a72.9,72.9,0,0,0,29.191-15.043c8.658-7.5,14.75-17.309,18.792-27.95,8.471-22.305,8.3-46.7,14.771-69.529,3.333-11.763,8.623-22.876,17.073-31.84,8.353-8.862,18.985-15.356,30.262-19.813,26.743-10.569,55.688-9.712,83.937-9.339,26.7.353,54.059-.107,79.067-10.622,11.144-4.685,21.547-11.308,29.769-20.245,8.759-9.52,14.595-21.228,18.773-33.38,2.157-6.273,3.875-12.682,5.42-19.13.575-2.4-3.123-3.424-3.7-1.02-3.2,13.349-7.175,26.711-14.208,38.6a73.992,73.992,0,0,1-27.1,26.515c-23.562,13.537-51.378,15.595-77.96,15.536-28.528-.064-57.71-2.187-85.421,6.075-22.551,6.724-43.3,20.195-53.747,41.907-10.395,21.613-10.758,46.138-15.932,69.178-2.57,11.443-6.413,22.709-13.305,32.315a62.347,62.347,0,0,1-27.6,21.094c-23.287,9.331-49.255,6.594-71.86-3.3-25.342-11.1-45.64-29.58-66.154-47.628-9.882-8.694-20.275-17.159-32.269-22.777a72.859,72.859,0,0,0-102,48.672c-.587,2.4,3.112,3.421,3.7,1.02Z" transform="translate(-112.103 -95.09)" fill="#3f3d56"/>
    <path id="Path_56" data-name="Path 56" d="M621.562,700.451H557.314a224.709,224.709,0,0,1,0-76.6h64.248a137.836,137.836,0,0,0,0,76.6Z" transform="translate(-204.581 -204.515)" fill="#ffedf1"/>
    <path id="Path_57" data-name="Path 57" d="M304.384,589.564h64.248a224.709,224.709,0,0,0,0-76.6H304.384A137.834,137.834,0,0,1,304.384,589.564Z" transform="translate(-127.735 -170.381)" fill="#818181"/>
    <path id="Path_58" data-name="Path 58" d="M323.1,556.647a15.379,15.379,0,0,1,13.31,1c3.376,1.886,6.438,4.19,10.356,4.791a16.011,16.011,0,0,0,9.4-1.437c3.743-1.83,6.053-5.352,9.257-7.879,1.8-1.417-.737-3.921-2.517-2.517-3.129,2.468-5.361,6.056-9.173,7.572-4.081,1.623-8.054.795-11.756-1.338-2.984-1.719-5.765-3.687-9.191-4.435a18.8,18.8,0,0,0-10.634.809c-2.128.791-1.207,4.233.946,3.432Z" transform="translate(-132.833 -181.842)" fill="#f2f2f2"/>
    <path id="Path_59" data-name="Path 59" d="M323.1,581.5a15.379,15.379,0,0,1,13.31,1c3.376,1.886,6.438,4.19,10.356,4.791a16.011,16.011,0,0,0,9.4-1.437c3.743-1.83,6.053-5.352,9.257-7.879,1.8-1.417-.737-3.921-2.517-2.517-3.129,2.467-5.361,6.056-9.173,7.572-4.081,1.623-8.054.795-11.756-1.338-2.984-1.719-5.765-3.687-9.191-4.435a18.8,18.8,0,0,0-10.634.809c-2.128.791-1.207,4.233.946,3.432Z" transform="translate(-132.833 -189.493)" fill="#f2f2f2"/>
    <path id="Path_60" data-name="Path 60" d="M607.2,653.5a15.379,15.379,0,0,0-13.31,1c-3.376,1.886-6.438,4.19-10.356,4.791a16.011,16.011,0,0,1-9.4-1.437c-3.743-1.83-6.053-5.352-9.257-7.879-1.8-1.417.737-3.921,2.517-2.517,3.129,2.468,5.361,6.056,9.173,7.572,4.081,1.623,8.054.795,11.756-1.338,2.984-1.719,5.765-3.687,9.191-4.435a18.8,18.8,0,0,1,10.634.809C610.273,650.857,609.352,654.3,607.2,653.5Z" transform="translate(-207.731 -211.655)" fill="#4b4c4d"/>
    <path id="Path_61" data-name="Path 61" d="M607.2,677.5a15.379,15.379,0,0,0-13.31,1c-3.376,1.886-6.438,4.19-10.356,4.791a16.011,16.011,0,0,1-9.4-1.437c-3.743-1.83-6.053-5.352-9.257-7.879-1.8-1.417.737-3.921,2.517-2.517,3.129,2.468,5.361,6.056,9.173,7.572,4.081,1.623,8.054.795,11.756-1.338,2.984-1.719,5.765-3.687,9.191-4.435a18.8,18.8,0,0,1,10.634.809C610.273,674.855,609.352,678.3,607.2,677.5Z" transform="translate(-207.731 -219.042)" fill="#4b4c4d"/>
    <path id="Path_62" data-name="Path 62" d="M607.2,701.495a15.379,15.379,0,0,0-13.31,1c-3.376,1.886-6.438,4.19-10.356,4.791a16.011,16.011,0,0,1-9.4-1.437c-3.743-1.83-6.053-5.352-9.257-7.879-1.8-1.417.737-3.921,2.517-2.517,3.129,2.468,5.361,6.056,9.173,7.572,4.081,1.623,8.054.795,11.756-1.338,2.984-1.719,5.765-3.687,9.191-4.435a18.8,18.8,0,0,1,10.634.808C610.273,698.853,609.352,702.3,607.2,701.495Z" transform="translate(-207.731 -226.429)" fill="#4b4c4d"/>
    <path id="Path_63" data-name="Path 63" d="M762.127,215.171c-13.75-23.233-40.953-24.316-40.953-24.316s-26.508-3.39-43.513,31.995c-15.85,32.981-37.724,64.825-3.522,72.546l6.178-19.229,3.826,20.66a133.815,133.815,0,0,0,14.634.25c36.628-1.183,71.511.346,70.388-12.8C767.673,266.807,775.358,237.526,762.127,215.171Z" transform="translate(-235.98 -71.202)" fill="#2f2e41"/>
    <path id="Path_64" data-name="Path 64" d="M646.546,544.754l-46.372,32.2s-27.05,28.338-7.729,28.338S619.5,580.82,619.5,580.82l59.253-25.762Z" transform="translate(-214.266 -180.167)" fill="#ffb8b8"/>
    <path id="Path_65" data-name="Path 65" d="M687.244,363.312S646.669,488.9,659.55,495.342s41.219,10.3,41.219,10.3Z" transform="translate(-236.287 -124.315)" fill="#c64b68"/>
    <path id="Path_67" data-name="Path 67" d="M824.267,708.377l-40.294,69.79-7.677-4.432c-14.671-56.282-32.368-123.361-32.368-123.361l-44.3,79.1L642.4,696.429c13.7-29.491,37.12-98.865,37.12-98.865l104.341-52.811s33.489,20.61,34.776,70.846,1.287,79.864,1.287,79.864S821.627,700.356,824.267,708.377Z" transform="translate(-231.785 -180.167)"/>
    <circle id="Ellipse_11" data-name="Ellipse 11" cx="33.491" cy="33.491" r="33.491" transform="translate(443.229 139.813)" fill="#ffb8b8"/>
    <path id="Path_68" data-name="Path 68" d="M736.613,300.967s7.729,24.474,0,33.491,42.507-12.881,42.507-12.881-18.033-25.762-12.881-37.355Z" transform="translate(-260.537 -99.969)" fill="#ffb8b8"/>
    <path id="Path_69" data-name="Path 69" d="M769.263,313.217a33,33,0,0,1-3.185,4.325c-1.288,1.288-9.017,2.576-10.3,5.152s-20.282,6.248-20.282,6.248l-6.768,2.768s-32.2,7.729-32.2,14.169-2.576,25.762-2.576,25.762-10.3,11.593-3.864,39.931c2.482,10.919,5.94,32.1,4,54.55-3.095,35.814-12.214,74.461-2.713,76.836,15.457,3.864,59.253,5.152,73.422-14.169s15.457-36.067,30.914-37.355-2.576-54.1-2.576-54.1L812.449,311.1S780.177,299.875,769.263,313.217Z" transform="translate(-245.563 -106.884)" fill="#b13250"/>
    <path id="Path_70" data-name="Path 70" d="M749.578,572.7h64.248a224.709,224.709,0,0,0,0-76.6H749.578a137.835,137.835,0,0,1,0,76.6Z" transform="translate(-264.777 -165.188)" fill="#ffd9e2"/>
    <path id="Path_71" data-name="Path 71" d="M767.923,530.935a15.379,15.379,0,0,1,13.31,1c3.376,1.886,6.438,4.19,10.356,4.791a16.011,16.011,0,0,0,9.4-1.437c3.743-1.83,6.053-5.352,9.257-7.879,1.8-1.417-.737-3.921-2.517-2.517-3.129,2.468-5.361,6.056-9.173,7.572-4.081,1.623-8.054.795-11.755-1.338-2.984-1.719-5.765-3.687-9.191-4.435a18.8,18.8,0,0,0-10.634.809c-2.128.791-1.207,4.233.946,3.432Z" transform="translate(-269.761 -173.927)" fill="#f2f2f2"/>
    <path id="Path_72" data-name="Path 72" d="M767.923,554.933a15.379,15.379,0,0,1,13.31,1c3.376,1.886,6.438,4.19,10.356,4.791a16.011,16.011,0,0,0,9.4-1.437c3.743-1.83,6.053-5.352,9.257-7.879,1.8-1.417-.737-3.921-2.517-2.517-3.129,2.468-5.361,6.056-9.173,7.572-4.081,1.623-8.054.795-11.755-1.338-2.984-1.719-5.765-3.687-9.191-4.435a18.8,18.8,0,0,0-10.634.808c-2.128.791-1.207,4.233.946,3.432Z" transform="translate(-269.761 -181.314)" fill="#f2f2f2"/>
    <path id="Path_73" data-name="Path 73" d="M875.442,429.375l-46.372,32.2s-27.05,28.338-7.729,28.338,27.05-24.474,27.05-24.474l59.253-25.762Z" transform="translate(-284.726 -144.651)" fill="#ffb8b8"/>
    <path id="Path_74" data-name="Path 74" d="M755.631,216.528,728.756,202.45l-16.862,2.616A30.144,30.144,0,0,0,687.116,228.2l-3.153,13.926,19.115-.735,5.34-12.46v12.254l8.82-.339,5.119-19.837,3.2,21.116,31.355-.64Z" transform="translate(-244.579 -74.798)" fill="#2f2e41"/>
    <path id="Path_75" data-name="Path 75" d="M855.142,315.642l9.017-2.576s91.455,37.355,88.879,69.557,1.288,32.2-14.169,33.491-60.541-14.169-59.253-16.745,10.3-15.457,10.3-15.457l-34.779-27.05Z" transform="translate(-297.272 -108.848)" fill="#b13250"/>
    <circle id="Ellipse_12" data-name="Ellipse 12" cx="5.152" cy="5.152" r="5.152" transform="translate(505.058 168.151)" fill="#ffb8b8"/>
    <path id="Path_76" data-name="Path 76" d="M858.6,388.675c33.616-1.814,67.7,2.959,100.771-5.176,2.4-.589,1.381-4.29-1.02-3.7-32.712,8.046-66.5,3.245-99.751,5.039-2.456.133-2.471,3.97,0,3.837Z" transform="translate(-297.77 -129.371)" fill="#3f3d56"/>
    <path id="Path_77" data-name="Path 77" d="M1054.789,429.236l53.314-35.852a224.709,224.709,0,0,0-42.746-63.567l-53.314,35.852A137.835,137.835,0,0,1,1054.789,429.236Z" transform="translate(-345.57 -114.005)" fill="#818181"/>
    <path id="Path_78" data-name="Path 78" d="M1052.986,396.574a15.379,15.379,0,0,1,11.6-6.6c3.854-.318,7.681-.116,11.267-1.8a16.011,16.011,0,0,0,7-6.438c2.085-3.607,2.036-7.819,3.285-11.7.7-2.179-2.8-2.843-3.493-.684-1.22,3.794-1.069,8.017-3.387,11.4-2.481,3.624-6.24,5.154-10.5,5.45-3.435.239-6.841.158-10.1,1.449a18.8,18.8,0,0,0-8.373,6.6C1048.961,396.1,1051.645,398.44,1052.986,396.574Z" transform="translate(-357.232 -125.766)" fill="#f2f2f2"/>
    <path id="Path_79" data-name="Path 79" d="M1066.856,417.2a15.379,15.379,0,0,1,11.6-6.6c3.854-.318,7.681-.116,11.267-1.8a16.011,16.011,0,0,0,7-6.438c2.085-3.607,2.036-7.819,3.285-11.7.7-2.179-2.8-2.843-3.493-.684-1.22,3.794-1.069,8.017-3.387,11.4-2.481,3.624-6.24,5.154-10.5,5.45-3.435.238-6.841.158-10.1,1.449a18.8,18.8,0,0,0-8.373,6.6c-1.325,1.844,1.36,4.186,2.7,2.32Z" transform="translate(-361.502 -132.115)" fill="#f2f2f2"/>
    <rect id="Rectangle_11" data-name="Rectangle 11" width="269.459" height="69.376" transform="translate(0.227 34.999) rotate(0.187)" fill="#3f3d56"/>
    <circle id="Ellipse_13" data-name="Ellipse 13" cx="18.877" cy="18.877" r="18.877" transform="translate(13.438 50.81)" fill="#f8f8f8"/>
    <rect id="Rectangle_12" data-name="Rectangle 12" width="78.099" height="5.552" transform="translate(71.971 53.901) rotate(0.187)" fill="#fff"/>
    <rect id="Rectangle_13" data-name="Rectangle 13" width="172.113" height="5.552" transform="translate(71.928 67.226) rotate(0.187)" fill="#fff"/>
    <rect id="Rectangle_14" data-name="Rectangle 14" width="172.113" height="5.552" transform="translate(71.884 80.55) rotate(0.187)" fill="#fff"/>
    <rect id="Rectangle_15" data-name="Rectangle 15" width="269.459" height="69.376" transform="translate(0.227 219.809) rotate(0.187)" fill="#3f3d56"/>
    <circle id="Ellipse_14" data-name="Ellipse 14" cx="18.877" cy="18.877" r="18.877" transform="translate(13.438 235.621)" fill="#f8f8f8"/>
    <rect id="Rectangle_16" data-name="Rectangle 16" width="78.099" height="5.552" transform="translate(71.971 238.711) rotate(0.187)" fill="#fff"/>
    <rect id="Rectangle_17" data-name="Rectangle 17" width="172.113" height="5.552" transform="translate(71.928 252.036) rotate(0.187)" fill="#fff"/>
    <rect id="Rectangle_18" data-name="Rectangle 18" width="172.113" height="5.552" transform="translate(71.884 265.36) rotate(0.187)" fill="#fff"/>
    <rect id="Rectangle_19" data-name="Rectangle 19" width="269.459" height="69.376" transform="translate(334.526 196.85) rotate(179.813)" fill="#3f3d56"/>
    <circle id="Ellipse_15" data-name="Ellipse 15" cx="18.877" cy="18.877" r="18.877" transform="translate(283.333 143.285)" fill="#fff"/>
    <rect id="Rectangle_20" data-name="Rectangle 20" width="78.099" height="5.552" transform="translate(262.573 151.928) rotate(179.813)" fill="#fff"/>
    <rect id="Rectangle_21" data-name="Rectangle 21" width="172.113" height="5.552" transform="translate(262.616 165.253) rotate(179.813)" fill="#fff"/>
    <rect id="Rectangle_22" data-name="Rectangle 22" width="172.113" height="5.552" transform="translate(262.66 178.578) rotate(179.813)" fill="#fff"/>
  </g>
</svg>
