<svg xmlns="http://www.w3.org/2000/svg" width="24" height="24" viewBox="0 0 24 24">
  <path id="_7850101451585492608" data-name="7850101451585492608" d="M2.074.824,2.228.669a2.285,2.285,0,0,1,3.53.308L8.9,5.461a2.313,2.313,0,0,1-.257,2.964l-.194.194a1.748,1.748,0,0,0-.28,2.136,14.473,14.473,0,0,0,5.055,5.055,1.748,1.748,0,0,0,2.136-.28l.194-.194a2.313,2.313,0,0,1,2.964-.257L23,18.22a2.285,2.285,0,0,1,.308,3.53l-.154.154a7.093,7.093,0,0,1-8.778.988A41.693,41.693,0,0,1,1.086,9.6,7.093,7.093,0,0,1,2.074.824Z" transform="translate(-0.002 0.024)" fill="#b13250"/>
</svg>
