<svg xmlns="http://www.w3.org/2000/svg" xmlns:xlink="http://www.w3.org/1999/xlink" width="721" height="601" viewBox="0 0 721 601"><defs><clipPath id="a"><rect width="721" height="601" transform="translate(160 3778)" fill="#fff" stroke="#707070" stroke-width="1"/></clipPath></defs><g transform="translate(-160 -3778)" clip-path="url(#a)"><g transform="translate(160 3804.951)"><circle cx="104.392" cy="104.392" r="104.392" transform="translate(214.405 114.949)" fill="#b13250"/><path d="M516.156,430.494a105.2,105.2,0,1,1,105.2-105.2A105.314,105.314,0,0,1,516.156,430.494Zm0-208.785A103.589,103.589,0,1,0,619.745,325.3,103.589,103.589,0,0,0,516.156,221.709Z" transform="translate(-183.707 -124.427)" fill="#3f3d56"/><path d="M779.207,455.088H127.961V100.957H779.207Zm-649.64-1.606H777.6V102.563H129.567Z" transform="translate(-127.961 -100.957)" fill="#3f3d56"/><rect width="142" height="14" transform="translate(22 28.049)" fill="#f2f2f2"/><rect width="142" height="14" transform="translate(236 28.049)" fill="#f2f2f2"/><rect width="144" height="14" transform="translate(450 28.049)" fill="#f2f2f2"/><path d="M309.5,142.017H164.961v-16.06H309.5Zm-142.937-1.606H307.9V127.563H166.567Z" transform="translate(-135.249 -105.882)" fill="#3f3d56"/><path d="M576.5,142.017H431.961v-16.06H576.5Zm-142.937-1.606H574.9V127.563H433.567Z" transform="translate(-187.844 -105.882)" fill="#3f3d56"/><path d="M843.5,142.017H698.961v-16.06H843.5Zm-142.937-1.606H841.9V127.563H700.567Z" transform="translate(-240.439 -105.882)" fill="#3f3d56"/><rect width="664.58" height="2.051" transform="translate(93.53 548.25)" fill="#2f2e41"/><path d="M393.5,459.468,444.09,361.5l13.651,8.03-57.817,93.953Z" transform="translate(-77.513 -71.21)" fill="#3f3d56"/><path d="M484.173,604.835s9.324,7.326,10.383-8.349a17.98,17.98,0,0,1,6.542-12.921c4.222-3.373,10.3-5.68,17.605-1.215,6.5,3.975,7.968,9.739,7.61,14.876a22.862,22.862,0,0,1-11.429,17.87c-7.249,4.3-18.692,7.542-30.711-3.035C484.173,612.062,476.946,604.032,484.173,604.835Z" transform="translate(-197.496 -195.296)" fill="#b13250"/><circle cx="19.486" cy="19.486" r="19.486" transform="translate(356.644 138.528)" fill="#ffb8b8"/><path d="M583.586,307.953s5.128,26.665,3.077,31.793,28.716-2.051,28.716-2.051-6.154-26.665-5.128-32.819S583.586,307.953,583.586,307.953Z" transform="translate(-217.712 -140.709)" fill="#ffb8b8"/><path d="M413.479,323.215l2.051,27.69,10.18,43.488,3.153,11.894,5.128-18.461-5.128-42.049-1.742-18.931Z" transform="translate(-81.448 -63.668)" fill="#ffb8b8"/><path d="M671.265,419.063V447.78s-3.077,36.921-9.23,46.151-8.2-36.921-8.2-36.921l4.822-33.844Z" transform="translate(-231.549 -163.619)" fill="#ffb8b8"/><path d="M561.233,529.328s-5.128,6.154-1.026,68.714-2.051,107.687,11.282,107.687c0,0-4.1,13.333,7.179,14.358s16.409,2.051,17.435-1.026,3.077-17.435,0-17.435c0,0,0,4.1,2.051-12.307s2.051-94.354,7.179-104.61l16.409,37.947s0,17.435,3.077,25.64,8.2,55.382,8.2,55.382L632,710.857s24.614,4.1,25.64,0,1.026-10.256,0-12.307-1.026-2.051,1.026-6.154,2.051-7.179,1.025-10.256-1.025-69.74-1.025-69.74-2.051-81.021-14.358-85.124S561.233,529.328,561.233,529.328Z" transform="translate(-212.793 -184.657)" fill="#2f2e41"/><path d="M573.866,757.513l-8.2,14.358s-12.82-4.615-10.256,7.179c22.05,1.538,37.434-.513,37.434-.513s5.128,2.051,6.154-1.026-2.564-13.845-5.641-13.845S573.866,757.513,573.866,757.513Z" transform="translate(-212.094 -230.288)" fill="#2f2e41"/><path d="M651.126,751.468s-8.2,18.461-5.128,19.486,30.768,5.128,32.819,6.153,12.307,2.051,13.333-4.1-5.128-8.2-5.128-8.2-11.281-2.051-14.358-12.307S651.126,751.468,651.126,751.468Z" transform="translate(-229.87 -228.346)" fill="#2f2e41"/><path d="M609.632,341.874s-27.691-5.128-33.844,0-31.793,15.384-31.793,20.512,13.333,55.382,13.333,55.382-7.179,75.893,0,77.945,19.486-4.1,33.844,3.077,55.382-6.154,55.382-6.154S631.169,427,635.271,414.691s7.179-54.356,7.179-54.356S625.015,341.874,609.632,341.874Z" transform="translate(-209.913 -147.965)" fill="#8985a8"/><path d="M548.552,364.145l-7.179,2.051s-15.384,48.2-9.23,50.254,23.589,6.154,25.64,6.154S548.552,364.145,548.552,364.145Z" transform="translate(-207.292 -152.801)" fill="#8985a8"/><path d="M646.167,357.759l16.409,6.154s21.537,40,16.409,45.126S651.3,419.295,651.3,419.295Z" transform="translate(-230.039 -151.543)" fill="#8985a8"/><path d="M590.175,267.717a11.013,11.013,0,0,0-4.874.215,12.708,12.708,0,0,0-3.464,2.272,40.549,40.549,0,0,1-5.923,3.924c-1.662.9-3.448,1.737-4.608,3.23a9.808,9.808,0,0,0-1.3,2.462,29.5,29.5,0,0,0-1.551,16.057,7.381,7.381,0,0,0,.683,2.2c1.066,1.964,3.42,2.738,5.4,3.767,3.765,1.955,6.62,5.246,9.708,8.155a18.98,18.98,0,0,0,3.836,2.956c4.406,2.4,9.791,1.619,14.737.769a2.656,2.656,0,0,0,2.651-2.681l3.9-17.559a28.643,28.643,0,0,0,1-7.986c-.272-4.262-2.58-10.167-5.708-13.194C601.022,268.783,594.939,268.221,590.175,267.717Z" transform="translate(-214.636 -133.771)" fill="#2f2e41"/><ellipse cx="28" cy="1.5" rx="28" ry="1.5" transform="translate(268 546.049)" fill="#b13250"/><ellipse cx="27.5" cy="1.5" rx="27.5" ry="1.5" transform="translate(262 549.049)" fill="#b13250"/><ellipse cx="15.257" cy="0.872" rx="15.257" ry="0.872" transform="translate(245.723 539.558)" fill="#b13250"/><ellipse cx="15.257" cy="0.872" rx="15.257" ry="0.872" transform="translate(300.328 558.831)" fill="#b13250"/></g></g></svg>