<svg xmlns="http://www.w3.org/2000/svg" xmlns:xlink="http://www.w3.org/1999/xlink" width="764.056" height="537.548" viewBox="0 0 764.056 537.548"><defs><linearGradient id="a" x1="0.5" y1="1" x2="0.5" gradientUnits="objectBoundingBox"><stop offset="0" stop-color="gray" stop-opacity="0.251"/><stop offset="0.54" stop-color="gray" stop-opacity="0.122"/><stop offset="1" stop-color="gray" stop-opacity="0.102"/></linearGradient></defs><g transform="translate(0 -0.008)"><path d="M353.012,139.442c-9.4,1.226-19.617,3.289-25.831,11.5-7.346,9.712-6.361,24.473-3.033,36.768s8.587,24.279,8.533,37.156c-.147,20.47-14.125,37.846-30.035,47.007s-33.867,12.116-51.041,17.461a198.575,198.575,0,0,0-45.587,20.889c-12.093,7.5-24.256,17.306-29.1,32.106-7.935,24.271,6.663,50.032,21.083,69.96,44.214,61.1,100.576,119.728,169.473,125.662,51.467,4.4,102.988-21.634,153.9-12.085,23.387,4.375,45.176,16.026,67.128,26.288s45.044,19.392,68.711,18.229,48.209-14.583,58.464-39.165c6.058-14.529,6.671-31.377,12.271-46.146,17.158-45.308,70.634-52.662,101.662-86.761,16.289-17.911,25.6-42.508,33.355-66.88,12.527-39.653,21.921-81.448,19.827-123.606-.915-18.353-4.344-37.412-14.529-51.576-7.408-10.309-17.748-17.151-27.847-23.767-22.992-15.064-47.674-30.617-74.086-28.825-15.219,1.032-29.616,7.8-44.137,13.109-27.661,10.084-56.517,15.079-85.225,20.005-47.433,8.145-95.55,16.29-143.627,12.225-21.231-1.807-41.282-9.021-62.172-11.977C405.767,133.43,378.315,136.145,353.012,139.442Z" transform="translate(-122.57 -103.51)" fill="#f8f8f8" opacity="0.702"/><circle cx="29.476" cy="29.476" r="29.476" transform="translate(584.095 102.37)" fill="#f8f8f8" opacity="0.5"/><path d="M593.331,290.4H323.6l15.413-47.434h8.261l1.652,12.3H562.505l1.1-12.3h9.906Z" transform="translate(-72.586 -54.499)" fill="#f8f8f8"/><path d="M593.331,290.4H323.6l15.413-47.434h8.261l1.652,12.3H562.505l1.1-12.3h9.906Z" transform="translate(-72.586 -54.499)" opacity="0.2"/><path d="M602.816,312.122H290.15L282.44,292.8H609.425Z" transform="translate(-63.354 -65.676)" fill="#f8f8f8"/><path d="M595.14,330.012H300.083l-7.7-12.3H605.046Z" transform="translate(-65.583 -71.263)" fill="#f8f8f8"/><rect width="295.05" height="14.056" transform="translate(234.499 255.235)" fill="#f8f8f8"/><rect width="335.789" height="52.708" transform="translate(216.883 292.127)" fill="#f8f8f8"/><rect width="335.789" height="52.708" transform="translate(216.883 292.127)" opacity="0.2"/><path d="M764.056,567.756,0,562.489,22.022,437.75H747.541Z" transform="translate(0 -98.189)" fill="#f8f8f8"/><g transform="translate(204.782 430.921)" opacity="0.2"><path d="M275.635,555.53h9.758a11.635,11.635,0,0,1,11.635,11.635v23.5H264v-23.5A11.635,11.635,0,0,1,275.635,555.53Z" transform="translate(-264 -555.53)"/><path d="M367.885,555.53h9.758a11.635,11.635,0,0,1,11.635,11.635v23.5H356.25v-23.5a11.635,11.635,0,0,1,11.635-11.635Z" transform="translate(-284.692 -555.53)"/><path d="M482.845,555.53H492.6a11.635,11.635,0,0,1,11.635,11.635v23.5H471.21v-23.5a11.635,11.635,0,0,1,11.635-11.635Z" transform="translate(-310.479 -555.53)"/><path d="M602.065,555.53h9.75a11.635,11.635,0,0,1,11.635,11.635v23.5H590.43v-23.5a11.635,11.635,0,0,1,11.635-11.635Z" transform="translate(-337.221 -555.53)"/><path d="M697.165,555.53h9.758a11.635,11.635,0,0,1,11.635,11.635v23.5H685.53v-23.5A11.635,11.635,0,0,1,697.165,555.53Z" transform="translate(-358.553 -555.53)"/></g><rect width="35.232" height="70.278" transform="translate(364.412 344.835)" opacity="0.2"/><circle transform="translate(145.326 490.65)" fill="none" stroke="#000" stroke-miterlimit="10" stroke-width="1"/><rect width="5.507" height="52.708" transform="translate(216.883 292.127)" fill="#f8f8f8"/><rect width="5.507" height="52.708" transform="translate(248.811 292.127)" fill="#f8f8f8"/><rect width="5.507" height="52.708" transform="translate(284.043 292.127)" fill="#f8f8f8"/><rect width="5.507" height="52.708" transform="translate(318.173 292.127)" fill="#f8f8f8"/><rect width="5.507" height="52.708" transform="translate(355.608 292.127)" fill="#f8f8f8"/><rect width="5.507" height="52.708" transform="translate(406.245 292.127)" fill="#f8f8f8"/><rect width="5.507" height="52.708" transform="translate(440.375 292.127)" fill="#f8f8f8"/><rect width="5.507" height="52.708" transform="translate(478.912 292.127)" fill="#f8f8f8"/><rect width="5.507" height="52.708" transform="translate(511.941 292.127)" fill="#f8f8f8"/><rect width="5.507" height="52.708" transform="translate(547.173 292.127)" fill="#f8f8f8"/><path d="M609.66,376.049H273.871L254.06,358.48H628.378Z" transform="translate(-56.988 -80.408)" fill="#f8f8f8"/><rect width="13.21" height="7.028" transform="translate(216.883 295.641)" fill="#f8f8f8"/><rect width="13.21" height="7.028" transform="translate(245.514 295.641)" fill="#f8f8f8"/><rect width="13.21" height="7.028" transform="translate(279.637 295.641)" fill="#f8f8f8"/><rect width="13.21" height="7.028" transform="translate(314.869 295.641)" fill="#f8f8f8"/><rect width="13.21" height="7.028" transform="translate(352.303 295.641)" fill="#f8f8f8"/><rect width="13.21" height="7.028" transform="translate(401.847 295.641)" fill="#f8f8f8"/><rect width="13.21" height="7.028" transform="translate(437.079 295.641)" fill="#f8f8f8"/><rect width="13.21" height="7.028" transform="translate(475.607 295.641)" fill="#f8f8f8"/><rect width="13.21" height="7.028" transform="translate(508.636 295.641)" fill="#f8f8f8"/><rect width="13.21" height="7.028" transform="translate(539.462 295.641)" fill="#f8f8f8"/><path d="M628.988,354.925H251.366L246.96,342.63H632.292Z" transform="translate(-55.395 -76.853)" fill="#f8f8f8"/><path d="M628.988,354.925H251.366L246.96,342.63H632.292Z" transform="translate(-55.395 -76.853)" opacity="0.2"/><ellipse cx="8.804" cy="14.056" rx="8.804" ry="14.056" transform="translate(373.224 246.447)" fill="#f8f8f8"/><ellipse cx="8.804" cy="14.056" rx="8.804" ry="14.056" transform="translate(373.224 246.447)" opacity="0.2"/><ellipse cx="5.507" cy="8.781" rx="5.507" ry="8.781" transform="translate(376.521 251.721)" fill="#f8f8f8"/><path d="M677.089,625l-37.761-28.98s-3.048-12.078-4.266-20.532-3.048-44.68-3.048-44.68a52.639,52.639,0,0,0,1.714-9.588c.372-.078.776-.171,1.125-.271a18.834,18.834,0,0,0,12.714-10.961c3.878-9.65-1.133-21.052-7.478-28.7s-14.327-13.792-18.5-23.271c-5.151-11.682-3.39-25.8-6.019-38.583a11.636,11.636,0,0,0-1.947-4.988c-1.629-2.025-4.181-2.467-6.462-3.273-7.2-2.552-12.6-9.549-16.809-16.848-6.818-11.829-13.877-29.818-27.925-30.841-5.22-.38-10.674,1.381-15.948,1.365a176.822,176.822,0,0,0-24.4,1.226c-2.9.4-5.911.939-8.331,2.855-8.308,6.57-4.546,23.938-12.551,31.028-2.381,2.1-5.43,2.855-8.121,4.3-10.146,5.43-14.653,19.912-14.055,32.944.279,6.1,1.551,12.465,5.158,16.926,2.855,3.568,6.927,5.616,9.587,9.378,4.3,6.074,3.716,14.125,3.25,22.317-5.74,2.4-10.348,5.166-11.8,8.137-4.871,9.96-4.266,44.075-4.266,44.075s1.831,55.85-12.178,62.831l-52.382,36.225s-37.156-32.3-46.293-13.28c-6.252,13.008,16.561,20.37,31.6,23.721-9.487,6.733-14.738,19.175-10.286,27.607,6.981,13.28,26.5,22.34,26.5,22.34s74.428,3.591,108.829-4.119h.566c14.606,2.645,35.565,5.43,52.375,3.754.318.776.543,1.272.543,1.272s107.821,9.06,127.3-27.778c10-18.888-.434-27.615-12.969-31.633,14.032-1.117,30.011-5.042,31.85-16.972C729.774,600.249,677.089,625,677.089,625Zm-10.86,11.55c-19.726,7.191-35.744,7.594-44.269,7.051-4.2-9.13-21.657-48.706-22.115-75.188.109-5.911,1.164-11.077,3.522-14.955,5.081-8.354,6.578-14.9,6.407-19.881v-1.086a20.222,20.222,0,0,0-.442-4.53,11.885,11.885,0,0,1,.721,6.469c-1.831,9.363,3.049,70.037,3.049,70.037s3.956,13.582,12.178,17.507Zm-193.186-4.29,18.88-12.078s8.835-4.212,9.727-14.505l6.206-49.047a50.516,50.516,0,0,0,1.675,6.206c1.1,3.219,1.551,7.935,1.637,13.551-.209,27.343-9.518,72.768-9.518,72.768h.116l-.07.326-.659.039c-15.32-.465-51.017-1.8-71.007-4.569ZM439.96,660.853v.109h-4.654Z" transform="translate(-166.164 -161.811)" fill="url(#a)"/><path d="M621.385,400.9c4.072,7.121,9.308,13.962,16.251,16.429,2.2.776,4.654,1.218,6.206,3.188a11.434,11.434,0,0,1,1.877,4.864c2.536,12.465.838,26.234,5.818,37.621,4.034,9.223,11.752,15.235,17.887,22.673s10.953,18.562,7.229,27.964a18.252,18.252,0,0,1-12.233,10.689c-5.135,1.388-10.5.776-15.708-.116-6.873-1.218-13.869-3.1-19.594-7.757-9.906-8.044-14.094-22.495-19.276-35.34-2.436-6.019-5.67-12.326-11.023-14.482-6.136-2.467-13.024,1.652-17,7.695s-5.748,13.637-7.672,20.944c-2.172,8.246-4.926,16.817-10.635,22.208A17.9,17.9,0,0,1,544.4,521.3c-6.361-2.653-11.395-9.355-12.853-17.135-2.257-11.992,3.149-26.373-3.483-35.852-2.575-3.669-6.508-5.67-9.308-9.145-3.452-4.352-4.716-10.549-4.988-16.5-.582-12.706,3.778-26.862,13.582-32.121,2.622-1.4,5.546-2.141,7.85-4.189,7.757-6.888,4.1-23.821,12.132-30.252,2.327-1.869,5.244-2.389,8.052-2.785a166.542,166.542,0,0,1,23.589-1.195c5.1,0,10.371-1.7,15.421-1.326C607.973,371.829,614.776,389.367,621.385,400.9Z" transform="translate(-198.617 -163.453)" fill="#965d7b"/><path d="M357.29,633.506l2.971,35.193,207.792-1.233-3.956-38.42-70.254-8.176-123.2,7.431Z" transform="translate(-80.143 -139.265)" fill="#575988"/><path d="M357.29,633.506l2.971,35.193,207.792-1.233-3.956-38.42-70.254-8.176-123.2,7.431Z" transform="translate(-80.143 -139.265)"/><path d="M621.056,772.39l-69.176,6.477s47.395,12.07,75.064,6.206Z" transform="translate(-207.178 -253.544)" fill="#f7c4a7"/><path d="M621.056,772.39l-69.176,6.477s47.395,12.07,75.064,6.206Z" transform="translate(-207.178 -253.544)" opacity="0.1"/><path d="M568.39,452.86s13.544,35.62-6.477,51.514-3.529,60.349-3.529,60.349l77.127-3.529s7.656-50.04,3.529-60.644c0,0-18.252,5.3-22.371-5.887s-7.067-41.8-7.067-41.8Z" transform="translate(-207.205 -181.871)" fill="#f7c4a7"/><path d="M517.226,728.661s-65.057-1.474-84.186-6.206-35.62,17.957-28.848,30.911,25.6,21.781,25.6,21.781,96.845,4.708,117.75-8.533c0,0,7.951-22.666,0-27.079H446.584l74.466-1.474Z" transform="translate(-173.703 -242.2)"/><path d="M672.984,719.872s21.781,4.708,51.808-7.067c0,0,56.222-1.769,37.388,34.13s-123.048,27.079-123.048,27.079-6.206-13.249,0-16.778,60.054-26.2,76.793-25.024l-46.541,9.122Z" transform="translate(-226.131 -240.176)"/><path d="M617.267,470.549c-1.125-8.385-1.784-15.219-1.784-15.219H574.27a80.359,80.359,0,0,1,3.941,16.662,32.385,32.385,0,0,0,39.056-1.443Z" transform="translate(-212.201 -182.425)" opacity="0.1"/><circle cx="32.377" cy="32.377" r="32.377" transform="translate(351.326 228.745)" fill="#f7c4a7"/><path d="M532.622,511.8s-38.854,7.361-43.563,17.065-4.119,42.981-4.119,42.981,1.769,54.461-11.775,61.225L422.536,668.4s-35.914-31.5-44.742-12.954,42.392,25.319,42.392,25.319L477.292,663.7l18.252-11.775a18.136,18.136,0,0,0,9.417-14.133l7.656-60.643,30.617-8.827h49.435l6.624-18.911s12.217,9.789,10.448,18.911,2.94,68.261,2.94,68.261,3.824,13.249,11.775,17.065l45.929,16.538s48.574,4.708,51.808-16.483-47.689,2.94-47.689,2.94L638,628.38s-2.94-11.775-4.119-20.021-2.94-43.563-2.94-43.563,11.185-37.094-21.192-43.563l-41.8-12.954Z" transform="translate(-167.9 -194.302)" fill="#f7c4a7"/><path d="M543.629,519.713l6.035,39.886s-6.206,18.547,0,36.8S542,682.647,542,682.647s72.706,23.271,117.129-3.529c0,0-32.672-68.881-18.841-91.842s.225-31.943.225-31.943l2.172-42.205-10.006-2.94-5.887,41.724s-40.623,28.258-70.65,3.529l-6.477-45.331Z" transform="translate(-204.962 -194.712)" opacity="0.1"/><path d="M589.315,580.372a23.837,23.837,0,0,0-30.865-8.68C568.309,579.069,579.176,581.039,589.315,580.372Z" transform="translate(-208.652 -207.961)" fill="#fff" opacity="0.07"/><path d="M619.75,574.672a23.837,23.837,0,0,1,30.865-8.68C640.763,573.369,629.888,575.347,619.75,574.672Z" transform="translate(-222.402 -206.682)" fill="#fff" opacity="0.07"/><path d="M543.629,519.13l6.035,37.823s-6.206,18.547,0,36.8S542,680,542,680s72.706,23.271,117.129-3.529c0,0-32.672-68.881-18.841-91.842s.225-31.943.225-31.943l2.125-42.236-10.006-2.94-5.888,41.8s-40.623,28.258-70.65,3.529l-6.477-45.331Z" transform="translate(-204.962 -194.129)" opacity="0.1"/><path d="M543.334,519.006l6.33,38.707s-6.206,18.547,0,36.8S542,680.76,542,680.76s72.706,23.271,117.129-3.529c0,0-32.672-68.881-18.841-91.842s.225-31.943.225-31.943l2.125-42.236-10.006-2.94-5.888,41.8s-40.623,28.258-70.65,3.529l-6.477-45.331Z" transform="translate(-204.962 -194.299)" fill="#b13250"/><path d="M582.24,745.217l15.328-2.063s17.662-22.666,30.322-5.3c0,0,5.3,11.185,11.775,13.249a87.051,87.051,0,0,0,13.544,2.94l-26.2,7.361s-11.48,6.772-23.55,5a45.766,45.766,0,0,0-21.192,1.769Z" transform="translate(-213.988 -244.328)" fill="#f7c4a7"/><path d="M560.42,624.395s27.669,4.119,32.377-3.235" transform="translate(-209.094 -219.622)" opacity="0.1"/><path d="M628,619.26s5.3,5.3,26.49,1.474" transform="translate(-224.253 -219.196)" opacity="0.1"/><path d="M558.52,513.38s20.308,2.94,24.139,1.179" transform="translate(-208.668 -195.446)" opacity="0.1"/><path d="M616.21,513.38s20.308,2.94,24.14,1.179" transform="translate(-221.608 -195.446)" opacity="0.1"/><path d="M581.174,746.39s5.593,26.374,0,27.3-13.544-4.344-13.544-4.933,3.529-17.368,3.529-17.368Z" transform="translate(-210.711 -247.712)" opacity="0.1"/><path d="M580.414,746.39s5.593,26.374,0,27.3-13.544-4.344-13.544-4.933,3.529-17.368,3.529-17.368Z" transform="translate(-210.541 -247.712)"/><path d="M548.431,501.978c-2.467,5.732-3.343,12.5-.721,18.159,2,4.321,5.911,7.819,6.663,12.52.946,5.9-3.421,11.891-1.792,17.631a16.151,16.151,0,0,0,3.545,5.81c4.484,5.3,10.441,10.425,17.36,10.014,1.094-10.689-8.145-21.06-5.12-31.369,1.086-3.692,3.63-6.764,5.166-10.286,2.552-5.841,2.187-12.512,1.264-18.818-1.342-9.145-4.739-20.37-13.807-24.651-4.173-1.97-10.084-2.11-11.573,3.235-.776,2.855,1.086,5.538,1.342,8.331C551.083,496.1,549.8,498.79,548.431,501.978Z" transform="translate(-205.885 -187.899)" opacity="0.1"/><path d="M548.431,500.838c-2.467,5.732-3.343,12.5-.721,18.159,2,4.321,5.911,7.819,6.663,12.52.946,5.9-3.421,11.891-1.792,17.631a16.151,16.151,0,0,0,3.545,5.81c4.484,5.3,10.441,10.425,17.36,10.014,1.094-10.689-8.145-21.06-5.12-31.369,1.086-3.692,3.63-6.764,5.166-10.286,2.552-5.841,2.187-12.512,1.264-18.818-1.342-9.145-4.739-20.37-13.807-24.651-4.173-1.97-10.084-2.11-11.573,3.235-.776,2.854,1.086,5.538,1.342,8.331C551.083,494.966,549.8,497.657,548.431,500.838Z" transform="translate(-205.885 -187.643)" fill="#965d7b"/><path d="M552.07,411.859s42.981-5.888,44.152,2.94,39.149,23.271,39.149,23.271L625.955,414.8l-17.368-28.848s-31.8-2.327-33.262,0-18.252,10.006-18.252,10.006Z" transform="translate(-207.221 -166.63)" opacity="0.1"/><path d="M552.07,411.1s42.981-5.887,44.152,2.94,39.149,23.271,39.149,23.271l-9.417-23.271L608.587,385.2s-31.8-2.327-33.262,0-18.252,10.006-18.252,10.006Z" transform="translate(-207.221 -166.462)" fill="#965d7b"/><path d="M647.49,498.178a20.943,20.943,0,0,1,4.313,8.633c.714,3.033.737,6.206,1.419,9.246,1.451,6.477,5.732,11.922,10.208,16.825a18.359,18.359,0,0,0,5.213,4.39,6.849,6.849,0,0,0,6.555,0,11.664,11.664,0,0,1-3.421-5.973,30.7,30.7,0,0,1-1.195-9.626c.194-5.43,1.784-11.162-.473-16.111-1.3-2.855-3.731-5.027-6.205-6.981a33.057,33.057,0,0,0-5.539-3.646,34.2,34.2,0,0,0-11.884-3.017C641.223,491.375,645.823,496.176,647.49,498.178Z" transform="translate(-227.849 -190.622)" opacity="0.1"/><path d="M647.49,497.032a20.945,20.945,0,0,1,4.313,8.649c.714,3.033.737,6.205,1.419,9.246,1.451,6.477,5.732,11.922,10.208,16.825a18.36,18.36,0,0,0,5.213,4.39,6.849,6.849,0,0,0,6.555,0,11.664,11.664,0,0,1-3.421-5.973,30.7,30.7,0,0,1-1.195-9.626c.194-5.43,1.784-11.162-.473-16.111-1.3-2.855-3.731-5.026-6.205-6.981a33.053,33.053,0,0,0-5.539-3.646,34.2,34.2,0,0,0-11.884-3.018C641.223,490.237,645.823,495.038,647.49,497.032Z" transform="translate(-227.849 -190.368)" fill="#965d7b"/><path d="M607.889,266.759h-5.337a3.739,3.739,0,1,0,0-7.47H559.323a3.739,3.739,0,0,0,0,7.47h5.337a3.739,3.739,0,1,0,0,7.47h-7.47a3.739,3.739,0,1,0,0,7.47h43.229a3.739,3.739,0,1,0,0-7.47h7.47a3.739,3.739,0,1,0,0-7.47Z" transform="translate(-207.492 -138.45)" fill="#252223" opacity="0.1"/><path d="M877.889,266.759h-5.337a3.739,3.739,0,1,0,0-7.47H829.323a3.739,3.739,0,0,0,0,7.47h5.337a3.739,3.739,0,1,0,0,7.47h-7.47a3.739,3.739,0,1,0,0,7.47h43.229a3.739,3.739,0,1,0,0-7.47h7.47a3.739,3.739,0,1,0,0-7.47Z" transform="translate(-268.056 -138.45)" fill="#252223" opacity="0.1"/><path d="M302.889,389.759h-5.337a3.739,3.739,0,1,0,0-7.47H254.323a3.739,3.739,0,0,0,0,7.47h5.337a3.739,3.739,0,0,0,0,7.47h-7.47a3.739,3.739,0,1,0,0,7.47h43.229a3.739,3.739,0,1,0,0-7.47h7.47a3.739,3.739,0,0,0,0-7.47Z" transform="translate(-139.078 -166.04)" fill="#252223" opacity="0.1"/><path d="M894.052,718.648s-19.136-64.972,3.591-112.793a102.6,102.6,0,0,0,8.3-64.382,172.59,172.59,0,0,0-9.114-30.252" transform="translate(-282.241 -194.961)" fill="none" stroke="#535461" stroke-miterlimit="10" stroke-width="2"/><path d="M909.659,468.043c0,7.966-14.42,31.028-14.42,31.028s-14.42-23.092-14.42-31.028a14.42,14.42,0,1,1,28.832,0Z" transform="translate(-280.961 -181.966)" fill="#f8f8f8"/><path d="M940.38,522.82c-4.328,6.686-28.98,18.229-28.98,18.229s.45-27.219,4.778-33.905a14.42,14.42,0,0,1,24.2,15.669Z" transform="translate(-287.822 -192.637)" fill="#f8f8f8"/><path d="M937.516,618.447c-7.113,3.584-34.216,1.109-34.216,1.109s14.125-23.271,21.238-26.854a14.419,14.419,0,1,1,12.986,25.748Z" transform="translate(-286.005 -212.891)" fill="#f8f8f8"/><path d="M920.141,692.107c-6.4,4.732-33.541,6.873-33.541,6.873s9.991-25.319,16.39-30.058a14.42,14.42,0,1,1,17.151,23.186Z" transform="translate(-282.259 -229.701)" fill="#f8f8f8"/><path d="M871.178,547.567c5.709,5.546,32.323,11.294,32.323,11.294s-6.516-26.428-12.225-31.982a14.42,14.42,0,0,0-20.09,20.68Z" transform="translate(-277.876 -197.612)" fill="#f8f8f8"/><path d="M850.614,632.737c7.113,3.584,34.216,1.109,34.216,1.109s-14.125-23.271-21.238-26.854a14.419,14.419,0,1,0-12.986,25.748Z" transform="translate(-272.406 -216.096)" fill="#f8f8f8"/><path d="M843.767,719.267c6.4,4.732,33.541,6.873,33.541,6.873s-9.991-25.326-16.4-30.058a14.42,14.42,0,1,0-17.151,23.186Z" transform="translate(-271.338 -235.793)" fill="#f8f8f8"/><path d="M909.659,468.043c0,7.966-14.42,31.028-14.42,31.028s-14.42-23.092-14.42-31.028a14.42,14.42,0,1,1,28.832,0Z" transform="translate(-280.961 -181.966)" fill="#fc6681"/><path d="M940.38,522.82c-4.328,6.686-28.98,18.229-28.98,18.229s.45-27.219,4.778-33.905a14.42,14.42,0,0,1,24.2,15.669Z" transform="translate(-287.822 -192.637)" fill="#fc6681"/><path d="M937.516,618.447c-7.113,3.584-34.216,1.109-34.216,1.109s14.125-23.271,21.238-26.854a14.419,14.419,0,1,1,12.986,25.748Z" transform="translate(-286.005 -212.891)" fill="#fc6681"/><path d="M920.141,692.107c-6.4,4.732-33.541,6.873-33.541,6.873s9.991-25.319,16.39-30.058a14.42,14.42,0,1,1,17.151,23.186Z" transform="translate(-282.259 -229.701)" fill="#fc6681"/><path d="M871.178,547.567c5.709,5.546,32.323,11.294,32.323,11.294s-6.516-26.428-12.225-31.982a14.42,14.42,0,0,0-20.09,20.68Z" transform="translate(-277.876 -197.612)" fill="#fc6681"/><path d="M850.614,632.737c7.113,3.584,34.216,1.109,34.216,1.109s-14.125-23.271-21.238-26.854a14.419,14.419,0,1,0-12.986,25.748Z" transform="translate(-272.406 -216.096)" fill="#fc6681"/><path d="M843.767,719.267c6.4,4.732,33.541,6.873,33.541,6.873s-9.991-25.326-16.4-30.058a14.42,14.42,0,1,0-17.151,23.186Z" transform="translate(-271.338 -235.793)" fill="#fc6681"/><path d="M312.052,716.648s-19.136-64.972,3.591-112.793a102.6,102.6,0,0,0,8.3-64.383,172.593,172.593,0,0,0-9.114-30.252" transform="translate(-151.693 -194.513)" fill="none" stroke="#535461" stroke-miterlimit="10" stroke-width="2"/><path d="M327.659,466.043c0,7.966-14.42,31.028-14.42,31.028s-14.42-23.092-14.42-31.028a14.42,14.42,0,1,1,28.832,0Z" transform="translate(-150.414 -181.518)" fill="#f8f8f8"/><path d="M358.38,520.82c-4.328,6.686-28.98,18.229-28.98,18.229s.45-27.219,4.778-33.905a14.42,14.42,0,0,1,24.2,15.669Z" transform="translate(-157.274 -192.189)" fill="#f8f8f8"/><path d="M355.516,616.447c-7.113,3.584-34.216,1.109-34.216,1.109s14.125-23.271,21.238-26.854a14.419,14.419,0,1,1,12.986,25.748Z" transform="translate(-155.457 -212.442)" fill="#f8f8f8"/><path d="M338.141,690.107c-6.4,4.732-33.541,6.873-33.541,6.873s9.991-25.319,16.39-30.058a14.42,14.42,0,1,1,17.151,23.186Z" transform="translate(-151.711 -229.252)" fill="#f8f8f8"/><path d="M289.179,545.567c5.709,5.546,32.323,11.294,32.323,11.294s-6.516-26.428-12.225-31.982a14.42,14.42,0,0,0-20.09,20.68Z" transform="translate(-147.328 -197.164)" fill="#f8f8f8"/><path d="M268.614,630.737c7.113,3.584,34.216,1.109,34.216,1.109s-14.125-23.271-21.238-26.854a14.419,14.419,0,1,0-12.986,25.748Z" transform="translate(-141.859 -215.647)" fill="#f8f8f8"/><path d="M261.767,717.268c6.4,4.732,33.541,6.873,33.541,6.873s-9.991-25.326-16.4-30.058a14.42,14.42,0,1,0-17.151,23.186Z" transform="translate(-140.791 -235.344)" fill="#f8f8f8"/><path d="M327.659,466.043c0,7.966-14.42,31.028-14.42,31.028s-14.42-23.092-14.42-31.028a14.42,14.42,0,1,1,28.832,0Z" transform="translate(-150.414 -181.518)" fill="#fc6681"/><path d="M358.38,520.82c-4.328,6.686-28.98,18.229-28.98,18.229s.45-27.219,4.778-33.905a14.42,14.42,0,0,1,24.2,15.669Z" transform="translate(-157.274 -192.189)" fill="#fc6681"/><path d="M355.516,616.447c-7.113,3.584-34.216,1.109-34.216,1.109s14.125-23.271,21.238-26.854a14.419,14.419,0,1,1,12.986,25.748Z" transform="translate(-155.457 -212.442)" fill="#fc6681"/><path d="M338.141,690.107c-6.4,4.732-33.541,6.873-33.541,6.873s9.991-25.319,16.39-30.058a14.42,14.42,0,1,1,17.151,23.186Z" transform="translate(-151.711 -229.252)" fill="#fc6681"/><path d="M289.179,545.567c5.709,5.546,32.323,11.294,32.323,11.294s-6.516-26.428-12.225-31.982a14.42,14.42,0,0,0-20.09,20.68Z" transform="translate(-147.328 -197.164)" fill="#fc6681"/><path d="M268.614,630.737c7.113,3.584,34.216,1.109,34.216,1.109s-14.125-23.271-21.238-26.854a14.419,14.419,0,1,0-12.986,25.748Z" transform="translate(-141.859 -215.647)" fill="#fc6681"/><path d="M261.767,717.268c6.4,4.732,33.541,6.873,33.541,6.873s-9.991-25.326-16.4-30.058a14.42,14.42,0,1,0-17.151,23.186Z" transform="translate(-140.791 -235.344)" fill="#fc6681"/></g></svg>