<svg xmlns="http://www.w3.org/2000/svg" xmlns:xlink="http://www.w3.org/1999/xlink" width="855" height="598" viewBox="0 0 855 598">
  <defs>
    <clipPath id="clip-path">
      <rect id="Rectangle_26" data-name="Rectangle 26" width="855" height="598" transform="translate(995 1878)" fill="#fff"/>
    </clipPath>
    <linearGradient id="linear-gradient" y1="0.5" x2="1" y2="0.5" gradientUnits="objectBoundingBox">
      <stop offset="0" stop-color="gray" stop-opacity="0.251"/>
      <stop offset="0.54" stop-color="gray" stop-opacity="0.122"/>
      <stop offset="1" stop-color="gray" stop-opacity="0.102"/>
    </linearGradient>
    <linearGradient id="linear-gradient-2" x1="0" y1="0.5" x2="1" y2="0.5" xlink:href="#linear-gradient"/>
    <linearGradient id="linear-gradient-4" x1="0" y1="0.5" x2="1" y2="0.5" xlink:href="#linear-gradient"/>
    <linearGradient id="linear-gradient-5" x1="0" y1="0.5" x2="1" y2="0.5" xlink:href="#linear-gradient"/>
    <linearGradient id="linear-gradient-7" x1="0" y1="0.5" x2="1" y2="0.5" xlink:href="#linear-gradient"/>
    <linearGradient id="linear-gradient-8" x1="0" y1="0.5" x2="1" y2="0.5" xlink:href="#linear-gradient"/>
    <linearGradient id="linear-gradient-13" x1="0" y1="0.5" x2="1" y2="0.5" xlink:href="#linear-gradient"/>
    <linearGradient id="linear-gradient-14" x1="0" y1="0.501" x2="1" y2="0.501" xlink:href="#linear-gradient"/>
    <linearGradient id="linear-gradient-15" x1="0" y1="0.5" x2="1" y2="0.5" xlink:href="#linear-gradient"/>
    <linearGradient id="linear-gradient-17" x1="0" y1="0.5" x2="1" y2="0.5" xlink:href="#linear-gradient"/>
    <linearGradient id="linear-gradient-18" x1="0" y1="0.5" x2="1" y2="0.5" xlink:href="#linear-gradient"/>
    <linearGradient id="linear-gradient-19" x1="0" y1="0.5" x2="0.999" y2="0.5" xlink:href="#linear-gradient"/>
    <linearGradient id="linear-gradient-20" x1="0" y1="0.5" x2="0.999" y2="0.5" xlink:href="#linear-gradient"/>
    <linearGradient id="linear-gradient-21" x1="0.5" y1="1" x2="0.5" y2="0" xlink:href="#linear-gradient"/>
    <linearGradient id="linear-gradient-22" x1="0.5" y1="1" x2="0.5" y2="0" xlink:href="#linear-gradient"/>
  </defs>
  <g id="Mask_Group_1" data-name="Mask Group 1" transform="translate(-995 -1878)" clip-path="url(#clip-path)">
    <g id="undraw_co-workers_ujs6" transform="translate(1032.119 1878)">
      <path id="Path_87" data-name="Path 87" d="M727.922,582.724H671.928V551.178h55.994Zm-53.628-2.366h51.262V553.544H674.294Z" transform="translate(-82.808 -55.907)" fill="#e5f1f6" opacity="0.2"/>
      <path id="Path_88" data-name="Path 88" d="M783.916,581.147H727.922V549.6h55.994Zm-53.628-2.366H781.55V551.967H730.288Z" transform="translate(-82.808 -55.907)" fill="#e5f1f6" opacity="0.2"/>
      <path id="Path_89" data-name="Path 89" d="M839.91,581.147H783.916V549.6H839.91Zm-53.628-2.366h51.262V551.967H786.282Z" transform="translate(-82.808 -55.907)" fill="#e5f1f6" opacity="0.2"/>
      <path id="Path_90" data-name="Path 90" d="M839.91,549.6H783.916V518.055H839.91Zm-53.628-2.366h51.262V520.421H786.282Z" transform="translate(-82.808 -55.907)" fill="#e5f1f6" opacity="0.2"/>
      <path id="Path_91" data-name="Path 91" d="M783.916,549.6H727.922V518.055h55.994Zm-53.628-2.366H781.55V520.421H730.288Z" transform="translate(-82.808 -55.907)" fill="#e5f1f6" opacity="0.2"/>
      <path id="Path_92" data-name="Path 92" d="M153,581.147H97V549.6H153ZM99.37,578.781h51.262V551.967H99.37Z" transform="translate(-82.808 -55.907)" fill="#e5f1f6" opacity="0.2"/>
      <path id="Path_93" data-name="Path 93" d="M208.992,581.147H153V549.6h55.994Zm-53.628-2.366h51.262V551.967H155.364Z" transform="translate(-82.808 -55.907)" fill="#e5f1f6" opacity="0.2"/>
      <path id="Path_94" data-name="Path 94" d="M264.986,581.147H208.992V549.6h55.994Zm-53.628-2.366H262.62V551.967H211.358Z" transform="translate(-82.808 -55.907)" fill="#e5f1f6" opacity="0.2"/>
      <path id="Path_95" data-name="Path 95" d="M320.98,582.724H264.986V551.178H320.98Zm-53.628-2.366h51.262V553.544H267.352Z" transform="translate(-82.808 -55.907)" fill="#e5f1f6" opacity="0.2"/>
      <path id="Path_96" data-name="Path 96" d="M264.986,549.6H208.992V518.055h55.994Zm-53.628-2.366H262.62V520.421H211.358Z" transform="translate(-82.808 -55.907)" fill="#e5f1f6" opacity="0.2"/>
      <path id="Path_97" data-name="Path 97" d="M208.992,549.6H153V518.055h55.994Zm-53.628-2.366h51.262V520.421H155.364Z" transform="translate(-82.808 -55.907)" fill="#e5f1f6" opacity="0.2"/>
      <path id="Path_98" data-name="Path 98" d="M784.925,483.638s-10.363-35.2,1.94-61.1a55.592,55.592,0,0,0,4.5-34.874,93.492,93.492,0,0,0-4.937-16.372" transform="translate(-82.808 -55.907)" fill="none" stroke="#535461" stroke-miterlimit="10" stroke-width="1.577"/>
      <path id="Path_99" data-name="Path 99" d="M794.089,354.891c0,4.314-7.808,16.822-7.808,16.822s-7.808-12.508-7.808-16.822a7.812,7.812,0,1,1,15.623,0Z" transform="translate(-82.808 -55.907)" fill="#e5f1f6"/>
      <path id="Path_100" data-name="Path 100" d="M807,378.811c-2.366,3.62-15.7,9.874-15.7,9.874s.244-14.748,2.587-18.368A7.811,7.811,0,0,1,807,378.8Z" transform="translate(-82.808 -55.907)" fill="#e5f1f6"/>
      <path id="Path_101" data-name="Path 101" d="M806.432,419.647c-3.849,1.94-18.533.6-18.533.6s7.65-12.618,11.506-14.551a7.812,7.812,0,0,1,7.035,13.951Z" transform="translate(-82.808 -55.907)" fill="#e5f1f6"/>
      <path id="Path_102" data-name="Path 102" d="M799.05,450.444c-3.47,2.563-18.139,3.722-18.139,3.722s5.41-13.715,8.88-16.286a7.809,7.809,0,1,1,9.29,12.555Z" transform="translate(-82.808 -55.907)" fill="#e5f1f6"/>
      <path id="Path_103" data-name="Path 103" d="M774.9,389.529c3.091,3,17.508,6.12,17.508,6.12s-3.533-14.322-6.625-17.35A7.811,7.811,0,0,0,774.9,389.505Z" transform="translate(-82.808 -55.907)" fill="#e5f1f6"/>
      <path id="Path_104" data-name="Path 104" d="M766.723,425.649c3.849,1.94,18.533.6,18.533.6s-7.65-12.618-11.506-14.551a7.812,7.812,0,1,0-7.035,13.951Z" transform="translate(-82.808 -55.907)" fill="#e5f1f6"/>
      <path id="Path_105" data-name="Path 105" d="M763.592,461.856c3.47,2.563,18.139,3.722,18.139,3.722s-5.379-13.683-8.857-16.278a7.809,7.809,0,0,0-9.29,12.555Z" transform="translate(-82.808 -55.907)" fill="#e5f1f6"/>
      <path id="Path_106" data-name="Path 106" d="M794.089,354.891c0,4.314-7.808,16.822-7.808,16.822s-7.808-12.508-7.808-16.822a7.812,7.812,0,1,1,15.623,0Z" transform="translate(-82.808 -55.907)" opacity="0.25"/>
      <path id="Path_107" data-name="Path 107" d="M807,378.811c-2.366,3.62-15.7,9.874-15.7,9.874s.244-14.748,2.587-18.368A7.811,7.811,0,0,1,807,378.8Z" transform="translate(-82.808 -55.907)" opacity="0.25"/>
      <path id="Path_108" data-name="Path 108" d="M806.432,419.647c-3.849,1.94-18.533.6-18.533.6s7.65-12.618,11.506-14.551a7.812,7.812,0,0,1,7.035,13.951Z" transform="translate(-82.808 -55.907)" opacity="0.25"/>
      <path id="Path_109" data-name="Path 109" d="M799.05,450.444c-3.47,2.563-18.139,3.722-18.139,3.722s5.41-13.715,8.88-16.286a7.809,7.809,0,1,1,9.29,12.555Z" transform="translate(-82.808 -55.907)" opacity="0.25"/>
      <path id="Path_110" data-name="Path 110" d="M774.9,389.529c3.091,3,17.508,6.12,17.508,6.12s-3.533-14.322-6.625-17.35A7.811,7.811,0,0,0,774.9,389.505Z" transform="translate(-82.808 -55.907)" opacity="0.25"/>
      <path id="Path_111" data-name="Path 111" d="M766.723,425.649c3.849,1.94,18.533.6,18.533.6s-7.65-12.618-11.506-14.551a7.812,7.812,0,1,0-7.035,13.951Z" transform="translate(-82.808 -55.907)" opacity="0.25"/>
      <path id="Path_112" data-name="Path 112" d="M763.592,461.856c3.47,2.563,18.139,3.722,18.139,3.722s-5.379-13.683-8.857-16.278a7.809,7.809,0,0,0-9.29,12.555Z" transform="translate(-82.808 -55.907)" opacity="0.25"/>
      <path id="Path_113" data-name="Path 113" d="M215.932,483.906s-10.521-35.718,1.972-61.98a56.42,56.42,0,0,0,4.566-35.395,94.883,94.883,0,0,0-5.016-16.656" transform="translate(-82.808 -55.907)" fill="none" stroke="#535461" stroke-miterlimit="10" stroke-width="1.577"/>
      <path id="Path_114" data-name="Path 114" d="M225.23,353.314c0,4.377-7.926,17.074-7.926,17.074s-7.934-12.737-7.934-17.074a7.926,7.926,0,1,1,15.852,0Z" transform="translate(-82.808 -55.907)" fill="#e5f1f6"/>
      <path id="Path_115" data-name="Path 115" d="M238.329,377.526c-2.366,3.675-15.931,10.024-15.931,10.024s.244-14.984,2.626-18.636a7.925,7.925,0,1,1,13.306,8.613Z" transform="translate(-82.808 -55.907)" fill="#e5f1f6"/>
      <path id="Path_116" data-name="Path 116" d="M237.754,418.961c-3.943,1.972-18.809.607-18.809.607s7.768-12.792,11.672-14.763a7.927,7.927,0,1,1,7.137,14.156Z" transform="translate(-82.808 -55.907)" fill="#e5f1f6"/>
      <path id="Path_117" data-name="Path 117" d="M230.285,450.215c-3.517,2.6-18.439,3.778-18.439,3.778s5.521-13.92,9.014-16.562a7.937,7.937,0,1,1,9.464,12.745Z" transform="translate(-82.808 -55.907)" fill="#e5f1f6"/>
      <path id="Path_118" data-name="Path 118" d="M205.75,388.393c3.155,3.052,17.768,6.207,17.768,6.207s-3.58-14.527-6.719-17.579a7.926,7.926,0,1,0-11.042,11.373Z" transform="translate(-82.808 -55.907)" fill="#e5f1f6"/>
      <path id="Path_119" data-name="Path 119" d="M197.454,425.081c3.943,1.972,18.809.607,18.809.607s-7.768-12.792-11.672-14.763a7.927,7.927,0,0,0-7.137,14.156Z" transform="translate(-82.808 -55.907)" fill="#e5f1f6"/>
      <path id="Path_120" data-name="Path 120" d="M194.275,461.8c3.517,2.6,18.439,3.778,18.439,3.778s-5.521-13.92-9.014-16.562a7.937,7.937,0,0,0-9.464,12.745Z" transform="translate(-82.808 -55.907)" fill="#e5f1f6"/>
      <path id="Path_121" data-name="Path 121" d="M225.23,353.314c0,4.377-7.926,17.074-7.926,17.074s-7.934-12.737-7.934-17.074a7.926,7.926,0,1,1,15.852,0Z" transform="translate(-82.808 -55.907)" fill="#fff" opacity="0.5"/>
      <path id="Path_122" data-name="Path 122" d="M238.329,377.526c-2.366,3.675-15.931,10.024-15.931,10.024s.244-14.984,2.626-18.636a7.925,7.925,0,1,1,13.306,8.613Z" transform="translate(-82.808 -55.907)" fill="#fff" opacity="0.5"/>
      <path id="Path_123" data-name="Path 123" d="M237.754,418.961c-3.943,1.972-18.809.607-18.809.607s7.768-12.792,11.672-14.763a7.927,7.927,0,1,1,7.137,14.156Z" transform="translate(-82.808 -55.907)" fill="#fff" opacity="0.5"/>
      <path id="Path_124" data-name="Path 124" d="M230.285,450.215c-3.517,2.6-18.439,3.778-18.439,3.778s5.521-13.92,9.014-16.562a7.937,7.937,0,1,1,9.464,12.745Z" transform="translate(-82.808 -55.907)" fill="#fff" opacity="0.5"/>
      <path id="Path_125" data-name="Path 125" d="M205.75,388.393c3.155,3.052,17.768,6.207,17.768,6.207s-3.58-14.527-6.719-17.579a7.926,7.926,0,1,0-11.042,11.373Z" transform="translate(-82.808 -55.907)" fill="#fff" opacity="0.5"/>
      <path id="Path_126" data-name="Path 126" d="M197.454,425.081c3.943,1.972,18.809.607,18.809.607s-7.768-12.792-11.672-14.763a7.927,7.927,0,0,0-7.137,14.156Z" transform="translate(-82.808 -55.907)" fill="#fff" opacity="0.5"/>
      <path id="Path_127" data-name="Path 127" d="M194.275,461.8c3.517,2.6,18.439,3.778,18.439,3.778s-5.521-13.92-9.014-16.562a7.937,7.937,0,0,0-9.464,12.745Z" transform="translate(-82.808 -55.907)" fill="#fff" opacity="0.5"/>
      <path id="Path_128" data-name="Path 128" d="M155.908,483.023s-8.013-27.185,1.506-47.256a43,43,0,0,0,3.478-26.972,72.311,72.311,0,0,0-3.817-12.658" transform="translate(-82.808 -55.907)" fill="none" stroke="#535461" stroke-miterlimit="10" stroke-width="1.577"/>
      <path id="Path_129" data-name="Path 129" d="M163,383.472c0,3.336-6.041,13.013-6.041,13.013s-6.041-9.677-6.041-13.013a6.041,6.041,0,1,1,12.082,0Z" transform="translate(-82.808 -55.907)" fill="#e5f1f6"/>
      <path id="Path_130" data-name="Path 130" d="M172.982,401.95c-1.814,2.8-12.145,7.642-12.145,7.642s.189-11.4,2-14.2a6.042,6.042,0,0,1,10.142,6.569Z" transform="translate(-82.808 -55.907)" fill="#e5f1f6"/>
      <path id="Path_131" data-name="Path 131" d="M172.548,433.528c-2.981,1.5-14.338.465-14.338.465s5.915-9.748,8.9-11.254a6.042,6.042,0,1,1,5.442,10.789Z" transform="translate(-82.808 -55.907)" fill="#e5f1f6"/>
      <path id="Path_132" data-name="Path 132" d="M166.838,457.353c-2.681,1.987-14.054,2.879-14.054,2.879s4.188-10.607,6.869-12.618a6.042,6.042,0,1,1,7.185,9.716Z" transform="translate(-82.808 -55.907)" fill="#e5f1f6"/>
      <path id="Path_133" data-name="Path 133" d="M148.155,410.239c2.366,2.327,13.541,4.732,13.541,4.732s-2.729-11.041-5.126-13.407a6.043,6.043,0,0,0-8.415,8.675Z" transform="translate(-82.808 -55.907)" fill="#e5f1f6"/>
      <path id="Path_134" data-name="Path 134" d="M141.83,438.181c2.981,1.5,14.338.465,14.338.465s-5.915-9.748-8.9-11.254a6.042,6.042,0,0,0-5.442,10.789Z" transform="translate(-82.808 -55.907)" fill="#e5f1f6"/>
      <path id="Path_135" data-name="Path 135" d="M139.409,466.178c2.681,1.987,14.054,2.879,14.054,2.879s-4.188-10.607-6.869-12.618a6.042,6.042,0,1,0-7.185,9.716Z" transform="translate(-82.808 -55.907)" fill="#e5f1f6"/>
      <path id="Path_136" data-name="Path 136" d="M163,383.472c0,3.336-6.041,13.013-6.041,13.013s-6.041-9.677-6.041-13.013a6.041,6.041,0,1,1,12.082,0Z" transform="translate(-82.808 -55.907)" opacity="0.25"/>
      <path id="Path_137" data-name="Path 137" d="M172.982,401.95c-1.814,2.8-12.145,7.642-12.145,7.642s.189-11.4,2-14.2a6.042,6.042,0,0,1,10.142,6.569Z" transform="translate(-82.808 -55.907)" opacity="0.25"/>
      <path id="Path_138" data-name="Path 138" d="M172.548,433.528c-2.981,1.5-14.338.465-14.338.465s5.915-9.748,8.9-11.254a6.042,6.042,0,1,1,5.442,10.789Z" transform="translate(-82.808 -55.907)" opacity="0.25"/>
      <path id="Path_139" data-name="Path 139" d="M166.838,457.353c-2.681,1.987-14.054,2.879-14.054,2.879s4.188-10.607,6.869-12.618a6.042,6.042,0,1,1,7.185,9.716Z" transform="translate(-82.808 -55.907)" opacity="0.25"/>
      <path id="Path_140" data-name="Path 140" d="M148.155,410.239c2.366,2.327,13.541,4.732,13.541,4.732s-2.729-11.041-5.126-13.407a6.043,6.043,0,0,0-8.415,8.675Z" transform="translate(-82.808 -55.907)" opacity="0.25"/>
      <path id="Path_141" data-name="Path 141" d="M141.83,438.181c2.981,1.5,14.338.465,14.338.465s-5.915-9.748-8.9-11.254a6.042,6.042,0,0,0-5.442,10.789Z" transform="translate(-82.808 -55.907)" opacity="0.25"/>
      <path id="Path_142" data-name="Path 142" d="M139.409,466.178c2.681,1.987,14.054,2.879,14.054,2.879s-4.188-10.607-6.869-12.618a6.042,6.042,0,1,0-7.185,9.716Z" transform="translate(-82.808 -55.907)" opacity="0.25"/>
      <g id="Group_5" data-name="Group 5" opacity="0.7">
        <rect id="Rectangle_27" data-name="Rectangle 27" width="780.761" height="398.267" transform="translate(0 63.092)" fill="#e5f1f6" opacity="0.6"/>
        <path id="Path_143" data-name="Path 143" d="M82.808,119V518.055H863.569V119Zm34.7,34.7h338.33V301.177H117.509Zm0,182.178h338.33V483.354H117.509Zm711.36,147.477H490.539V335.877h338.33Zm0-182.178H490.539V153.7h338.33Z" transform="translate(-82.808 -55.907)" opacity="0.25"/>
      </g>
      <g id="Group_12" data-name="Group 12" opacity="0.7">
        <path id="Path_144" data-name="Path 144" d="M369.174,534.522s-68.328-24.984-77.682,10.181L317.7,611.32l2.808,42.587H377.6V617.8s-8.423-36.089,13.107-58.289Z" transform="translate(-82.808 -55.907)" fill="url(#linear-gradient)"/>
        <g id="Group_6" data-name="Group 6" opacity="0.1">
          <path id="Path_145" data-name="Path 145" d="M380.617,336.272c-2.9-.962-6.4-1.822-8.762.095-1.372,1.112-1.964,2.9-3.028,4.306-3.541,4.645-10.678,3.778-16.317,5.442-8.289,2.445-13.407,10.655-16.341,18.7-12.981,35.489,1.491,76.081-9.811,112.122-3.328,10.607-8.77,22.382-3.391,32.137,1.79,3.257,4.732,5.97,5.6,9.566,1.215,4.882-1.128,11.286,2.965,14.259a12.129,12.129,0,0,0,4.424,1.577c9.211,2.429,16.191,9.6,23.21,15.97s15.457,12.539,24.976,12.122a40.672,40.672,0,0,0,9.054-1.8l47.24-13.155c4.732-1.317,9.874-2.91,12.618-6.948,1.68-2.469,2.208-5.521,2.634-8.454A222.718,222.718,0,0,0,458,498.354c0-3.738-.173-7.563-1.577-11.041-1.577-4.014-4.732-7.224-7.027-10.891-4.432-7.1-5.623-15.623-6.719-23.88-1.743-13.147-3.486-26.554-1.073-39.6,1.033-5.6,2.815-11.041,4-16.6a78.753,78.753,0,0,0,.9-27.547c-1.1-7.61-3.47-15.331-8.675-21.057a22.011,22.011,0,0,0-13.092-7.1c-6.388-.789-9.566,2.886-15.26,4.259C401.051,347.005,388.717,338.945,380.617,336.272Z" transform="translate(-82.808 -55.907)" fill="url(#linear-gradient-2)"/>
        </g>
        <path id="Path_146" data-name="Path 146" d="M380.617,334.387c-2.9-.962-6.4-1.822-8.762.095-1.372,1.112-1.964,2.9-3.028,4.306-3.541,4.645-10.678,3.778-16.317,5.442-8.289,2.445-13.407,10.655-16.341,18.7-12.981,35.489,1.491,76.081-9.811,112.122-3.328,10.607-8.77,22.382-3.391,32.137,1.79,3.257,4.732,5.97,5.6,9.566,1.215,4.882-1.128,11.286,2.965,14.259a12.127,12.127,0,0,0,4.424,1.577c9.211,2.429,16.191,9.6,23.21,15.97s15.442,12.61,24.976,12.169a40.669,40.669,0,0,0,9.054-1.8l47.24-13.155c4.732-1.317,9.874-2.91,12.618-6.948,1.68-2.468,2.208-5.521,2.634-8.454A222.717,222.717,0,0,0,458,496.517c0-3.738-.173-7.563-1.577-11.041-1.577-4.014-4.732-7.224-7.027-10.891-4.432-7.1-5.623-15.623-6.719-23.88-1.743-13.147-3.486-26.554-1.073-39.6,1.033-5.6,2.815-11.041,4-16.6a78.753,78.753,0,0,0,.9-27.547c-1.1-7.61-3.47-15.331-8.675-21.057a22.011,22.011,0,0,0-13.092-7.1c-6.388-.789-9.566,2.886-15.26,4.259C401.051,345.112,388.717,337.1,380.617,334.387Z" transform="translate(-82.808 -55.907)" fill="url(#linear-gradient-2)"/>
        <path id="Path_147" data-name="Path 147" d="M367.3,264.347s.938,35.158-10.292,34.235,31.79,58.289,31.79,58.289l36.5-19.432s-21.514-34.227-6.53-55.513S367.3,264.347,367.3,264.347Z" transform="translate(-82.808 -55.907)" fill="url(#linear-gradient-4)"/>
        <g id="Group_7" data-name="Group 7" opacity="0.1">
          <path id="Path_148" data-name="Path 148" d="M304.592,563.2s-7.484,50.891-26.207,37.011S262.47,563.2,262.47,563.2s36.507-98.076,34.637-112.887,62.3-129.89,62.3-129.89l23.77,189.11S312.076,535.444,304.592,563.2Z" transform="translate(-82.808 -55.907)" fill="url(#linear-gradient-5)"/>
        </g>
        <path id="Path_149" data-name="Path 149" d="M302.722,563.2s-7.484,50.891-26.207,37.011S260.6,563.2,260.6,563.2s36.507-98.076,34.63-112.887,62.3-129.89,62.3-129.89l23.77,189.11S310.207,535.444,302.722,563.2Z" transform="translate(-82.808 -55.907)" fill="url(#linear-gradient-5)"/>
        <path id="Path_150" data-name="Path 150" d="M369.174,286.555s-36.506,24.961-50.56,24.054l-10.907,2.965a59.866,59.866,0,0,0-43.2,46.112l-.174.883c-5.6,29.614-7.476,111.042-7.476,111.042s.939,21.293,10.292,26.814l59.937,40.71s-1.869-44.409,20.592-49.038-5.615-1.853-5.615-1.853L300.877,464.19s.938-36.089,12.169-48.108,50.544-74.922,50.544-74.922L352.36,302.3Z" transform="translate(-82.808 -55.907)" fill="url(#linear-gradient-7)"/>
        <g id="Group_8" data-name="Group 8" opacity="0.1">
          <path id="Path_151" data-name="Path 151" d="M409.419,310.609s22.989,6.017,39.085,8.959a16.2,16.2,0,0,1,11.7,8.833c4.858,10.024,12.263,28.155,10.986,43.273l14.038,54.59,40.221,48.108-36.491,16.664L447.794,445.7l33.691,86.049-62.713,2.776S400.049,395.72,404.734,372.6Z" transform="translate(-82.808 -55.907)" fill="url(#linear-gradient-8)"/>
        </g>
        <path id="Path_152" data-name="Path 152" d="M411.288,310.609s22.989,6.017,39.085,8.959a16.2,16.2,0,0,1,11.7,8.833c4.858,10.024,12.263,28.155,10.986,43.273l14.038,54.59,40.221,48.108-36.5,16.656L449.64,445.688l33.723,86.057-62.713,2.776S401.926,395.72,406.611,372.6Z" transform="translate(-82.808 -55.907)" fill="url(#linear-gradient-5)"/>
        <path id="Path_153" data-name="Path 153" d="M283.29,227.7l12.9,62.627-21.057,10.639L263.6,244.552Z" fill="url(#linear-gradient-7)"/>
        <path id="Path_154" data-name="Path 154" d="M318.653,294.954,328.48,254.7l12.642,23.6-6.554,19.432Z" fill="url(#linear-gradient-7)"/>
        <path id="Path_155" data-name="Path 155" d="M437.029,362.888s0,62.918,8.423,67.54" transform="translate(-82.808 -55.907)" opacity="0.1" fill="url(#linear-gradient-7)"/>
        <path id="Path_156" data-name="Path 156" d="M316.287,378.614s-19.424,61.964-13.928,68.455" transform="translate(-82.808 -55.907)" opacity="0.1" fill="url(#linear-gradient-13)"/>
        <path id="Path_157" data-name="Path 157" d="M312.549,463.725s37.445,24.2,42.587,24.59" transform="translate(-82.808 -55.907)" opacity="0.1" fill="url(#linear-gradient-14)"/>
        <g id="Group_9" data-name="Group 9" opacity="0.1">
          <path id="Path_158" data-name="Path 158" d="M368.235,268.046s.142,5.418-.363,11.94a43.076,43.076,0,0,0,39.669,26.025,43.825,43.825,0,0,0,6.9-.552c-.245-6.924,1.088-13.872,5.268-19.8C434.687,264.347,368.235,268.046,368.235,268.046Z" transform="translate(-82.808 -55.907)" fill="url(#linear-gradient-15)"/>
        </g>
        <ellipse id="Ellipse_16" data-name="Ellipse 16" cx="43.052" cy="42.563" rx="43.052" ry="42.563" transform="translate(280.751 161.255)" fill="url(#linear-gradient-7)"/>
        <g id="Group_10" data-name="Group 10" opacity="0.1">
          <path id="Path_159" data-name="Path 159" d="M433.93,241.831c5.213.694,11.83-1.025,12.863-6.136,1.27-6.451-7.461-10.647-8.809-17.09-.5-2.413.095-4.937-.2-7.39-.584-4.937-4.621-8.738-8.73-11.609A67.721,67.721,0,0,0,384.4,187.84c-1.956.181-4.014.5-5.521,1.735-1.719,1.4-2.366,3.667-3.557,5.521-4.038,6.451-13.107,7.208-19.614,11.23-7.61,4.732-11.38,13.935-11.719,22.8s2.216,17.563,4.732,26.081c2.153,7.24,4.409,14.677,9.133,20.607s12.563,10.071,19.984,8.289c-3.4-2.421-.931-8.044,2.752-10.016s8.257-2.311,11.4-5.032,4.093-7.177,5.118-11.23c1.293-5.11,3.155-10.3,6.94-14.03C411.477,236.492,424.845,240.624,433.93,241.831Z" transform="translate(-82.808 -55.907)" fill="url(#linear-gradient-17)"/>
        </g>
        <path id="Path_160" data-name="Path 160" d="M432.968,240.908c5.213.694,11.83-1.025,12.863-6.136,1.27-6.451-7.461-10.647-8.809-17.09-.5-2.413.095-4.937-.2-7.39-.584-4.937-4.621-8.738-8.73-11.609a67.721,67.721,0,0,0-44.622-11.775c-1.956.181-4.014.5-5.521,1.735-1.719,1.4-2.366,3.667-3.557,5.521-4.038,6.451-13.107,7.208-19.614,11.23-7.61,4.732-11.38,13.935-11.719,22.8s2.216,17.563,4.732,26.081c2.153,7.24,4.409,14.677,9.133,20.607s12.563,10.071,19.984,8.289c-3.4-2.421-.931-8.044,2.752-10.016s8.257-2.311,11.4-5.032,4.093-7.177,5.118-11.23c1.293-5.11,3.155-10.3,6.94-14.03C410.538,235.569,423.906,239.694,432.968,240.908Z" transform="translate(-82.808 -55.907)" fill="url(#linear-gradient-18)"/>
        <g id="Group_11" data-name="Group 11" opacity="0.1">
          <path id="Path_161" data-name="Path 161" d="M399.166,265.467c-.631,4.4-2.035,12.019-4.677,16.83a134.591,134.591,0,0,0-8.935,19.527h0s17.24,13.194,26.025,22.208a20.442,20.442,0,0,0,21.467,5.2c4.566-1.64,8.565-4.811,9.629-10.757a34.975,34.975,0,0,0-2.192-20.639,15.339,15.339,0,0,1-.063-12.618c.647-1.42,1.4-2.532,2.248-2.808,0,0-16.846-3.7-17.784.923s-14.038,9.251-16.846.923l-.789-18.36a4.038,4.038,0,0,0-4.054-3.849h0a4.038,4.038,0,0,0-4.03,3.423Z" transform="translate(-82.808 -55.907)" fill="url(#linear-gradient-19)"/>
        </g>
        <path id="Path_162" data-name="Path 162" d="M399.166,266.4c-.631,4.4-2.035,12.019-4.677,16.83a134.589,134.589,0,0,0-8.935,19.527h0s17.24,13.194,26.025,22.208a20.442,20.442,0,0,0,21.467,5.2c4.566-1.64,8.565-4.811,9.629-10.757a34.975,34.975,0,0,0-2.192-20.639,15.339,15.339,0,0,1-.063-12.618c.647-1.42,1.4-2.532,2.248-2.808,0,0-16.846-3.7-17.784.923s-14.038,9.251-16.846.923l-.789-18.36a4.038,4.038,0,0,0-4.054-3.849h0a4.038,4.038,0,0,0-4.03,3.423Z" transform="translate(-82.808 -55.907)" fill="url(#linear-gradient-20)"/>
      </g>
      <path id="Path_163" data-name="Path 163" d="M370.089,533.914S304.5,509.656,295.514,543.8l25.158,64.669,2.674,41.38h54.811V614.79s-8.084-35.04,12.618-56.609Z" transform="translate(-82.808 -55.907)" fill="#535461"/>
      <path id="Path_164" data-name="Path 164" d="M381.075,341.4c-2.784-.931-6.144-1.767-8.407.095-1.317,1.08-1.885,2.815-2.91,4.18-3.4,4.511-10.252,3.667-15.663,5.284-7.957,2.366-12.863,10.347-15.686,18.139-12.461,34.456,1.427,73.888-9.416,108.881-3.155,10.3-8.415,21.735-3.257,31.207,1.719,3.155,4.519,5.8,5.379,9.29,1.167,4.732-1.08,10.962,2.847,13.849A12.5,12.5,0,0,0,338.2,533.9c8.841,2.366,15.544,9.322,22.279,15.513s14.842,12.177,23.975,11.775a38.644,38.644,0,0,0,8.675-1.743l45.347-12.776c4.551-1.286,9.464-2.831,12.122-6.751,1.577-2.366,2.121-5.347,2.532-8.21a218.762,218.762,0,0,0,2.216-32.879c0-3.628-.166-7.342-1.5-10.718-1.577-3.9-4.543-7.011-6.751-10.584-4.251-6.877-5.4-15.174-6.451-23.194-1.672-12.768-3.344-25.789-1.033-38.454.994-5.434,2.705-10.718,3.841-16.12a77.35,77.35,0,0,0,.867-26.751c-1.057-7.39-3.336-14.89-8.32-20.45a21.065,21.065,0,0,0-12.571-6.893c-6.136-.789-9.188,2.808-14.653,4.14C400.7,351.784,388.851,344,381.075,341.4Z" transform="translate(-82.808 -55.907)" opacity="0.1"/>
      <path id="Path_165" data-name="Path 165" d="M381.075,339.6c-2.784-.931-6.144-1.767-8.407.095-1.317,1.08-1.885,2.815-2.91,4.18-3.4,4.511-10.252,3.667-15.663,5.284-7.957,2.366-12.863,10.347-15.686,18.139-12.461,34.456,1.427,73.888-9.416,108.881-3.155,10.3-8.415,21.735-3.257,31.207,1.719,3.155,4.519,5.8,5.379,9.29,1.167,4.732-1.08,10.962,2.847,13.849A12.5,12.5,0,0,0,338.2,532.1c8.841,2.366,15.544,9.322,22.279,15.513s14.842,12.177,23.975,11.775a38.641,38.641,0,0,0,8.675-1.743l45.355-12.768c4.551-1.285,9.464-2.831,12.122-6.751,1.577-2.366,2.121-5.347,2.532-8.21a218.764,218.764,0,0,0,2.216-32.879c0-3.628-.166-7.342-1.5-10.718-1.577-3.9-4.543-7.011-6.751-10.584-4.251-6.877-5.4-15.174-6.451-23.194-1.672-12.768-3.344-25.789-1.033-38.454.994-5.434,2.705-10.718,3.841-16.12a77.35,77.35,0,0,0,.867-26.751c-1.057-7.39-3.336-14.89-8.32-20.45a21.065,21.065,0,0,0-12.547-6.916c-6.136-.789-9.188,2.808-14.653,4.14C400.7,349.994,388.851,342.2,381.075,339.6Z" transform="translate(-82.808 -55.907)" fill="#dcdddf"/>
      <path id="Path_166" data-name="Path 166" d="M368.3,271.555s.9,34.141-9.882,33.241,30.552,56.609,30.552,56.609l35.04-18.872s-20.663-33.242-6.309-53.912S368.3,271.555,368.3,271.555Z" transform="translate(-82.808 -55.907)" fill="#fda57d"/>
      <path id="Path_167" data-name="Path 167" d="M308.093,561.777s-7.185,49.417-25.158,35.939-15.276-35.939-15.276-35.939S302.7,466.532,300.9,452.155s59.843-126.144,59.843-126.144l22.816,183.645S315.278,534.821,308.093,561.777Z" transform="translate(-82.808 -55.907)" opacity="0.1"/>
      <path id="Path_168" data-name="Path 168" d="M306.3,561.777s-7.185,49.417-25.158,35.939-15.276-35.939-15.276-35.939S300.9,466.532,299.1,452.155s59.843-126.144,59.843-126.144l22.816,183.645S313.48,534.821,306.3,561.777Z" transform="translate(-82.808 -55.907)"/>
      <path id="Path_169" data-name="Path 169" d="M370.089,293.117s-35.04,24.259-48.518,23.36L311.1,319.355a57.871,57.871,0,0,0-41.475,44.779l-.166.86c-5.394,28.754-7.185,107.824-7.185,107.824s.9,20.663,9.882,26.025l57.5,39.574s-1.8-43.131,19.771-47.619-5.394-1.8-5.394-1.8L304.5,465.633s.9-35.04,11.68-46.719,48.518-72.776,48.518-72.776l-10.781-37.776Z" transform="translate(-82.808 -55.907)"/>
      <path id="Path_170" data-name="Path 170" d="M408.725,316.484s22.082,5.844,37.524,8.675a15.568,15.568,0,0,1,11.23,8.58c4.661,9.74,11.767,27.335,10.544,42.019L481.5,428.772l38.644,46.719L485.1,491.69l-39.511-44.022,32.335,83.6-60.205,2.65s-17.973-134.78-13.478-157.241Z" transform="translate(-82.808 -55.907)" opacity="0.1"/>
      <path id="Path_171" data-name="Path 171" d="M410.523,316.484s22.082,5.844,37.524,8.675a15.568,15.568,0,0,1,11.23,8.58c4.661,9.74,11.767,27.335,10.544,42.019L483.3,428.772l38.644,46.719L486.9,491.667l-39.535-44.03,32.335,83.6-60.2,2.681s-17.973-134.78-13.478-157.241Z" transform="translate(-82.808 -55.907)"/>
      <path id="Path_172" data-name="Path 172" d="M284.331,234.355l12.39,60.813L276.5,305.5l-11.073-54.779Z" fill="#dcdddf"/>
      <path id="Path_173" data-name="Path 173" d="M318.282,299.662l9.432-39.085,12.129,22.91-6.286,18.872Z" fill="#dcdddf"/>
      <path id="Path_174" data-name="Path 174" d="M435.231,367.25s0,61.1,8.084,65.592" transform="translate(-82.808 -55.907)" opacity="0.1"/>
      <path id="Path_175" data-name="Path 175" d="M319.323,382.494s-18.652,60.174-13.407,66.475" transform="translate(-82.808 -55.907)" opacity="0.1"/>
      <path id="Path_176" data-name="Path 176" d="M315.727,465.184s35.947,23.5,40.883,23.88" transform="translate(-82.808 -55.907)" opacity="0.1"/>
      <path id="Path_177" data-name="Path 177" d="M369.19,275.151s.142,5.26-.347,11.593a41.341,41.341,0,0,0,44.708,24.708c-.237-6.727,1.049-13.47,5.055-19.235C432.968,271.555,369.19,275.151,369.19,275.151Z" transform="translate(-82.808 -55.907)" opacity="0.1"/>
      <circle id="Ellipse_17" data-name="Ellipse 17" cx="41.333" cy="41.333" r="41.333" transform="translate(281.886 169.827)" fill="#fda57d"/>
      <path id="Path_178" data-name="Path 178" d="M432.25,249.694c5.008.67,11.388-1,12.35-5.954,1.222-6.27-7.161-10.339-8.454-16.562-.489-2.366.095-4.795-.189-7.169-.56-4.795-4.44-8.486-8.383-11.27a64.456,64.456,0,0,0-42.863-11.42A9.609,9.609,0,0,0,379.4,199c-1.648,1.356-2.287,3.557-3.415,5.379-3.88,6.262-12.618,7-18.825,10.907-7.311,4.566-10.923,13.533-11.254,22.145s2.129,17.058,4.558,25.324c2.066,7.035,4.235,14.251,8.77,20.008s12.066,9.779,19.18,8.044c-3.265-2.366-.891-7.815,2.642-9.724s7.886-2.24,10.954-4.89,3.943-6.972,4.913-10.907c1.246-4.968,3.044-10,6.664-13.628C410.7,244.481,423.5,248.519,432.25,249.694Z" transform="translate(-82.808 -55.907)" opacity="0.1"/>
      <path id="Path_179" data-name="Path 179" d="M431.39,248.795c5.008.67,11.388-1,12.35-5.954,1.222-6.27-7.161-10.339-8.454-16.562-.489-2.366.095-4.795-.189-7.169-.6-4.834-4.5-8.541-8.439-11.309a64.456,64.456,0,0,0-42.839-11.428,9.609,9.609,0,0,0-5.308,1.68c-1.648,1.356-2.287,3.557-3.415,5.379-3.88,6.262-12.618,7-18.825,10.907-7.311,4.566-10.923,13.533-11.254,22.145s2.129,17.058,4.558,25.323c2.066,7.035,4.235,14.251,8.77,20.008s12.066,9.779,19.18,8.044c-3.265-2.366-.891-7.815,2.642-9.724s7.886-2.24,10.954-4.89,3.943-6.972,4.913-10.907c1.246-4.968,3.044-10,6.664-13.628C409.805,243.605,422.636,247.635,431.39,248.795Z" transform="translate(-82.808 -55.907)" fill="#72351c"/>
      <path id="Path_180" data-name="Path 180" d="M398.882,272.643c-.607,4.274-1.956,11.672-4.5,16.341a131.436,131.436,0,0,0-8.581,18.928h0s16.562,12.816,24.961,21.57a19.464,19.464,0,0,0,20.607,5.047c4.385-1.577,8.226-4.677,9.243-10.442a34.614,34.614,0,0,0-2.1-20.047,15.055,15.055,0,0,1-.032-12.24c.623-1.38,1.349-2.453,2.161-2.729,0,0-16.175-3.6-17.074.9s-13.478,8.983-16.175.9l-.741-17.831a3.9,3.9,0,0,0-3.9-3.738h0a3.888,3.888,0,0,0-3.88,3.344Z" transform="translate(-82.808 -55.907)" opacity="0.1"/>
      <path id="Path_181" data-name="Path 181" d="M398.882,273.542c-.607,4.275-1.956,11.672-4.5,16.341a131.437,131.437,0,0,0-8.581,18.928h0s16.562,12.816,24.961,21.57a19.464,19.464,0,0,0,20.607,5.047c4.385-1.577,8.226-4.677,9.243-10.442a34.614,34.614,0,0,0-2.1-20.047,15.055,15.055,0,0,1-.055-12.271c.623-1.38,1.349-2.453,2.161-2.729,0,0-16.175-3.6-17.074.9s-13.454,9.022-16.175.962l-.741-17.831a3.9,3.9,0,0,0-3.9-3.738h0A3.888,3.888,0,0,0,398.882,273.542Z" transform="translate(-82.808 -55.907)" fill="#72351c"/>
      <path id="Path_182" data-name="Path 182" d="M720.035,529.183s-16.238-16.254-22.208-37.855h1.4l-.67-1.877h.67l-2.114-6.009c5.986-5.883,10.41-11.585,11.128-14.827,1.214-5.457,2.421-34.984,3.155-55.505l.647.158c1.577-2.7,1.909-6.1,1.8-9.18a35.589,35.589,0,0,0-1.325-10.252l-2.926-29.3a19.984,19.984,0,0,0-7.689-13.762l-29.653-23a18.856,18.856,0,0,1,5.82-5.158c1.7-.9,3.667-1.514,4.811-3.052,2.066-2.784.308-6.932,1.719-10.1,1.057-2.366,3.659-3.691,5.181-5.812,3.115-4.345.86-10.347-1.467-15.158l-13.517-27.942c-3.746-7.737-7.524-15.536-12.76-22.35C646,217.312,615.145,206.925,590,215.979c-7.169,2.579-13.77,7.532-16.83,14.5-1.065,2.429-1.7,5.079-3.249,7.232-3.446,4.8-10.174,5.71-14.984,9.164-6.144,4.44-8.423,12.8-7.563,20.331s4.314,14.487,7.721,21.293c3.58,7.1,7.279,14.409,13.155,19.787,2.745,2.516,6.1,4.85,6.979,8.47.749,3.107-.576,6.309-.3,9.527a9.693,9.693,0,0,0,1.151,3.817c-13.273,1.664-22.689,12.689-26.909,29.093-.26,1.017-.363,1.577-.363,1.577l-1.869,16.988c-.039.733,0,1.443,0,2.145a22.343,22.343,0,0,0,2.366,11.041v59.645L492.518,486.54c-8.517,3.785-6.625,34.062,10.41,39.732s32.185-30.213,32.185-30.213c10.371-.694,27.816-14.527,37.193-25.237a17.09,17.09,0,0,0,4.945,5.15c-6.767,15.252-20.15,46.806-18.013,53.21,1.285,3.864,34.519,4.219,70.442,3.462a17.157,17.157,0,0,0,2.879,1.27c3.833,1.278,7.571.442,11.041-1.617C682.464,531.186,720.035,529.183,720.035,529.183ZM672.078,413.527c.789-2.185,3.375-3.375,6.838-3.943v23Zm-3.3-80.836h0l.11-.166Z" transform="translate(-82.808 -55.907)" fill="url(#linear-gradient-21)"/>
      <path id="Path_183" data-name="Path 183" d="M583.489,384.773s-1.8,63.794-3.6,71.885-27.839,32.3-41.333,33.241c0,0-14.377,34.141-30.552,28.754s-17.973-34.141-9.882-37.737l53.928-34.148V378.48Z" transform="translate(-82.808 -55.907)" fill="#fdb797"/>
      <path id="Path_184" data-name="Path 184" d="M582.14,462.936s-23.36,50.316-20.663,58.407,152.745,0,152.745,0-27.855-27.855-22.461-58.407Z" transform="translate(-82.808 -55.907)"/>
      <path id="Path_185" data-name="Path 185" d="M600.114,313.787s3.6,35.04-2.7,43.131,25.158,12.618,27.855,12.618,31.451-9.882,36.838-12.618,9.882-22.461,9.882-22.461-26.956,5.394-35.04-26.025Z" transform="translate(-82.808 -55.907)" fill="#fdb797"/>
      <path id="Path_186" data-name="Path 186" d="M590.7,223.9c-6.806,2.453-13.084,7.153-15.986,13.778-1.01,2.3-1.617,4.819-3.084,6.869-3.273,4.558-9.661,5.418-14.2,8.675-5.836,4.219-8,12.153-7.185,19.314s4.093,13.762,7.326,20.2c3.4,6.759,6.917,13.683,12.492,18.793,2.6,2.366,5.8,4.606,6.625,8.044.71,2.95-.544,6.033-.284,9.054.647,7.469,9.574,10.946,17.027,11.775,3.241.363,6.948.379,9.235-1.948a15.887,15.887,0,0,0,2.492-4.322,20.718,20.718,0,0,1,36.956-.379c1.751,3.36,2.768,7.445,5.946,9.464,4.866,3.155,11.38-.544,14.984-5.1s6.191-10.252,11.309-12.989c1.577-.86,3.486-1.435,4.574-2.9,1.964-2.642.292-6.585,1.633-9.59,1.01-2.263,3.478-3.5,4.921-5.521,2.957-4.125.789-9.827-1.4-14.393L671.25,266.176c-3.557-7.35-7.145-14.756-12.114-21.23C643.876,225.167,614.577,215.3,590.7,223.9Z" transform="translate(-82.808 -55.907)" fill="#fff"/>
      <path id="Path_187" data-name="Path 187" d="M623.473,363.2s35.04,0,44.03-32.335L697,353.74a18.975,18.975,0,0,1,7.256,13.115l2.784,27.824s3.155,10.331-.45,16.625c0,0-37.287-9.464-38.186,1.349l26.025,72.776s-40.434.9-51.215-6.309c0,0-44.03,8.983-54.811-.9s-21.562-8.983-12.618-31.451c0,0-17.973-17.973-9.882-43.131s.45.45.45.45S548.9,395.554,549.8,379.34l1.8-16.175s.095-.536.347-1.5c5.481-21.293,20.2-33.123,40.891-25.584,6.049,2.192,12.232-.323,12.232-.323S598.315,365,623.473,363.2Z" transform="translate(-82.808 -55.907)" opacity="0.1"/>
      <path id="Path_188" data-name="Path 188" d="M623.473,361.406s35.04,0,44.03-32.335L697,351.942a18.975,18.975,0,0,1,7.256,13.115l2.784,27.823s3.155,10.331-.45,16.625c0,0-37.287-9.464-38.186,1.349l26.025,72.776s-40.434.9-51.215-6.309c0,0-44.03,8.983-54.811-.9s-21.562-8.983-12.618-31.451c0,0-17.973-17.973-9.882-43.131s.45.45.45.45S548.9,393.756,549.8,377.581l1.8-16.175s.095-.536.347-1.5c5.481-21.293,20.2-33.123,40.891-25.584,6.049,2.192,12.232-.323,12.232-.323S598.315,363.2,623.473,361.406Z" transform="translate(-82.808 -55.907)" fill="#b13250"/>
      <path id="Path_189" data-name="Path 189" d="M706.589,391.958s-1.8,63.794-3.6,71.885-27.855,32.335-41.333,33.242c0,0-14.377,34.141-30.552,28.754S613.134,491.7,621.226,488.1l53.912-34.141V385.649Z" transform="translate(-82.808 -55.907)" fill="#fdb797"/>
      <path id="Path_190" data-name="Path 190" d="M667.985,394.206s20.663,14.022,38.644,12.855c0,0,1.8-24.085-3.6-25.434S674.239,381.627,667.985,394.206Z" transform="translate(-82.808 -55.907)" opacity="0.1"/>
      <path id="Path_191" data-name="Path 191" d="M667.985,393.306s20.663,14.022,38.644,12.855c0,0,1.8-24.085-3.6-25.434S674.239,380.728,667.985,393.306Z" transform="translate(-82.808 -55.907)" fill="#c64b68"/>
      <path id="Path_192" data-name="Path 192" d="M638.749,310.191l-36.838,5.394s.828,8.107.994,17.421a41.349,41.349,0,0,0,43.376-7.051A40.422,40.422,0,0,1,638.749,310.191Z" transform="translate(-82.808 -55.907)" opacity="0.1"/>
      <circle id="Ellipse_18" data-name="Ellipse 18" cx="41.333" cy="41.333" r="41.333" transform="translate(493.047 195.884)" fill="#fdb797"/>
      <path id="Path_193" data-name="Path 193" d="M628.079,285.175a12.91,12.91,0,0,1-5.521.789q-10.962-.071-21.916-.789c-5.521-.371-11.435-1.025-15.7-4.566-5.741-4.732-6.648-13.7-3.683-20.544s9.014-11.893,15.4-15.773a45.962,45.962,0,0,1,11.609-5.237c11.83-3.218,24.953.733,34.361,8.62s15.41,19.275,18.588,31.136c1.1,4.1,2.508,8.991,6.569,10.252-2.705,4.5-9.306,5.213-14.038,2.957-6.987-3.32-10.568-16.033-16.838-18.036C629.917,271.736,633.986,282.462,628.079,285.175Z" transform="translate(-82.808 -55.907)" opacity="0.1"/>
      <path id="Path_194" data-name="Path 194" d="M628.079,284.276a12.91,12.91,0,0,1-5.521.789q-10.962-.071-21.916-.789c-5.521-.371-11.435-1.025-15.7-4.566-5.741-4.732-6.648-13.7-3.683-20.544s9.014-11.893,15.4-15.773a45.96,45.96,0,0,1,11.6-5.221c11.83-3.218,24.953.733,34.361,8.62s15.41,19.275,18.588,31.136c1.1,4.1,2.508,8.991,6.569,10.252-2.705,4.5-9.306,5.213-14.038,2.957-6.987-3.32-10.568-16.033-16.838-18.036C629.917,270.837,633.986,281.547,628.079,284.276Z" transform="translate(-82.808 -55.907)" fill="#fff"/>
      <path id="Path_195" data-name="Path 195" d="M575.405,444.521a159.172,159.172,0,0,1,41.317-5.394" transform="translate(-82.808 -55.907)" opacity="0.1"/>
      <path id="Path_196" data-name="Path 196" d="M667.985,396s-13.478,9.882-9.882,15.276" transform="translate(-82.808 -55.907)" opacity="0.1"/>
      <g id="Group_13" data-name="Group 13" opacity="0.7">
        <path id="Path_197" data-name="Path 197" d="M677.693,438.031H236.515v38.581h25.678V597.968H652.929V476.611h24.764Z" fill="url(#linear-gradient-22)"/>
      </g>
      <rect id="Rectangle_28" data-name="Rectangle 28" width="382.77" height="137.477" transform="translate(266.169 460.499)" fill="#e0e0e0"/>
      <rect id="Rectangle_29" data-name="Rectangle 29" width="382.77" height="21.562" transform="translate(266.169 467.684)" opacity="0.1"/>
      <rect id="Rectangle_30" data-name="Rectangle 30" width="432.187" height="36.838" transform="translate(241.011 445.223)" fill="#e0e0e0"/>
      <rect id="Rectangle_31" data-name="Rectangle 31" width="82.666" height="11.68" rx="5.126" transform="translate(302.951 436.154)" fill="#535461"/>
      <g id="Group_14" data-name="Group 14" opacity="0.7">
        <rect id="Rectangle_32" data-name="Rectangle 32" width="205.458" height="142.059" rx="22.256" transform="translate(353.267 305.924)" fill="url(#linear-gradient-22)"/>
      </g>
      <rect id="Rectangle_33" data-name="Rectangle 33" width="194.63" height="139.433" rx="21.167" transform="translate(356.926 308.543)" fill="#3e3f49"/>
      <rect id="Rectangle_34" data-name="Rectangle 34" width="194.63" height="139.433" rx="21.167" transform="translate(359.623 308.543)" fill="#535461"/>
      <circle id="Ellipse_19" data-name="Ellipse 19" cx="6.293" cy="6.293" r="6.293" transform="translate(459.734 371.011)" fill="#e0e0e0"/>
      <path id="Path_198" data-name="Path 198" d="M291.468,519.1s5.315,7.8,21.081,10.189" transform="translate(-82.808 -55.907)" opacity="0.1"/>
      <path id="Path_199" data-name="Path 199" d="M432.179,119H376.185V87.453h55.994Zm-53.628-2.366h51.262V89.819H378.551Z" transform="translate(-82.808 -55.907)" fill="#e5f1f6" opacity="0.2"/>
      <path id="Path_200" data-name="Path 200" d="M488.173,119H432.179V87.453h55.994Zm-53.628-2.366h51.262V89.819H434.545Z" transform="translate(-82.808 -55.907)" fill="#e5f1f6" opacity="0.2"/>
      <path id="Path_201" data-name="Path 201" d="M544.167,119H488.173V87.453h55.994Zm-53.628-2.366H541.8V89.819H490.539Z" transform="translate(-82.808 -55.907)" fill="#e5f1f6" opacity="0.2"/>
      <path id="Path_202" data-name="Path 202" d="M600.161,119H544.167V87.453h55.994Zm-53.628-2.366h51.262V89.819H546.533Z" transform="translate(-82.808 -55.907)" fill="#e5f1f6" opacity="0.2"/>
      <path id="Path_203" data-name="Path 203" d="M544.167,87.453H488.173V55.907h55.994Zm-53.628-2.366H541.8V58.273H490.539Z" transform="translate(-82.808 -55.907)" fill="#e5f1f6" opacity="0.2"/>
      <path id="Path_204" data-name="Path 204" d="M488.173,87.453H432.179V55.907h55.994Zm-53.628-2.366h51.262V58.273H434.545Z" transform="translate(-82.808 -55.907)" fill="#e5f1f6" opacity="0.2"/>
      <path id="Path_205" data-name="Path 205" d="M224.765,119H168.771V87.453h55.994Zm-53.628-2.366H222.4V89.819H171.137Z" transform="translate(-82.808 -55.907)" fill="#e5f1f6" opacity="0.2"/>
      <path id="Path_206" data-name="Path 206" d="M280.759,119H224.765V87.453h55.994Zm-53.628-2.366h51.262V89.819H227.131Z" transform="translate(-82.808 -55.907)" fill="#e5f1f6" opacity="0.2"/>
      <path id="Path_207" data-name="Path 207" d="M280.759,87.453H224.765V55.907h55.994Zm-53.628-2.366h51.262V58.273H227.131Z" transform="translate(-82.808 -55.907)" fill="#e5f1f6" opacity="0.2"/>
      <path id="Path_208" data-name="Path 208" d="M713.726,119H657.732V87.453h55.994ZM660.1,116.633H711.36V89.819H660.1Z" transform="translate(-82.808 -55.907)" fill="#e5f1f6" opacity="0.2"/>
      <path id="Path_209" data-name="Path 209" d="M769.72,119H713.726V87.453H769.72Zm-53.628-2.366h51.262V89.819H716.092Z" transform="translate(-82.808 -55.907)" fill="#e5f1f6" opacity="0.2"/>
      <path id="Path_210" data-name="Path 210" d="M769.72,87.453H713.726V55.907H769.72Zm-53.628-2.366h51.262V58.273H716.092Z" transform="translate(-82.808 -55.907)" fill="#e5f1f6" opacity="0.2"/>
    </g>
  </g>
</svg>
