<?xml version="1.0" encoding="utf-8"?>
<!-- Generator: Adobe Illustrator 24.2.3, SVG Export Plug-In . SVG Version: 6.00 Build 0)  -->
<svg version="1.1" id="Layer_1" xmlns="http://www.w3.org/2000/svg" xmlns:xlink="http://www.w3.org/1999/xlink" x="0px" y="0px"
	 viewBox="0 0 294 143.3" style="enable-background:new 0 0 294 143.3;" xml:space="preserve">
<style type="text/css">
	.st0{fill:#9B0F31;}
</style>
<g id="Group_64" transform="translate(-15.735 -21.905)">
	<path id="Path_237" d="M100.1,58v1.6c0,0.5,0,1-0.1,1.5h-28c0.1,1,0.4,2.1,1,3c0.6,0.9,1.3,1.7,2.1,2.3c1.8,1.3,3.9,2.1,6.2,2.1
		c1.8,0.1,3.5-0.3,5.1-1.1c1.3-0.7,2.5-1.7,3.4-2.9l8.9,5.6c-1.8,2.6-4.3,4.7-7.2,6.1c-3.3,1.5-6.8,2.2-10.4,2.1
		c-2.8,0-5.6-0.4-8.2-1.4c-2.5-0.9-4.8-2.2-6.8-4c-2-1.8-3.5-4-4.6-6.4c-1.2-2.8-1.7-5.7-1.7-8.7c0-2.9,0.5-5.9,1.6-8.6
		c1-2.5,2.5-4.7,4.4-6.5c1.9-1.8,4.1-3.2,6.6-4.2c2.6-1,5.4-1.5,8.2-1.5c2.7,0,5.3,0.5,7.8,1.4c2.3,0.9,4.4,2.3,6.1,4.2
		c1.8,1.9,3.1,4.2,4,6.6C99.6,52,100.1,55,100.1,58z M88.3,53.1c0-1.9-0.6-3.8-1.9-5.2c-1.5-1.5-3.6-2.3-5.7-2.2
		c-1.2,0-2.3,0.2-3.4,0.6c-1,0.4-1.9,0.9-2.7,1.6c-0.8,0.7-1.4,1.5-1.9,2.4c-0.5,0.9-0.7,1.8-0.8,2.8L88.3,53.1z"/>
	<path id="Path_238" d="M118.7,47.7v14.8c-0.1,1.4,0.3,2.9,1,4.1c0.7,0.9,2,1.4,3.8,1.4c0.7,0,1.3-0.1,2-0.2
		c0.6-0.1,1.2-0.2,1.7-0.5l0.2,9.3c-1.1,0.4-2.2,0.6-3.3,0.8c-1.3,0.2-2.7,0.3-4,0.3c-2.2,0.1-4.4-0.3-6.5-1
		c-1.6-0.6-3.1-1.5-4.2-2.8c-1.1-1.3-1.9-2.8-2.3-4.4c-0.5-1.8-0.7-3.7-0.7-5.6V47.7h-6.2v-9.5h6.1V28h12.5v10.2h9.1v9.5H118.7z"/>
	<path id="Path_239" d="M147.6,47.7v14.8c-0.1,1.4,0.3,2.9,1,4.1c0.7,0.9,2,1.4,3.8,1.4c0.7,0,1.3-0.1,2-0.2
		c0.6-0.1,1.2-0.2,1.7-0.5l0.2,9.3c-1.1,0.4-2.2,0.6-3.3,0.8c-1.3,0.2-2.7,0.3-4,0.3c-2.2,0.1-4.4-0.3-6.5-1
		c-1.6-0.6-3.1-1.5-4.2-2.8c-1.1-1.3-1.9-2.8-2.3-4.4c-0.5-1.8-0.7-3.7-0.7-5.6V47.7h-6.2v-9.5h6.1V28h12.5v10.2h9.1v9.5H147.6z"/>
	<path id="Path_240" d="M197.3,58v1.6c0,0.5,0,1-0.1,1.5h-28c0.1,1,0.4,2.1,1,3c0.6,0.9,1.3,1.7,2.1,2.3c1.8,1.3,3.9,2.1,6.2,2.1
		c1.8,0.1,3.5-0.3,5.1-1.1c1.3-0.7,2.5-1.7,3.4-2.9l8.9,5.6c-1.8,2.6-4.3,4.7-7.2,6.1c-3.3,1.5-6.8,2.2-10.4,2.1
		c-2.8,0-5.6-0.4-8.2-1.4c-2.5-0.9-4.8-2.2-6.8-4c-2-1.8-3.5-4-4.6-6.4c-1.2-2.8-1.7-5.7-1.7-8.7c0-2.9,0.5-5.9,1.6-8.6
		c1-2.5,2.5-4.7,4.4-6.5c1.9-1.8,4.1-3.2,6.6-4.2c2.6-1,5.4-1.5,8.2-1.5c2.7,0,5.3,0.5,7.8,1.4c2.3,0.9,4.4,2.3,6.1,4.2
		c1.8,1.9,3.1,4.2,4,6.6C196.9,52,197.3,55,197.3,58z M185.6,53.1c0-1.9-0.6-3.8-1.9-5.2c-1.5-1.5-3.6-2.3-5.7-2.2
		c-1.2,0-2.3,0.2-3.4,0.6c-1,0.4-1.9,0.9-2.7,1.6c-0.8,0.7-1.4,1.5-1.9,2.4c-0.5,0.9-0.7,1.8-0.8,2.8L185.6,53.1z"/>
	<path id="Path_241" d="M225.6,48.7c-0.5-0.2-1.1-0.3-1.7-0.3c-0.5-0.1-1.1-0.1-1.6-0.1c-1.5,0-3,0.3-4.3,0.9
		c-1.1,0.5-2,1.3-2.8,2.2c-0.7,0.9-1.2,1.8-1.5,2.9c-0.3,0.9-0.4,1.8-0.5,2.7v19.8h-12.7V38.3h12.3v5.6h0.2c1-2,2.4-3.6,4.2-4.8
		c1.9-1.3,4.1-1.9,6.3-1.9c0.5,0,1,0,1.5,0.1c0.4,0,0.8,0.1,1.2,0.2L225.6,48.7z"/>
	<path id="Path_242" d="M55.3,96.5c-1-1.1-2.2-2-3.6-2.7c-1.4-0.7-2.9-1.2-4.4-1.4v-0.2c2.5-0.8,4.8-2.3,6.5-4.3
		c1.7-2.1,2.6-4.8,2.5-7.6c0.1-2.4-0.5-4.8-1.7-6.9c-0.3-0.4-0.6-0.9-0.9-1.3c1.2-1,2.3-2.3,3.1-3.7c1.3-2.3,1.9-4.9,1.8-7.6
		c0-1.7-0.3-3.3-0.9-4.9c-0.6-1.4-1.4-2.7-2.4-3.8c-1-1.1-2.2-2-3.6-2.7c-1.4-0.7-2.9-1.2-4.4-1.4v-0.2c2.5-0.8,4.8-2.3,6.5-4.3
		c1.7-2.1,2.6-4.8,2.5-7.6c0.1-2.4-0.5-4.8-1.7-6.9c-1.1-1.8-2.6-3.3-4.4-4.3c-1.9-1.1-3.9-1.8-6.1-2.3c-2.1-0.4-4.3-0.7-6.5-0.7
		H15.7v99.3h21.9c2.6,0,5.2-0.3,7.7-0.8c2.4-0.5,4.7-1.4,6.7-2.7c2-1.2,3.6-2.9,4.7-4.9c1.3-2.3,1.9-4.9,1.8-7.6
		c0-1.7-0.3-3.3-0.9-4.9C57.1,98.9,56.3,97.6,55.3,96.5z M28.6,32.5h6.5c2.2-0.1,4.4,0.3,6.3,1.3c1.4,0.8,2.2,2.4,2.1,4.1
		c0.1,1.7-0.7,3.4-2.1,4.5c-1.7,1.1-3.7,1.6-5.8,1.5h-7.1L28.6,32.5z M28.6,53.6h7.4c2.4-0.1,4.7,0.4,6.8,1.3
		c1.7,0.9,2.7,2.8,2.6,4.7c0.1,2.2-1.1,4.3-3.1,5.3c-1,0.5-2,0.8-3,1c-1.1,0.2-2.1,0.3-3.2,0.3h-7.5L28.6,53.6z M35.1,76.9
		c2.2-0.1,4.4,0.3,6.3,1.3c1.4,0.8,2.2,2.4,2.1,4.1c0.1,1.7-0.7,3.4-2.1,4.5c-1.7,1.1-3.7,1.6-5.8,1.5h-7.1V76.9L35.1,76.9z
		 M44.5,107.2c-0.6,0.8-1.3,1.5-2.2,2c-1,0.5-2,0.8-3,1c-1.1,0.2-2.1,0.3-3.2,0.3h-7.5V97.9h7.4c2.4-0.1,4.7,0.4,6.8,1.3
		c1.7,0.9,2.7,2.8,2.6,4.7C45.4,105.1,45.1,106.2,44.5,107.2L44.5,107.2z"/>
	<path id="Path_243" d="M87.5,121.2v-5.4h-0.2c-0.5,0.9-1.1,1.7-1.8,2.5c-0.8,0.8-1.7,1.5-2.6,2c-1.1,0.6-2.2,1.1-3.3,1.4
		c-1.2,0.4-2.5,0.5-3.8,0.5c-2.3,0.1-4.5-0.4-6.6-1.4c-1.7-0.9-3.2-2.1-4.3-3.6c-1.1-1.5-1.9-3.2-2.4-5c-0.5-1.9-0.7-3.8-0.7-5.8
		V82.5h12.8v21c0,1,0.1,2.1,0.2,3.1c0.1,0.9,0.4,1.8,0.9,2.6c0.4,0.8,1,1.4,1.7,1.8c0.9,0.5,1.9,0.7,2.9,0.7c2,0.1,3.9-0.8,5.1-2.5
		c1.2-1.7,1.8-3.7,1.7-5.8V82.5h12.7v38.7H87.5z"/>
	<path id="Path_244" d="M129.4,93.9c-1.1-1-2.3-1.9-3.6-2.5c-1.4-0.7-2.9-1-4.4-1c-1.1,0-2.3,0.2-3.3,0.7c-1,0.4-1.6,1.4-1.5,2.4
		c0,1.1,0.7,2,1.7,2.3c1.8,0.7,3.6,1.2,5.4,1.6c1.5,0.3,3,0.8,4.4,1.3c1.4,0.5,2.8,1.3,4,2.3c1.2,0.9,2.2,2.1,2.9,3.4
		c0.8,1.5,1.1,3.1,1.1,4.8c0.2,4.1-1.8,8-5.3,10.3c-1.6,1.1-3.4,1.8-5.3,2.3c-1.9,0.5-3.9,0.7-5.9,0.7c-3.2,0-6.3-0.5-9.3-1.5
		c-2.8-0.9-5.4-2.4-7.6-4.5l7.1-7.5c1.2,1.3,2.6,2.3,4.2,3.1c1.6,0.8,3.4,1.3,5.3,1.2c1.1,0,2.1-0.3,3.1-0.7c1-0.5,1.6-1.5,1.5-2.6
		c0-1.2-0.7-2.2-1.9-2.6c-1.9-0.8-3.8-1.4-5.8-1.8c-1.4-0.3-2.7-0.7-4-1.2c-1.3-0.5-2.5-1.2-3.6-2.1c-1.1-0.9-2-2-2.6-3.3
		c-0.7-1.4-1.1-3-1-4.7c-0.1-2.1,0.4-4.1,1.5-5.9c1-1.6,2.3-3,3.8-4c1.6-1,3.3-1.8,5.2-2.3c1.8-0.5,3.7-0.7,5.6-0.7
		c2.9,0,5.8,0.5,8.5,1.4c2.6,0.8,5,2.2,7,4.1L129.4,93.9z"/>
	<path id="Path_245" class="st0" d="M154,132.4c0,1-0.2,1.9-0.6,2.8c-0.8,1.7-2.1,3-3.9,3.7c-0.9,0.4-1.9,0.5-2.8,0.5
		c-1.9,0.1-3.8-0.7-5.2-2.1c-1.4-1.3-2.1-3.1-2.1-4.9c0-0.9,0.2-1.8,0.5-2.7c0.4-0.8,0.9-1.6,1.6-2.2c0.7-0.6,1.5-1.1,2.3-1.5
		c0.9-0.4,1.9-0.6,2.9-0.6c1,0,1.9,0.2,2.8,0.5c1.7,0.7,3.1,2,3.9,3.7C153.8,130.5,154,131.4,154,132.4z"/>
	<rect id="Rectangle_138" x="140.3" y="82.5" width="12.7" height="38.7"/>
	<path id="Path_246" d="M185.4,121.2V100c0-1-0.1-2.1-0.3-3.1c-0.2-0.9-0.5-1.8-0.9-2.6c-0.4-0.7-1-1.4-1.7-1.8
		c-0.9-0.5-1.8-0.7-2.8-0.7c-1,0-2.1,0.2-3,0.7c-0.8,0.4-1.6,1.1-2.1,1.8c-0.6,0.8-1,1.7-1.3,2.7c-0.3,1-0.4,2.1-0.4,3.1v21H160
		V82.5h12.3v5.4h0.2c0.5-0.9,1.1-1.7,1.8-2.4c0.8-0.8,1.7-1.5,2.6-2.1c1-0.6,2.2-1.1,3.3-1.4c1.2-0.4,2.5-0.6,3.8-0.5
		c2.3-0.1,4.5,0.4,6.6,1.4c1.7,0.9,3.2,2.1,4.4,3.6c1.1,1.5,2,3.2,2.4,5.1c0.5,1.9,0.7,3.8,0.7,5.7v23.9H185.4z"/>
	<path id="Path_247" d="M241.6,102.3v1.6c0,0.5,0,1-0.1,1.5h-28c0.1,1,0.4,2.1,1,3c0.6,0.9,1.3,1.7,2.1,2.3c1.8,1.3,3.9,2.1,6.2,2.1
		c1.8,0.1,3.5-0.3,5.1-1.1c1.3-0.7,2.5-1.7,3.4-2.9l8.9,5.6c-1.8,2.6-4.3,4.7-7.2,6.1c-3.3,1.5-6.8,2.2-10.4,2.1
		c-2.8,0-5.6-0.4-8.2-1.4c-2.5-0.9-4.8-2.2-6.8-4c-2-1.8-3.5-4-4.6-6.4c-1.2-2.8-1.7-5.7-1.7-8.7c0-2.9,0.5-5.9,1.6-8.6
		c1-2.5,2.5-4.7,4.4-6.5c1.9-1.8,4.1-3.2,6.6-4.2c2.6-1,5.4-1.5,8.2-1.5c2.7,0,5.3,0.5,7.8,1.4c2.3,0.9,4.4,2.3,6.1,4.2
		c1.8,1.9,3.1,4.2,4,6.6C241.2,96.3,241.6,99.3,241.6,102.3z M229.9,97.4c0-1.9-0.6-3.8-1.9-5.2c-1.5-1.5-3.6-2.3-5.7-2.2
		c-1.2,0-2.3,0.2-3.4,0.6c-1,0.4-1.9,0.9-2.7,1.6c-0.8,0.7-1.4,1.5-1.9,2.4c-0.5,0.9-0.7,1.8-0.8,2.8L229.9,97.4z"/>
	<path id="Path_248" d="M269.2,93.9c-1.1-1-2.3-1.9-3.6-2.5c-1.4-0.7-2.9-1-4.4-1c-1.1,0-2.3,0.2-3.3,0.7c-1,0.4-1.6,1.4-1.5,2.4
		c0,1.1,0.7,2,1.7,2.3c1.8,0.7,3.6,1.2,5.4,1.6c1.5,0.3,3,0.8,4.4,1.3c1.4,0.5,2.8,1.3,4,2.3c1.2,0.9,2.2,2.1,2.9,3.4
		c0.8,1.5,1.1,3.1,1.1,4.8c0.2,4.1-1.8,8-5.3,10.3c-1.6,1.1-3.4,1.8-5.3,2.3c-1.9,0.5-3.9,0.7-5.9,0.7c-3.2,0-6.3-0.5-9.3-1.5
		c-2.8-0.9-5.4-2.4-7.6-4.5l7.1-7.5c1.2,1.3,2.6,2.3,4.2,3.1c1.6,0.8,3.4,1.3,5.3,1.2c1.1,0,2.1-0.3,3.1-0.7c1-0.5,1.6-1.5,1.5-2.6
		c0-1.2-0.7-2.2-1.9-2.6c-1.9-0.8-3.8-1.4-5.8-1.8c-1.4-0.3-2.7-0.7-4-1.2c-1.3-0.5-2.5-1.2-3.6-2.1c-1.1-0.9-2-2-2.6-3.3
		c-0.7-1.4-1.1-3-1-4.7c-0.1-2.1,0.4-4.1,1.5-5.9c1-1.6,2.3-3,3.8-4c1.6-1,3.3-1.8,5.2-2.3c1.8-0.5,3.7-0.7,5.6-0.7
		c2.9,0,5.8,0.5,8.5,1.4c2.6,0.8,5,2.2,7,4.1L269.2,93.9z"/>
	<path id="Path_249" d="M302.7,93.9c-1.1-1-2.3-1.9-3.6-2.5c-1.4-0.7-2.9-1-4.4-1c-1.1,0-2.3,0.2-3.3,0.7c-1,0.4-1.6,1.4-1.5,2.4
		c0,1.1,0.7,2,1.7,2.3c1.8,0.7,3.6,1.2,5.4,1.6c1.5,0.3,3,0.8,4.4,1.3c1.4,0.5,2.8,1.3,4,2.3c1.2,0.9,2.2,2.1,2.9,3.4
		c0.8,1.5,1.1,3.1,1.1,4.8c0.2,4.1-1.8,8-5.3,10.3c-1.6,1.1-3.4,1.8-5.3,2.3c-1.9,0.5-3.9,0.7-5.9,0.7c-3.2,0-6.3-0.5-9.3-1.5
		c-2.8-0.9-5.4-2.4-7.6-4.5l7.1-7.5c1.2,1.3,2.6,2.3,4.2,3.1c1.6,0.8,3.4,1.2,5.3,1.2c1.1,0,2.1-0.3,3.1-0.7c1-0.5,1.6-1.5,1.5-2.6
		c0-1.2-0.7-2.2-1.9-2.6c-1.9-0.8-3.8-1.4-5.8-1.8c-1.4-0.3-2.7-0.7-4-1.2c-1.3-0.5-2.5-1.2-3.6-2.1c-1.1-0.9-2-2-2.6-3.3
		c-0.7-1.4-1.1-3-1-4.7c-0.1-2.1,0.4-4.1,1.5-5.9c1-1.6,2.3-3,3.8-4c1.6-1,3.3-1.8,5.2-2.3c1.8-0.5,3.7-0.7,5.6-0.7
		c2.9,0,5.8,0.5,8.5,1.4c2.6,0.8,5,2.2,7,4.1L302.7,93.9z"/>
	<path id="Path_250" d="M186.1,164.1V143c0-1-0.1-2.1-0.3-3.1c-0.2-0.9-0.5-1.8-0.9-2.6c-0.4-0.7-1-1.4-1.7-1.8
		c-0.9-0.5-1.8-0.7-2.8-0.7c-1,0-2.1,0.2-3,0.7c-0.8,0.4-1.6,1.1-2.1,1.8c-0.6,0.8-1,1.7-1.3,2.7c-0.3,1-0.4,2.1-0.4,3.1v21h-12.8
		v-38.7H173v5.4h0.2c0.5-0.9,1.1-1.7,1.8-2.4c0.8-0.8,1.7-1.5,2.6-2.1c1-0.6,2.2-1.1,3.3-1.4c1.2-0.4,2.5-0.6,3.8-0.5
		c2.3-0.1,4.5,0.4,6.6,1.4c1.7,0.9,3.2,2.1,4.4,3.6c1.1,1.5,2,3.2,2.4,5.1c0.5,1.9,0.7,3.8,0.7,5.7v23.9H186.1z"/>
	<path id="Path_251" d="M229.3,164.1v-5.4h-0.2c-0.5,0.9-1.1,1.7-1.8,2.5c-0.8,0.8-1.7,1.5-2.6,2c-1.1,0.6-2.2,1.1-3.3,1.4
		c-1.2,0.4-2.5,0.5-3.8,0.5c-2.3,0.1-4.5-0.4-6.6-1.4c-1.7-0.9-3.2-2.1-4.4-3.6c-1.1-1.5-1.9-3.2-2.4-5c-0.5-1.9-0.7-3.8-0.7-5.8
		v-23.9h12.8v21c0,1,0.1,2.1,0.2,3.1c0.1,0.9,0.4,1.8,0.9,2.6c0.4,0.8,1,1.4,1.7,1.8c0.9,0.5,1.9,0.7,2.9,0.7c2,0.1,3.9-0.8,5.1-2.5
		c1.2-1.7,1.8-3.7,1.7-5.8v-20.9h12.7v38.7H229.3z"/>
</g>
</svg>
