<svg xmlns="http://www.w3.org/2000/svg" width="293.968" height="143.258" viewBox="0 0 293.968 143.258">
  <g id="Group_64" data-name="Group 64" transform="translate(-15.735 -21.905)">
    <path id="Path_237" data-name="Path 237" d="M94.684,56.182v1.554a14.06,14.06,0,0,1-.077,1.474H66.567a6.735,6.735,0,0,0,.972,2.951,8.334,8.334,0,0,0,2.1,2.292,10.277,10.277,0,0,0,6.173,2.058,10.714,10.714,0,0,0,5.126-1.125,10.142,10.142,0,0,0,3.418-2.912l8.854,5.591a17.905,17.905,0,0,1-7.185,6.1A23.76,23.76,0,0,1,75.654,76.3a24.735,24.735,0,0,1-8.232-1.359,19.957,19.957,0,0,1-6.8-3.962,18.3,18.3,0,0,1-4.582-6.408,21.436,21.436,0,0,1-1.671-8.7,21.75,21.75,0,0,1,1.632-8.584,19.363,19.363,0,0,1,4.427-6.522,19.744,19.744,0,0,1,6.6-4.156,22.6,22.6,0,0,1,8.234-1.476A20.853,20.853,0,0,1,83.11,36.57a17.093,17.093,0,0,1,6.137,4.156,19.225,19.225,0,0,1,4,6.6A25.443,25.443,0,0,1,94.684,56.182ZM82.956,51.289a7.633,7.633,0,0,0-1.9-5.2,7.185,7.185,0,0,0-5.708-2.174,9.664,9.664,0,0,0-3.418.582,8.9,8.9,0,0,0-2.719,1.592,7.891,7.891,0,0,0-1.862,2.369,6.9,6.9,0,0,0-.778,2.835Z" transform="translate(5.371 1.839)" fill="#fff"/>
    <path id="Path_238" data-name="Path 238" d="M108.4,46.942V61.756a6.664,6.664,0,0,0,1.048,4.092q1.047,1.363,3.767,1.363a13.552,13.552,0,0,0,1.982-.155,6.787,6.787,0,0,0,1.746-.466l.155,9.321a21.052,21.052,0,0,1-3.34.816,23.7,23.7,0,0,1-4.039.349A18.982,18.982,0,0,1,103.2,76.1a10.053,10.053,0,0,1-4.233-2.8,10.97,10.97,0,0,1-2.292-4.359,21.2,21.2,0,0,1-.7-5.646V46.942H89.762V37.467H95.9V27.292h12.5V37.467h9.087v9.475Z" transform="translate(10.291 0.749)" fill="#fff"/>
    <path id="Path_239" data-name="Path 239" d="M133.769,46.942V61.756a6.671,6.671,0,0,0,1.048,4.092q1.047,1.363,3.768,1.363a13.549,13.549,0,0,0,1.981-.155,6.787,6.787,0,0,0,1.746-.466l.155,9.321a21.034,21.034,0,0,1-3.338.816,23.72,23.72,0,0,1-4.04.349,18.971,18.971,0,0,1-6.522-.974,10.057,10.057,0,0,1-4.234-2.8,10.971,10.971,0,0,1-2.292-4.359,21.2,21.2,0,0,1-.7-5.646V46.942h-6.215V37.467h6.137V27.292h12.5V37.467h9.087v9.475Z" transform="translate(13.817 0.749)" fill="#fff"/>
    <path id="Path_240" data-name="Path 240" d="M180.054,56.182v1.554a13.743,13.743,0,0,1-.079,1.474H151.937a6.735,6.735,0,0,0,.972,2.951,8.348,8.348,0,0,0,2.1,2.292,10.284,10.284,0,0,0,6.173,2.058,10.716,10.716,0,0,0,5.127-1.125,10.143,10.143,0,0,0,3.418-2.912l8.852,5.591a17.9,17.9,0,0,1-7.184,6.1A23.764,23.764,0,0,1,161.024,76.3a24.735,24.735,0,0,1-8.232-1.359,19.946,19.946,0,0,1-6.8-3.962,18.285,18.285,0,0,1-4.582-6.408,21.436,21.436,0,0,1-1.671-8.7,21.75,21.75,0,0,1,1.632-8.584,19.363,19.363,0,0,1,4.427-6.522,19.744,19.744,0,0,1,6.6-4.156,22.6,22.6,0,0,1,8.234-1.476,20.858,20.858,0,0,1,7.843,1.437,17.094,17.094,0,0,1,6.137,4.156,19.223,19.223,0,0,1,4,6.6A25.415,25.415,0,0,1,180.054,56.182Zm-11.728-4.893a7.639,7.639,0,0,0-1.9-5.2,7.186,7.186,0,0,0-5.708-2.174,9.675,9.675,0,0,0-3.419.582,8.9,8.9,0,0,0-2.718,1.592,7.89,7.89,0,0,0-1.862,2.369,6.9,6.9,0,0,0-.778,2.835Z" transform="translate(17.239 1.839)" fill="#fff"/>
    <path id="Path_241" data-name="Path 241" d="M203.083,46.843a9.9,9.9,0,0,0-1.669-.311q-.817-.077-1.592-.077a9.11,9.11,0,0,0-4.311.929,8.8,8.8,0,0,0-2.8,2.247A8.485,8.485,0,0,0,191.2,52.5a9.541,9.541,0,0,0-.468,2.709V75.037H178V36.4h12.272v5.591h.155a12.6,12.6,0,0,1,4.194-4.848,10.8,10.8,0,0,1,6.292-1.878c.516,0,1.021.028,1.514.077a6.136,6.136,0,0,1,1.205.234Z" transform="translate(22.557 1.858)" fill="#fff"/>
    <path id="Path_242" data-name="Path 242" d="M55.308,96.466a12.661,12.661,0,0,0-3.573-2.679,15.094,15.094,0,0,0-4.389-1.439v-.155a13.866,13.866,0,0,0,6.524-4.309,11.447,11.447,0,0,0,2.485-7.574A12.8,12.8,0,0,0,54.647,73.4a13.935,13.935,0,0,0-.893-1.253,14.251,14.251,0,0,0,3.067-3.679,14.819,14.819,0,0,0,1.787-7.572A12.823,12.823,0,0,0,57.716,56a12.563,12.563,0,0,0-2.408-3.8,12.733,12.733,0,0,0-3.573-2.681,15.087,15.087,0,0,0-4.389-1.435v-.156a13.86,13.86,0,0,0,6.524-4.31,11.442,11.442,0,0,0,2.485-7.573,12.8,12.8,0,0,0-1.709-6.913,12.848,12.848,0,0,0-4.426-4.31,19.352,19.352,0,0,0-6.058-2.253,33.829,33.829,0,0,0-6.525-.659h-21.9v99.259h21.9a36.46,36.46,0,0,0,7.729-.814,20.719,20.719,0,0,0,6.717-2.679,14.184,14.184,0,0,0,4.738-4.932,14.833,14.833,0,0,0,1.787-7.574,12.823,12.823,0,0,0-.893-4.893A12.563,12.563,0,0,0,55.308,96.466Zm-26.756-64h6.522a12.517,12.517,0,0,1,6.331,1.283,4.4,4.4,0,0,1,2.137,4.078,5.193,5.193,0,0,1-2.059,4.465A9.607,9.607,0,0,1,35.7,43.807H28.552Zm0,21.125H35.93a15.018,15.018,0,0,1,6.835,1.321,4.858,4.858,0,0,1,2.563,4.738,5.513,5.513,0,0,1-3.069,5.28,10.148,10.148,0,0,1-3.029.97,19.828,19.828,0,0,1-3.222.272H28.552Zm6.522,23.3a12.53,12.53,0,0,1,6.331,1.281,4.407,4.407,0,0,1,2.137,4.079,5.19,5.19,0,0,1-2.059,4.464A9.6,9.6,0,0,1,35.7,88.235H28.552V76.895Zm9.4,30.328a5.8,5.8,0,0,1-2.213,1.981,10.083,10.083,0,0,1-3.029.97,19.83,19.83,0,0,1-3.222.273H28.552V97.863H35.93a15.018,15.018,0,0,1,6.835,1.321,4.859,4.859,0,0,1,2.563,4.738A5.832,5.832,0,0,1,44.472,107.222Z" transform="translate(0 0)" fill="#fff"/>
    <path id="Path_243" data-name="Path 243" d="M81.9,113.77v-5.358h-.155a11.052,11.052,0,0,1-1.826,2.485,11.585,11.585,0,0,1-2.64,2.019,16.22,16.22,0,0,1-3.342,1.4,13.393,13.393,0,0,1-3.843.543,14.056,14.056,0,0,1-6.563-1.4,12.686,12.686,0,0,1-4.35-3.613,14.2,14.2,0,0,1-2.408-5.048,22.849,22.849,0,0,1-.737-5.785V75.092H68.849v20.97a19.816,19.816,0,0,0,.233,3.106,7.7,7.7,0,0,0,.894,2.64,4.912,4.912,0,0,0,1.746,1.826,5.5,5.5,0,0,0,2.875.66,5.827,5.827,0,0,0,5.087-2.485,9.865,9.865,0,0,0,1.746-5.824V75.092H94.17V113.77Z" transform="translate(5.602 7.394)" fill="#fff"/>
    <path id="Path_244" data-name="Path 244" d="M118.773,86.661a14.141,14.141,0,0,0-3.649-2.485,10.079,10.079,0,0,0-4.427-1.011,7.758,7.758,0,0,0-3.3.7,2.45,2.45,0,0,0-1.515,2.408,2.4,2.4,0,0,0,1.67,2.33,36.428,36.428,0,0,0,5.4,1.552,29.242,29.242,0,0,1,4.389,1.32,15.519,15.519,0,0,1,4,2.253,10.818,10.818,0,0,1,2.874,3.417,10.021,10.021,0,0,1,1.087,4.815,11.587,11.587,0,0,1-5.32,10.252,16.544,16.544,0,0,1-5.32,2.252,25.558,25.558,0,0,1-5.9.7,29.2,29.2,0,0,1-9.282-1.515,19.5,19.5,0,0,1-7.572-4.466l7.146-7.533a14.267,14.267,0,0,0,4.194,3.106A11.64,11.64,0,0,0,108.522,106a6.925,6.925,0,0,0,3.067-.739,2.647,2.647,0,0,0,1.515-2.6,2.791,2.791,0,0,0-1.865-2.641,33.493,33.493,0,0,0-5.824-1.785,30.264,30.264,0,0,1-4.04-1.244,12.768,12.768,0,0,1-3.611-2.1,10.408,10.408,0,0,1-2.6-3.261,9.971,9.971,0,0,1-1.01-4.661,11.281,11.281,0,0,1,1.476-5.94,12.487,12.487,0,0,1,3.8-4,16.872,16.872,0,0,1,5.167-2.291A22.268,22.268,0,0,1,110.23,74a27.2,27.2,0,0,1,8.5,1.36,18.362,18.362,0,0,1,7.029,4.078Z" transform="translate(10.588 7.242)" fill="#fff"/>
    <path id="Path_245" data-name="Path 245" d="M138.891,119.756a6.587,6.587,0,0,1-.582,2.758,6.969,6.969,0,0,1-3.884,3.688,7.526,7.526,0,0,1-2.834.546,7.129,7.129,0,0,1-5.2-2.059,6.659,6.659,0,0,1-2.1-4.932,6.79,6.79,0,0,1,.543-2.679,6.318,6.318,0,0,1,1.554-2.213,8.326,8.326,0,0,1,2.33-1.516,7.051,7.051,0,0,1,2.874-.582,7.569,7.569,0,0,1,2.834.543,6.983,6.983,0,0,1,3.884,3.69A6.582,6.582,0,0,1,138.891,119.756Z" transform="translate(15.091 12.631)" fill="#9b0f31"/>
    <rect id="Rectangle_138" data-name="Rectangle 138" width="12.737" height="38.679" transform="translate(140.314 82.486)" fill="#fff"/>
    <path id="Path_246" data-name="Path 246" d="M167.825,113.9V92.777a17.138,17.138,0,0,0-.273-3.106,8.542,8.542,0,0,0-.893-2.6,4.667,4.667,0,0,0-1.747-1.787,5.543,5.543,0,0,0-2.835-.66,6.445,6.445,0,0,0-2.99.66,6.07,6.07,0,0,0-2.136,1.826,8.213,8.213,0,0,0-1.281,2.679,11.486,11.486,0,0,0-.428,3.145V113.9H142.427V75.225h12.348v5.358h.156a12.768,12.768,0,0,1,1.825-2.447,11.013,11.013,0,0,1,2.641-2.058,16.419,16.419,0,0,1,3.3-1.4,13.014,13.014,0,0,1,3.807-.546,14.315,14.315,0,0,1,6.6,1.4,12.649,12.649,0,0,1,4.389,3.611,14.278,14.278,0,0,1,2.408,5.089,23.029,23.029,0,0,1,.738,5.746V113.9Z" transform="translate(17.613 7.261)" fill="#fff"/>
    <path id="Path_247" data-name="Path 247" d="M218.945,95.048V96.6a14.068,14.068,0,0,1-.077,1.474H190.828a6.745,6.745,0,0,0,.972,2.953,8.347,8.347,0,0,0,2.1,2.291,10.285,10.285,0,0,0,6.173,2.057,10.7,10.7,0,0,0,5.126-1.125,10.129,10.129,0,0,0,3.418-2.912l8.854,5.591a17.928,17.928,0,0,1-7.185,6.1,23.792,23.792,0,0,1-10.368,2.136,24.735,24.735,0,0,1-8.232-1.36,19.975,19.975,0,0,1-6.8-3.962,18.322,18.322,0,0,1-4.582-6.406,21.454,21.454,0,0,1-1.671-8.7,21.735,21.735,0,0,1,1.632-8.581,19.362,19.362,0,0,1,4.427-6.524,19.744,19.744,0,0,1,6.6-4.156A22.6,22.6,0,0,1,199.528,74a20.854,20.854,0,0,1,7.843,1.437,17.093,17.093,0,0,1,6.137,4.156,19.231,19.231,0,0,1,4,6.6A25.43,25.43,0,0,1,218.945,95.048Zm-11.729-4.892a7.631,7.631,0,0,0-1.9-5.2,7.185,7.185,0,0,0-5.708-2.174,9.664,9.664,0,0,0-3.418.582,8.92,8.92,0,0,0-2.719,1.592,7.9,7.9,0,0,0-1.862,2.369,6.9,6.9,0,0,0-.778,2.835Z" transform="translate(22.646 7.242)" fill="#fff"/>
    <path id="Path_248" data-name="Path 248" d="M241.511,86.661a14.162,14.162,0,0,0-3.649-2.485,10.082,10.082,0,0,0-4.427-1.011,7.763,7.763,0,0,0-3.3.7,2.451,2.451,0,0,0-1.515,2.408,2.4,2.4,0,0,0,1.671,2.33,36.36,36.36,0,0,0,5.4,1.552,29.241,29.241,0,0,1,4.389,1.32,15.526,15.526,0,0,1,4,2.253,10.814,10.814,0,0,1,2.873,3.417,10.021,10.021,0,0,1,1.087,4.815,11.583,11.583,0,0,1-5.319,10.252,16.554,16.554,0,0,1-5.32,2.252,25.558,25.558,0,0,1-5.9.7,29.194,29.194,0,0,1-9.282-1.515,19.488,19.488,0,0,1-7.572-4.466l7.145-7.533a14.288,14.288,0,0,0,4.2,3.106,11.639,11.639,0,0,0,5.28,1.244,6.918,6.918,0,0,0,3.067-.739,2.646,2.646,0,0,0,1.516-2.6,2.791,2.791,0,0,0-1.865-2.641,33.481,33.481,0,0,0-5.825-1.785,30.3,30.3,0,0,1-4.039-1.244,12.736,12.736,0,0,1-3.611-2.1,10.377,10.377,0,0,1-2.6-3.261,9.971,9.971,0,0,1-1.01-4.661,11.282,11.282,0,0,1,1.476-5.94,12.474,12.474,0,0,1,3.8-4,16.86,16.86,0,0,1,5.167-2.291,22.261,22.261,0,0,1,5.63-.739,27.205,27.205,0,0,1,8.5,1.36,18.363,18.363,0,0,1,7.029,4.078Z" transform="translate(27.651 7.242)" fill="#fff"/>
    <path id="Path_249" data-name="Path 249" d="M270.967,86.661a14.162,14.162,0,0,0-3.649-2.485,10.083,10.083,0,0,0-4.427-1.011,7.759,7.759,0,0,0-3.3.7,2.451,2.451,0,0,0-1.515,2.408,2.4,2.4,0,0,0,1.671,2.33,36.36,36.36,0,0,0,5.4,1.552,29.243,29.243,0,0,1,4.389,1.32,15.526,15.526,0,0,1,4,2.253,10.816,10.816,0,0,1,2.873,3.417,10.022,10.022,0,0,1,1.087,4.815,11.583,11.583,0,0,1-5.319,10.252,16.554,16.554,0,0,1-5.32,2.252,25.558,25.558,0,0,1-5.9.7,29.194,29.194,0,0,1-9.282-1.515,19.487,19.487,0,0,1-7.572-4.466l7.145-7.533a14.287,14.287,0,0,0,4.2,3.106A11.632,11.632,0,0,0,260.715,106a6.918,6.918,0,0,0,3.067-.739,2.647,2.647,0,0,0,1.516-2.6,2.791,2.791,0,0,0-1.865-2.641,33.482,33.482,0,0,0-5.825-1.785,30.3,30.3,0,0,1-4.039-1.244,12.737,12.737,0,0,1-3.611-2.1,10.376,10.376,0,0,1-2.6-3.261,9.971,9.971,0,0,1-1.011-4.661,11.281,11.281,0,0,1,1.477-5.94,12.474,12.474,0,0,1,3.8-4,16.86,16.86,0,0,1,5.167-2.291,22.261,22.261,0,0,1,5.63-.739,27.206,27.206,0,0,1,8.5,1.36,18.362,18.362,0,0,1,7.029,4.078Z" transform="translate(31.746 7.242)" fill="#fff"/>
    <path id="Path_250" data-name="Path 250" d="M168.37,151.578V130.452a17.163,17.163,0,0,0-.273-3.107,8.554,8.554,0,0,0-.893-2.6,4.675,4.675,0,0,0-1.747-1.787,5.543,5.543,0,0,0-2.835-.659,6.445,6.445,0,0,0-2.99.659,6.081,6.081,0,0,0-2.136,1.826,8.229,8.229,0,0,0-1.28,2.68,11.438,11.438,0,0,0-.429,3.145v20.97H142.972V112.9H155.32v5.359h.156a12.734,12.734,0,0,1,1.825-2.447,11.014,11.014,0,0,1,2.641-2.058,16.385,16.385,0,0,1,3.3-1.4,13.02,13.02,0,0,1,3.807-.544,14.308,14.308,0,0,1,6.6,1.4,12.642,12.642,0,0,1,4.387,3.611,14.268,14.268,0,0,1,2.408,5.089,23.022,23.022,0,0,1,.738,5.746v23.922Z" transform="translate(17.688 12.499)" fill="#fff"/>
    <path id="Path_251" data-name="Path 251" d="M206.408,151.445v-5.358h-.155a11.012,11.012,0,0,1-1.826,2.484,11.533,11.533,0,0,1-2.64,2.021,16.3,16.3,0,0,1-3.341,1.4,13.407,13.407,0,0,1-3.844.543,14.073,14.073,0,0,1-6.563-1.4,12.723,12.723,0,0,1-4.35-3.613,14.212,14.212,0,0,1-2.408-5.048,22.907,22.907,0,0,1-.737-5.785V112.766h12.814v20.972a19.955,19.955,0,0,0,.233,3.106,7.7,7.7,0,0,0,.894,2.64,4.93,4.93,0,0,0,1.746,1.826,5.5,5.5,0,0,0,2.875.659,5.832,5.832,0,0,0,5.088-2.485,9.87,9.87,0,0,0,1.746-5.824V112.766h12.739v38.679Z" transform="translate(22.911 12.631)" fill="#fff"/>
  </g>
</svg>
