<svg xmlns="http://www.w3.org/2000/svg" width="27.533" height="27.528" viewBox="0 0 27.533 27.528">
  <path id="_6249783011585492607" data-name="6249783011585492607" d="M24.256,0H3.278A3.278,3.278,0,0,0,0,3.278V19.011a3.278,3.278,0,0,0,3.278,3.278H6.556v3.933a1.311,1.311,0,0,0,2.235.924l4.858-4.858H24.256a3.278,3.278,0,0,0,3.278-3.278V3.278A3.278,3.278,0,0,0,24.256,0ZM16.389,15.406H7.867a1.311,1.311,0,1,1,0-2.622h8.522a1.311,1.311,0,0,1,0,2.622Zm3.278-5.9H7.867a1.311,1.311,0,1,1,0-2.622h11.8a1.311,1.311,0,0,1,0,2.622Z" fill="#b13250"/>
</svg>
