<svg width="197" height="76" viewBox="0 0 197 76" fill="none" xmlns="http://www.w3.org/2000/svg">
<path d="M13.362 31.32C11.1967 31.32 9.29799 30.7867 7.66599 29.72C6.03399 28.6533 4.76466 27.192 3.85799 25.336C2.95133 23.48 2.49799 21.368 2.49799 19C2.49799 16.6213 2.95133 14.5093 3.85799 12.664C4.76466 10.808 6.03399 9.34667 7.66599 8.28C9.29799 7.21333 11.1967 6.68 13.362 6.68C14.4393 6.68 15.458 6.86667 16.418 7.24C17.378 7.61333 18.21 8.136 18.914 8.808L20.706 7H21.042V13.56H20.674C20.642 12.2907 20.29 11.176 19.618 10.216C18.9567 9.24533 18.098 8.49333 17.042 7.96C15.9967 7.416 14.8767 7.144 13.682 7.144C12.2953 7.144 11.1167 7.48533 10.146 8.168C9.18599 8.85067 8.41266 9.76267 7.82599 10.904C7.24999 12.0347 6.82866 13.304 6.56199 14.712C6.29533 16.12 6.16199 17.5493 6.16199 19C6.16199 20.4507 6.29533 21.88 6.56199 23.288C6.82866 24.696 7.24999 25.9707 7.82599 27.112C8.41266 28.2427 9.18599 29.1493 10.146 29.832C11.1167 30.5147 12.2953 30.856 13.682 30.856C14.77 30.856 15.7513 30.6907 16.626 30.36C17.5113 30.0187 18.274 29.5547 18.914 28.968C19.5647 28.3707 20.066 27.688 20.418 26.92C20.7807 26.1413 20.9727 25.3147 20.994 24.44H21.362V31H21.026L19.394 29.064C18.6793 29.7573 17.8047 30.3067 16.77 30.712C15.7353 31.1173 14.5993 31.32 13.362 31.32ZM45.3575 7V7.352H42.4775V30.648H45.3575V31H36.2375V30.648H39.4375V19.336H28.8935V30.648H32.0775V31H22.9575V30.648H25.8375V7.352H22.9575V7H32.0775V7.352H28.8935V18.984H39.4375V7.352H36.2375V7H45.3575ZM51.7575 18.824V18.6H56.5575C57.5815 18.6 58.4508 18.3813 59.1655 17.944C59.8908 17.496 60.4402 16.856 60.8135 16.024C61.1868 15.192 61.3735 14.1947 61.3735 13.032C61.3735 11.8693 61.1868 10.8667 60.8135 10.024C60.4402 9.17067 59.8908 8.51467 59.1655 8.056C58.4508 7.58667 57.5815 7.352 56.5575 7.352H45.9975V7H56.5575C58.1682 7 59.5708 7.21333 60.7655 7.64C61.9708 8.06667 62.9042 8.728 63.5655 9.624C64.2268 10.5093 64.5575 11.6453 64.5575 13.032C64.5575 14.4187 64.2482 15.5387 63.6295 16.392C63.0108 17.2453 62.1042 17.864 60.9095 18.248C59.7255 18.632 58.2748 18.824 56.5575 18.824H51.7575ZM45.9975 31V30.648H56.0935V31H45.9975ZM49.5175 30.808V7.24H52.5575V30.808H49.5175ZM64.3975 31.16C63.4695 31.16 62.7442 30.9893 62.2215 30.648C61.7095 30.3067 61.3362 29.848 61.1015 29.272C60.8668 28.6853 60.7175 28.0293 60.6535 27.304C60.6002 26.5787 60.5682 25.832 60.5575 25.064C60.5468 24.296 60.5042 23.5493 60.4295 22.824C60.3548 22.0987 60.1895 21.448 59.9335 20.872C59.6775 20.2853 59.2668 19.8213 58.7015 19.48C58.1468 19.1387 57.3788 18.968 56.3975 18.968H51.7575V18.76H57.0375C58.5842 18.76 59.8108 18.9787 60.7175 19.416C61.6348 19.8427 62.3175 20.4133 62.7655 21.128C63.2242 21.832 63.5335 22.6107 63.6935 23.464C63.8535 24.3067 63.9388 25.1547 63.9495 26.008C63.9602 26.8507 63.9762 27.6293 63.9975 28.344C64.0295 29.0587 64.1468 29.6347 64.3495 30.072C64.5522 30.4987 64.9255 30.712 65.4695 30.712C65.8108 30.712 66.1202 30.6747 66.3975 30.6C66.6748 30.5253 66.9255 30.4347 67.1495 30.328L67.2775 30.664C67.0215 30.8027 66.6428 30.92 66.1415 31.016C65.6508 31.112 65.0695 31.16 64.3975 31.16ZM67.725 31V30.648H71.245V7.352H67.725V7H78.125V7.352H74.285V30.648H78.125V31H67.725ZM87.4087 31.464C86.0007 31.464 84.8007 31.2507 83.8087 30.824C82.8274 30.3867 82.0114 29.7893 81.3607 29.032L79.7447 31.32H79.4247V24.744H79.7927C79.9634 25.6613 80.2354 26.504 80.6087 27.272C80.9821 28.04 81.4674 28.712 82.0647 29.288C82.6621 29.8533 83.3767 30.296 84.2087 30.616C85.0514 30.9253 86.0274 31.08 87.1367 31.08C88.2674 31.08 89.2487 30.8827 90.0807 30.488C90.9234 30.0933 91.5741 29.5173 92.0327 28.76C92.5021 27.992 92.7367 27.0587 92.7367 25.96C92.7367 25.0213 92.5021 24.2267 92.0327 23.576C91.5741 22.9253 90.9607 22.3653 90.1927 21.896C89.4354 21.416 88.5981 20.9733 87.6807 20.568C86.7634 20.152 85.8461 19.7253 84.9287 19.288C84.0221 18.84 83.1847 18.3227 82.4167 17.736C81.6594 17.1493 81.0461 16.4453 80.5767 15.624C80.1181 14.792 79.8887 13.784 79.8887 12.6C79.8887 11.416 80.1874 10.3813 80.7847 9.496C81.3927 8.61067 82.1981 7.92267 83.2007 7.432C84.2141 6.93067 85.3181 6.68 86.5127 6.68C87.5901 6.68 88.5661 6.85067 89.4407 7.192C90.3261 7.52267 91.0834 8.04 91.7127 8.744L93.3127 6.68H93.6327V13.256H93.2807C93.0674 11.848 92.6621 10.6907 92.0647 9.784C91.4674 8.87733 90.7207 8.20533 89.8247 7.768C88.9287 7.33067 87.9314 7.112 86.8327 7.112C85.2967 7.112 84.1341 7.48533 83.3447 8.232C82.5554 8.968 82.1607 9.94933 82.1607 11.176C82.1607 12.0187 82.3847 12.7333 82.8327 13.32C83.2914 13.9067 83.8941 14.424 84.6407 14.872C85.3874 15.32 86.2087 15.7467 87.1047 16.152C88.0114 16.5467 88.9127 16.9787 89.8087 17.448C90.7047 17.9067 91.5261 18.4507 92.2727 19.08C93.0194 19.7093 93.6221 20.472 94.0807 21.368C94.5394 22.2533 94.7687 23.3307 94.7687 24.6C94.7687 25.9867 94.4701 27.1973 93.8727 28.232C93.2754 29.256 92.4221 30.0507 91.3127 30.616C90.2141 31.1813 88.9127 31.464 87.4087 31.464ZM100.116 31V30.648H103.636V7.352H100.436C99.4978 7.352 98.7298 7.51733 98.1325 7.848C97.5352 8.17867 97.0712 8.648 96.7405 9.256C96.4098 9.864 96.1805 10.5893 96.0525 11.432C95.9245 12.264 95.8605 13.1867 95.8605 14.2H95.4925V7H114.82V14.2H114.452C114.452 13.1867 114.388 12.264 114.26 11.432C114.132 10.5893 113.898 9.864 113.556 9.256C113.226 8.648 112.762 8.17867 112.164 7.848C111.578 7.51733 110.815 7.352 109.876 7.352H106.676V30.648H110.196V31H100.116ZM115.439 31V30.648H118.959V7.352H115.439V7H125.839V7.352H121.999V30.648H125.839V31H115.439ZM130.079 7V30.648H133.903V31H126.479V30.648H129.711V7.352H126.479V7H130.079ZM149.007 7V7.352H145.631V31.32H145.151L129.823 7H133.503L145.263 26.088V7.352H141.503V7H149.007ZM155.516 23.368V23.016H165.804V23.368H155.516ZM161.468 6.536L169.82 30.648H172.22V31H162.94V30.648H166.316L159.948 10.904L153.052 30.648H156.684V31H149.644V30.648H152.652L161.1 6.536H161.468Z" fill="#22223A"/>
<path d="M96.8275 69V68.648H106.427C107.345 68.648 108.193 68.3813 108.971 67.848C109.75 67.3147 110.374 66.5733 110.843 65.624C111.313 64.664 111.547 63.5493 111.547 62.28C111.547 61.0107 111.313 59.976 110.843 59.176C110.374 58.376 109.75 57.7893 108.971 57.416C108.193 57.0427 107.345 56.856 106.427 56.856H102.587V56.616H106.763C108.267 56.616 109.649 56.8027 110.907 57.176C112.166 57.5387 113.174 58.136 113.931 58.968C114.689 59.7893 115.067 60.8933 115.067 62.28C115.067 64.68 114.326 66.4027 112.843 67.448C111.371 68.4827 109.345 69 106.763 69H96.8275ZM99.7075 68.856V45.144H102.763V68.856H99.7075ZM102.587 56.744V56.504H106.107C106.918 56.504 107.691 56.3333 108.427 55.992C109.163 55.64 109.761 55.08 110.219 54.312C110.689 53.544 110.923 52.5253 110.923 51.256C110.923 49.9867 110.689 48.9147 110.219 48.04C109.761 47.1547 109.163 46.488 108.427 46.04C107.691 45.5813 106.918 45.352 106.107 45.352H96.8275V45H106.107C108.529 45 110.465 45.4693 111.915 46.408C113.377 47.336 114.107 48.84 114.107 50.92C114.107 52.9893 113.419 54.4773 112.043 55.384C110.667 56.2907 108.689 56.744 106.107 56.744H102.587ZM128.689 45V45.352H125.489V63.56C125.329 64.1253 125.116 64.7707 124.849 65.496C124.582 66.2213 124.236 66.9253 123.809 67.608C123.393 68.2907 122.865 68.856 122.225 69.304C121.585 69.752 120.806 69.976 119.889 69.976C119.068 69.976 118.369 69.8 117.793 69.448C117.217 69.096 116.774 68.6533 116.465 68.12C116.166 67.5867 116.017 67.0533 116.017 66.52C116.017 66.072 116.102 65.6933 116.273 65.384C116.444 65.0747 116.668 64.84 116.945 64.68C117.222 64.52 117.521 64.44 117.841 64.44C118.108 64.44 118.38 64.504 118.657 64.632C118.934 64.76 119.169 64.9627 119.361 65.24C119.553 65.5173 119.649 65.8747 119.649 66.312C119.649 66.728 119.558 67.0693 119.377 67.336C119.196 67.6027 118.961 67.7947 118.673 67.912C118.396 68.0293 118.097 68.0773 117.777 68.056C117.542 68.0453 117.302 67.9653 117.057 67.816C116.812 67.656 116.646 67.4427 116.561 67.176C116.657 67.5707 116.844 67.9547 117.121 68.328C117.409 68.6907 117.772 68.9893 118.209 69.224C118.657 69.4587 119.169 69.576 119.745 69.576C120.513 69.576 121.089 69.3307 121.473 68.84C121.868 68.3493 122.129 67.6133 122.257 66.632C122.396 65.64 122.465 64.4027 122.465 62.92V45.352H118.305V45H128.689ZM133.666 72.2L147.538 42.424H147.89L134.018 72.2H133.666ZM140.322 69.32C138.7 69.32 137.255 69.0053 135.986 68.376C134.716 67.736 133.639 66.8507 132.754 65.72C131.879 64.5893 131.212 63.2827 130.754 61.8C130.306 60.3067 130.082 58.7067 130.082 57C130.082 55.2933 130.322 53.6987 130.802 52.216C131.292 50.7227 131.986 49.4107 132.882 48.28C133.778 47.1493 134.855 46.2693 136.114 45.64C137.372 45 138.775 44.68 140.322 44.68C141.868 44.68 143.266 45 144.514 45.64C145.772 46.2693 146.85 47.1493 147.746 48.28C148.652 49.4107 149.346 50.7227 149.826 52.216C150.306 53.6987 150.546 55.2933 150.546 57C150.546 58.7067 150.316 60.3067 149.858 61.8C149.41 63.2827 148.748 64.5893 147.874 65.72C146.999 66.8507 145.927 67.736 144.658 68.376C143.388 69.0053 141.943 69.32 140.322 69.32ZM140.322 68.984C141.719 68.984 142.844 68.6373 143.698 67.944C144.562 67.2507 145.223 66.328 145.682 65.176C146.151 64.024 146.466 62.7387 146.626 61.32C146.796 59.8907 146.882 58.4507 146.882 57C146.882 55.5493 146.78 54.1147 146.578 52.696C146.386 51.2667 146.05 49.976 145.57 48.824C145.09 47.672 144.423 46.7493 143.57 46.056C142.716 45.3627 141.634 45.016 140.322 45.016C139.01 45.016 137.927 45.3627 137.074 46.056C136.22 46.7493 135.548 47.672 135.058 48.824C134.578 49.976 134.236 51.2667 134.034 52.696C133.842 54.1147 133.746 55.5493 133.746 57C133.746 58.4507 133.831 59.8907 134.002 61.32C134.172 62.7387 134.487 64.024 134.946 65.176C135.404 66.328 136.066 67.2507 136.93 67.944C137.804 68.6373 138.935 68.984 140.322 68.984ZM157.707 56.824V56.6H162.507C163.531 56.6 164.401 56.3813 165.115 55.944C165.841 55.496 166.39 54.856 166.763 54.024C167.137 53.192 167.323 52.1947 167.323 51.032C167.323 49.8693 167.137 48.8667 166.763 48.024C166.39 47.1707 165.841 46.5147 165.115 46.056C164.401 45.5867 163.531 45.352 162.507 45.352H151.947V45H162.507C164.118 45 165.521 45.2133 166.715 45.64C167.921 46.0667 168.854 46.728 169.515 47.624C170.177 48.5093 170.507 49.6453 170.507 51.032C170.507 52.4187 170.198 53.5387 169.579 54.392C168.961 55.2453 168.054 55.864 166.859 56.248C165.675 56.632 164.225 56.824 162.507 56.824H157.707ZM151.947 69V68.648H162.043V69H151.947ZM155.467 68.808V45.24H158.507V68.808H155.467ZM170.347 69.16C169.419 69.16 168.694 68.9893 168.171 68.648C167.659 68.3067 167.286 67.848 167.051 67.272C166.817 66.6853 166.667 66.0293 166.603 65.304C166.55 64.5787 166.518 63.832 166.507 63.064C166.497 62.296 166.454 61.5493 166.379 60.824C166.305 60.0987 166.139 59.448 165.883 58.872C165.627 58.2853 165.217 57.8213 164.651 57.48C164.097 57.1387 163.329 56.968 162.347 56.968H157.707V56.76H162.987C164.534 56.76 165.761 56.9787 166.667 57.416C167.585 57.8427 168.267 58.4133 168.715 59.128C169.174 59.832 169.483 60.6107 169.643 61.464C169.803 62.3067 169.889 63.1547 169.899 64.008C169.91 64.8507 169.926 65.6293 169.947 66.344C169.979 67.0587 170.097 67.6347 170.299 68.072C170.502 68.4987 170.875 68.712 171.419 68.712C171.761 68.712 172.07 68.6747 172.347 68.6C172.625 68.5253 172.875 68.4347 173.099 68.328L173.227 68.664C172.971 68.8027 172.593 68.92 172.091 69.016C171.601 69.112 171.019 69.16 170.347 69.16ZM177.275 45V68.648H181.099V69H173.675V68.648H176.907V45.352H173.675V45H177.275ZM196.203 45V45.352H192.827V69.32H192.347L177.019 45H180.699L192.459 64.088V45.352H188.699V45H196.203Z" fill="#22223A"/>
</svg>
