<svg width="1920" height="1080" viewBox="0 0 1920 1080" fill="none" xmlns="http://www.w3.org/2000/svg">
<g clip-path="url(#clip0_1_1135)">
<rect width="1920" height="1080" fill="#F6F6F6"/>
<circle opacity="0.75" cx="1054" cy="540" r="500" fill="#C9AEA7"/>
<path opacity="0.75" d="M905.6 963.55C865.159 963.55 828.585 956.693 795.88 942.977C763.175 929.262 737.152 910.448 717.81 886.535C698.469 862.622 688.798 835.895 688.798 806.355C688.798 776.463 697.238 752.902 714.118 735.67C731.349 718.087 753.329 709.295 780.055 709.295C803.969 709.295 825.244 717.207 843.883 733.032C862.521 748.506 871.84 770.837 871.84 800.025C871.84 817.608 867.444 833.257 858.653 846.972C850.213 860.336 838.959 870.886 824.893 878.622C810.826 886.007 795.88 889.7 780.055 889.7C769.505 889.7 758.779 886.887 747.878 881.26C736.976 875.633 727.129 868.6 718.338 860.16C709.898 851.368 703.04 842.225 697.765 832.73C692.49 822.883 689.853 814.092 689.853 806.355H708.843C708.843 826.4 713.766 844.862 723.613 861.742C733.811 878.271 747.35 892.689 764.23 904.997C781.11 917.306 800.1 926.977 821.2 934.01C842.652 940.692 864.631 944.032 887.138 944.032C917.381 944.032 942.174 937.351 961.515 923.987C980.857 910.272 995.979 892.337 1006.88 870.182C1017.78 847.676 1025.34 823.235 1029.56 796.86C1034.13 770.133 1036.42 743.934 1036.42 718.262C1036.42 676.062 1030.62 639.137 1019.01 607.487C1007.76 575.486 991.583 550.517 970.483 532.582C949.383 514.296 924.59 505.152 896.105 505.152C872.192 505.152 851.444 509.021 833.86 516.757C816.277 524.494 801.859 533.989 790.605 545.242C779.352 556.144 770.912 566.518 765.285 576.365H746.295C751.922 563.353 762.472 548.935 777.945 533.11C793.77 516.933 815.574 503.042 843.355 491.437C871.137 479.481 906.304 473.502 948.855 473.502C999.495 473.502 1044.51 482.997 1083.9 501.987C1123.28 520.977 1154.05 548.583 1176.21 584.805C1198.71 621.027 1209.97 665.512 1209.97 718.262C1209.97 752.374 1202.23 784.376 1186.76 814.267C1171.64 844.159 1150.18 870.358 1122.4 892.865C1094.97 915.02 1062.8 932.427 1025.87 945.087C988.945 957.396 948.855 963.55 905.6 963.55ZM737.855 576.365V161.75H1154.05V104.252H1173.57V320H757.373V576.365H737.855Z" fill="#F6F6F6"/>
<path d="M253.88 479V477.224H282.68C285.432 477.224 287.976 476.488 290.312 475.016C292.648 473.544 294.52 471.432 295.928 468.68C297.336 465.928 298.04 462.648 298.04 458.84C298.04 455.032 297.336 451.96 295.928 449.624C294.52 447.256 292.648 445.544 290.312 444.488C287.976 443.432 285.432 442.904 282.68 442.904H271.16V441.752H283.688C288.2 441.752 292.344 442.312 296.12 443.432C299.896 444.552 302.92 446.36 305.192 448.856C307.464 451.352 308.6 454.68 308.6 458.84C308.6 466.04 306.376 471.208 301.928 474.344C297.512 477.448 291.432 479 283.688 479H253.88ZM262.52 478.328V407.672H271.688V478.328H262.52ZM271.16 442.328V441.128H281.72C284.152 441.128 286.472 440.648 288.68 439.688C290.888 438.728 292.68 437.128 294.056 434.888C295.464 432.616 296.168 429.576 296.168 425.768C296.168 421.96 295.464 418.808 294.056 416.312C292.68 413.784 290.888 411.896 288.68 410.648C286.472 409.4 284.152 408.776 281.72 408.776H253.88V407H281.72C288.984 407 294.792 408.408 299.144 411.224C303.528 414.008 305.72 418.52 305.72 424.76C305.72 430.968 303.656 435.448 299.528 438.2C295.4 440.952 289.464 442.328 281.72 442.328H271.16ZM331.092 442.76V441.704H345.493C348.565 441.704 351.173 441.08 353.316 439.832C355.493 438.552 357.141 436.696 358.261 434.264C359.381 431.8 359.941 428.824 359.941 425.336C359.941 421.848 359.381 418.872 358.261 416.408C357.141 413.912 355.493 412.024 353.316 410.744C351.173 409.432 348.565 408.776 345.493 408.776H313.812V407H345.493C350.325 407 354.533 407.672 358.117 409.016C361.733 410.328 364.533 412.344 366.517 415.064C368.501 417.752 369.493 421.176 369.493 425.336C369.493 429.496 368.565 432.856 366.709 435.416C364.853 437.976 362.133 439.848 358.549 441.032C354.997 442.184 350.645 442.76 345.493 442.76H331.092ZM313.812 479V477.224H344.101V479H313.812ZM324.372 478.04V408.2H333.493V478.04H324.372ZM369.013 479.48C366.229 479.48 364.052 478.984 362.484 477.992C360.948 476.968 359.829 475.608 359.125 473.912C358.421 472.184 357.973 470.248 357.781 468.104C357.621 465.96 357.525 463.752 357.493 461.48C357.461 459.208 357.333 457 357.109 454.856C356.885 452.712 356.389 450.792 355.621 449.096C354.853 447.368 353.621 446.008 351.925 445.016C350.261 443.992 347.957 443.48 345.013 443.48H331.092V442.52H346.933C351.541 442.52 355.189 443.16 357.877 444.44C360.597 445.688 362.645 447.352 364.021 449.432C365.397 451.512 366.325 453.8 366.805 456.296C367.285 458.76 367.541 461.24 367.573 463.736C367.605 466.2 367.669 468.472 367.764 470.552C367.893 472.632 368.245 474.296 368.821 475.544C369.429 476.792 370.549 477.416 372.181 477.416C373.205 477.416 374.101 477.32 374.868 477.128C375.669 476.904 376.389 476.632 377.029 476.312L377.653 477.992C376.885 478.408 375.733 478.76 374.197 479.048C372.693 479.336 370.965 479.48 369.013 479.48ZM380.026 479V477.224H390.586V408.776H380.026V407H411.226V408.776H399.706V477.224H411.226V479H380.026ZM425.748 407V477.224H437.124V479H414.084V477.224H423.924V408.776H414.084V407H425.748ZM482.34 407V408.776H472.212V479.96H469.764L424.452 407H435.492L470.388 464.168V408.776H459.3V407H482.34ZM524.916 450.632H550.884V452.648H545.076V463.16C544.372 464.664 543.332 466.376 541.956 468.296C540.58 470.216 538.82 472.072 536.676 473.864C534.564 475.624 532.02 477.08 529.044 478.232C526.068 479.384 522.628 479.96 518.724 479.96C512.068 479.96 506.42 478.36 501.78 475.16C497.14 471.96 493.604 467.576 491.172 462.008C488.74 456.44 487.524 450.104 487.524 443C487.524 437.656 488.292 432.744 489.828 428.264C491.396 423.752 493.62 419.832 496.5 416.504C499.38 413.176 502.82 410.6 506.82 408.776C510.82 406.952 515.252 406.04 520.116 406.04C523.284 406.04 526.308 406.6 529.188 407.72C532.1 408.808 534.644 410.328 536.82 412.28L541.909 407H543.493V426.68H541.669C541.573 423.832 540.948 421.272 539.796 419C538.644 416.728 537.092 414.792 535.14 413.192C533.22 411.56 531.044 410.312 528.612 409.448C526.212 408.584 523.7 408.152 521.076 408.152C516.916 408.152 513.38 409.144 510.468 411.128C507.588 413.08 505.268 415.72 503.508 419.048C501.78 422.376 500.516 426.12 499.716 430.28C498.916 434.408 498.516 438.648 498.516 443C498.516 447.352 498.804 451.624 499.38 455.816C499.988 459.976 501.028 463.752 502.5 467.144C504.004 470.504 506.068 473.176 508.692 475.16C511.316 477.144 514.66 478.136 518.724 478.136C521.7 478.136 524.18 477.672 526.164 476.744C528.18 475.816 529.78 474.696 530.964 473.384C532.18 472.072 533.108 470.808 533.748 469.592C534.388 468.376 534.82 467.512 535.045 467V452.648H524.916V450.632ZM602.514 480.392C599.538 480.392 596.85 479.896 594.45 478.904C592.082 477.912 589.938 476.584 588.018 474.92L576.834 479.96H575.154V454.52H576.978C578.226 457.176 579.602 459.912 581.106 462.728C582.61 465.512 584.338 468.12 586.29 470.552C588.242 472.952 590.498 474.904 593.058 476.408C595.65 477.88 598.658 478.616 602.082 478.616C604.77 478.616 607.074 478.088 608.994 477.032C610.914 475.976 612.386 474.568 613.41 472.808C614.466 471.048 614.994 469.112 614.994 467C614.994 464.6 614.29 462.616 612.882 461.048C611.474 459.48 609.618 458.136 607.314 457.016C605.01 455.896 602.466 454.808 599.682 453.752C596.93 452.696 594.162 451.512 591.378 450.2C588.626 448.856 586.098 447.192 583.794 445.208C581.49 443.224 579.634 440.744 578.226 437.768C576.818 434.76 576.114 431.064 576.114 426.68C576.114 422.2 577.202 418.424 579.378 415.352C581.554 412.28 584.37 409.96 587.826 408.392C591.314 406.824 594.994 406.04 598.866 406.04C601.426 406.04 603.826 406.456 606.066 407.288C608.306 408.088 610.37 409.24 612.258 410.744L623.058 406.04H624.546V429.608H622.722C620.802 425.448 618.754 421.736 616.578 418.472C614.402 415.176 611.906 412.584 609.09 410.696C606.306 408.808 603.042 407.864 599.298 407.864C596.258 407.864 593.874 408.728 592.146 410.456C590.418 412.152 589.554 414.36 589.554 417.08C589.554 419.224 590.258 421.032 591.666 422.504C593.074 423.976 594.93 425.304 597.234 426.488C599.538 427.64 602.066 428.792 604.818 429.944C607.602 431.096 610.37 432.392 613.122 433.832C615.874 435.272 618.402 437 620.706 439.016C623.01 441.032 624.866 443.496 626.274 446.408C627.682 449.288 628.386 452.792 628.386 456.92C628.386 461.72 627.17 465.88 624.738 469.4C622.306 472.888 619.122 475.592 615.186 477.512C611.25 479.432 607.026 480.392 602.514 480.392ZM643.197 479V477.224H653.757V408.776H651.645C649.341 408.776 647.181 409.384 645.165 410.6C643.149 411.784 641.325 413.432 639.693 415.544C638.061 417.656 636.637 420.088 635.421 422.84C634.237 425.56 633.277 428.44 632.541 431.48H630.669V407H697.438V431.48H695.661C694.957 428.44 693.997 425.56 692.781 422.84C691.566 420.088 690.142 417.656 688.51 415.544C686.878 413.432 685.053 411.784 683.037 410.6C681.021 409.384 678.861 408.776 676.557 408.776H674.397V477.224H684.958V479H643.197ZM734.266 479.96C728.922 479.96 724.122 479.048 719.866 477.224C715.61 475.4 711.978 472.824 708.97 469.496C705.962 466.168 703.658 462.264 702.058 457.784C700.49 453.272 699.706 448.344 699.706 443C699.706 437.656 700.538 432.744 702.202 428.264C703.866 423.752 706.234 419.832 709.306 416.504C712.378 413.176 716.026 410.6 720.25 408.776C724.474 406.952 729.146 406.04 734.266 406.04C739.386 406.04 744.058 406.952 748.282 408.776C752.506 410.6 756.154 413.176 759.226 416.504C762.298 419.832 764.666 423.752 766.33 428.264C767.994 432.744 768.826 437.656 768.826 443C768.826 448.344 768.026 453.272 766.426 457.784C764.858 462.264 762.57 466.168 759.562 469.496C756.554 472.824 752.922 475.4 748.666 477.224C744.41 479.048 739.61 479.96 734.266 479.96ZM734.266 478.28C736.762 478.28 738.794 477.496 740.362 475.928C741.93 474.36 743.146 472.056 744.01 469.016C744.874 465.976 745.466 462.28 745.786 457.928C746.106 453.544 746.266 448.568 746.266 443C746.266 437.432 746.058 432.472 745.642 428.12C745.226 423.736 744.554 420.024 743.626 416.984C742.73 413.944 741.514 411.64 739.978 410.072C738.442 408.504 736.538 407.72 734.266 407.72C732.026 407.72 730.122 408.504 728.554 410.072C727.018 411.64 725.786 413.944 724.858 416.984C723.962 420.024 723.306 423.736 722.89 428.12C722.474 432.472 722.266 437.432 722.266 443C722.266 448.568 722.426 453.544 722.746 457.928C723.066 462.28 723.658 465.976 724.522 469.016C725.386 472.056 726.602 474.36 728.17 475.928C729.738 477.496 731.77 478.28 734.266 478.28ZM788.442 442.232V441.128H801.834C804.906 441.128 807.434 440.632 809.418 439.64C811.402 438.616 812.874 436.92 813.834 434.552C814.794 432.152 815.274 428.888 815.274 424.76C815.274 420.632 814.794 417.416 813.834 415.112C812.874 412.776 811.402 411.144 809.418 410.216C807.434 409.256 804.906 408.776 801.834 408.776H771.066V407H806.634C812.426 407 817.562 407.624 822.042 408.872C826.522 410.088 830.042 412.008 832.602 414.632C835.162 417.224 836.442 420.6 836.442 424.76C836.442 428.92 835.226 432.28 832.794 434.84C830.394 437.4 826.954 439.272 822.474 440.456C818.026 441.64 812.746 442.232 806.634 442.232H788.442ZM771.066 479V477.224H809.034V479H771.066ZM779.754 478.04V407.72H800.394V478.04H779.754ZM830.154 479.96C826.41 479.96 823.45 479.448 821.274 478.424C819.098 477.368 817.482 475.96 816.426 474.2C815.37 472.44 814.666 470.472 814.314 468.296C813.994 466.088 813.818 463.816 813.786 461.48C813.786 459.112 813.722 456.84 813.594 454.664C813.466 452.456 813.082 450.472 812.442 448.712C811.802 446.952 810.682 445.56 809.082 444.536C807.514 443.48 805.258 442.952 802.314 442.952H788.442V441.992H815.754C820.042 441.992 823.418 442.632 825.882 443.912C828.378 445.16 830.218 446.84 831.402 448.952C832.586 451.032 833.354 453.32 833.706 455.816C834.058 458.28 834.218 460.76 834.186 463.256C834.154 465.752 834.17 468.04 834.234 470.12C834.298 472.2 834.634 473.88 835.242 475.16C835.882 476.44 837.05 477.08 838.746 477.08C839.77 477.08 840.73 476.968 841.626 476.744C842.522 476.488 843.306 476.2 843.978 475.88L844.554 477.608C843.786 478.024 842.106 478.52 839.514 479.096C836.922 479.672 833.802 479.96 830.154 479.96ZM843.936 479V477.224H854.544V408.776H843.936V407H886.704V408.776H875.184V477.224H886.704V479H843.936ZM886.525 479V477.224H895.213V408.776H886.525V407H945.613V426.68H943.837C942.877 423.256 941.309 420.2 939.133 417.512C936.957 414.792 934.301 412.664 931.165 411.128C928.061 409.56 924.637 408.776 920.893 408.776H915.853V477.224H919.933C924.317 477.224 928.189 476.424 931.549 474.824C934.941 473.192 937.757 470.904 939.997 467.96C942.237 464.984 943.837 461.464 944.797 457.4H946.573V479H886.525ZM930.349 455.192C929.389 453.048 928.141 451.016 926.605 449.096C925.069 447.176 923.373 445.624 921.517 444.44C919.693 443.224 917.869 442.616 916.045 442.616H913.165V440.888H916.045C917.869 440.888 919.693 440.344 921.517 439.256C923.373 438.136 925.069 436.648 926.605 434.792C928.141 432.936 929.389 430.936 930.349 428.792H932.173V455.192H930.349ZM977.671 480.392C974.695 480.392 972.007 479.896 969.607 478.904C967.239 477.912 965.095 476.584 963.175 474.92L951.991 479.96H950.311V454.52H952.135C953.383 457.176 954.759 459.912 956.263 462.728C957.767 465.512 959.495 468.12 961.447 470.552C963.399 472.952 965.655 474.904 968.215 476.408C970.807 477.88 973.815 478.616 977.239 478.616C979.927 478.616 982.231 478.088 984.151 477.032C986.071 475.976 987.543 474.568 988.567 472.808C989.623 471.048 990.151 469.112 990.151 467C990.151 464.6 989.447 462.616 988.039 461.048C986.631 459.48 984.775 458.136 982.471 457.016C980.167 455.896 977.623 454.808 974.839 453.752C972.087 452.696 969.319 451.512 966.535 450.2C963.783 448.856 961.255 447.192 958.951 445.208C956.647 443.224 954.791 440.744 953.383 437.768C951.975 434.76 951.271 431.064 951.271 426.68C951.271 422.2 952.359 418.424 954.535 415.352C956.711 412.28 959.527 409.96 962.983 408.392C966.471 406.824 970.151 406.04 974.023 406.04C976.583 406.04 978.983 406.456 981.223 407.288C983.463 408.088 985.527 409.24 987.415 410.744L998.215 406.04H999.703V429.608H997.879C995.959 425.448 993.911 421.736 991.735 418.472C989.559 415.176 987.063 412.584 984.247 410.696C981.463 408.808 978.199 407.864 974.455 407.864C971.415 407.864 969.031 408.728 967.303 410.456C965.575 412.152 964.711 414.36 964.711 417.08C964.711 419.224 965.415 421.032 966.823 422.504C968.231 423.976 970.087 425.304 972.391 426.488C974.695 427.64 977.223 428.792 979.975 429.944C982.759 431.096 985.527 432.392 988.279 433.832C991.031 435.272 993.559 437 995.863 439.016C998.167 441.032 1000.02 443.496 1001.43 446.408C1002.84 449.288 1003.54 452.792 1003.54 456.92C1003.54 461.72 1002.33 465.88 999.895 469.4C997.463 472.888 994.279 475.592 990.343 477.512C986.407 479.432 982.183 480.392 977.671 480.392ZM1042.64 479V477.224H1053.2V408.776H1043.6C1040.79 408.776 1038.5 409.24 1036.74 410.168C1035.01 411.064 1033.67 412.376 1032.71 414.104C1031.78 415.832 1031.14 417.928 1030.79 420.392C1030.43 422.824 1030.26 425.56 1030.26 428.6H1028.43V407H1087.09V428.6H1085.31C1085.31 425.56 1085.14 422.824 1084.79 420.392C1084.43 417.928 1083.78 415.832 1082.82 414.104C1081.86 412.376 1080.5 411.064 1078.74 410.168C1077.01 409.24 1074.74 408.776 1071.92 408.776H1062.32V477.224H1072.88V479H1042.64ZM1123.03 479.96C1118.17 479.96 1113.83 479.016 1110.03 477.128C1106.22 475.208 1102.99 472.552 1100.33 469.16C1097.71 465.768 1095.71 461.848 1094.33 457.4C1092.99 452.92 1092.31 448.12 1092.31 443C1092.31 437.88 1093.03 433.096 1094.47 428.648C1095.95 424.168 1098.03 420.232 1100.71 416.84C1103.4 413.448 1106.63 410.808 1110.41 408.92C1114.19 407 1118.39 406.04 1123.03 406.04C1127.67 406.04 1131.87 407 1135.61 408.92C1139.39 410.808 1142.62 413.448 1145.31 416.84C1148.03 420.232 1150.11 424.168 1151.55 428.648C1152.99 433.096 1153.71 437.88 1153.71 443C1153.71 448.12 1153.02 452.92 1151.64 457.4C1150.3 461.848 1148.31 465.768 1145.69 469.16C1143.07 472.552 1139.85 475.208 1136.04 477.128C1132.23 479.016 1127.9 479.96 1123.03 479.96ZM1123.03 478.328C1127.23 478.328 1130.6 477.336 1133.16 475.352C1135.75 473.336 1137.74 470.632 1139.11 467.24C1140.52 463.848 1141.47 460.056 1141.95 455.864C1142.46 451.64 1142.71 447.352 1142.71 443C1142.71 438.648 1142.41 434.376 1141.8 430.184C1141.23 425.96 1140.22 422.152 1138.78 418.76C1137.34 415.368 1135.34 412.68 1132.78 410.696C1130.22 408.68 1126.97 407.672 1123.03 407.672C1119.1 407.672 1115.85 408.68 1113.29 410.696C1110.73 412.68 1108.71 415.368 1107.24 418.76C1105.8 422.152 1104.78 425.96 1104.17 430.184C1103.59 434.376 1103.31 438.648 1103.31 443C1103.31 447.352 1103.56 451.64 1104.07 455.864C1104.59 460.056 1105.53 463.848 1106.91 467.24C1108.28 470.632 1110.27 473.336 1112.86 475.352C1115.48 477.336 1118.87 478.328 1123.03 478.328ZM253.88 594V592.224H262.52V523.776H253.88V522H280.28V523.776H271.688V592.224H286.52C290.296 592.224 293.32 591.776 295.592 590.88C297.896 589.952 299.624 588.624 300.776 586.896C301.96 585.168 302.744 583.088 303.128 580.656C303.544 578.192 303.752 575.44 303.752 572.4H305.528V594H253.88ZM308.656 594V592.224H319.216V523.776H308.656V522H339.856V523.776H328.336V592.224H339.856V594H308.656ZM411.018 522V523.776H402.714L376.986 595.392H374.922L350.01 523.776H342.714V522H370.554V523.776H360.57L379.674 582.768L400.65 523.776H388.842V522H411.018ZM413.896 594V592.224H422.536V523.776H413.896V522H465.064V541.68H463.336C463.336 538.256 462.84 535.2 461.848 532.512C460.856 529.792 459.24 527.664 457 526.128C454.76 524.56 451.768 523.776 448.024 523.776H431.704V592.224H447.016C451.4 592.224 454.84 591.424 457.336 589.824C459.864 588.192 461.656 585.904 462.712 582.96C463.768 579.984 464.296 576.464 464.296 572.4H466.024V594H413.896ZM447.016 567.264C447.016 565.12 446.6 563.344 445.768 561.936C444.936 560.496 443.784 559.424 442.312 558.72C440.872 558.016 439.24 557.664 437.416 557.664H429.304V555.888H437.416C439.24 555.888 440.872 555.568 442.312 554.928C443.784 554.288 444.936 553.296 445.768 551.952C446.6 550.576 447.016 548.816 447.016 546.672H448.744V567.264H447.016ZM509.053 571.44V569.664H540.109V571.44H509.053ZM527.149 520.608L551.965 592.224H559.405V594H531.565V592.224H541.453L522.541 533.712L502.141 592.224H512.413V594H491.293V592.224H500.125L525.325 520.608H527.149ZM573.952 522V592.224H585.328V594H562.288V592.224H572.128V523.776H562.288V522H573.952ZM630.544 522V523.776H620.416V594.96H617.968L572.656 522H583.696L618.592 579.168V523.776H607.504V522H630.544ZM660.256 522C667.392 522 673.536 523.584 678.688 526.752C683.84 529.888 687.808 534.176 690.592 539.616C693.408 545.056 694.816 551.184 694.816 558C694.816 563.12 693.984 567.872 692.32 572.256C690.656 576.608 688.288 580.416 685.216 583.68C682.144 586.944 678.496 589.488 674.272 591.312C670.048 593.104 665.376 594 660.256 594H633.376V592.224H642.016V523.776H633.376V522H660.256ZM651.184 592.224H660.256C664.672 592.224 668.384 591.28 671.392 589.392C674.4 587.504 676.816 584.944 678.64 581.712C680.464 578.448 681.776 574.768 682.576 570.672C683.376 566.576 683.776 562.352 683.776 558C683.776 553.648 683.328 549.424 682.432 545.328C681.536 541.232 680.144 537.568 678.256 534.336C676.4 531.072 673.984 528.496 671.008 526.608C668.032 524.72 664.448 523.776 660.256 523.776H651.184V592.224ZM756.029 594.96L729.341 522H738.557L760.781 582L781.565 522H783.485L758.237 594.96H756.029ZM730.253 522V592.224H737.357V594H721.565V592.224H728.381V523.776H721.085V522H730.253ZM798.797 522V523.776H792.077V592.224H798.797V594H775.229V592.224H782.957V522H798.797ZM819.403 571.44V569.664H850.459V571.44H819.403ZM837.499 520.608L862.315 592.224H869.755V594H841.915V592.224H851.803L832.891 533.712L812.491 592.224H822.763V594H801.643V592.224H810.475L835.675 520.608H837.499ZM881.95 573.168L918.622 523.776H908.158V522H931.198V523.776H921.214L884.542 573.168H881.95ZM872.638 594V592.224H881.278V523.776H872.638V522H899.998V523.776H890.446V592.224H899.998V594H872.638ZM905.758 594V592.224H915.55L895.246 556.224L901.198 548.784L927.022 592.224H935.518V594H905.758ZM937.258 594V592.224H945.898V523.776H937.258V522H988.426V541.68H986.698C986.698 538.256 986.202 535.2 985.21 532.512C984.218 529.792 982.602 527.664 980.362 526.128C978.122 524.56 975.13 523.776 971.386 523.776H955.066V592.224H970.378C974.762 592.224 978.202 591.424 980.698 589.824C983.226 588.192 985.018 585.904 986.074 582.96C987.13 579.984 987.658 576.464 987.658 572.4H989.386V594H937.258ZM970.378 567.264C970.378 565.12 969.962 563.344 969.13 561.936C968.298 560.496 967.146 559.424 965.674 558.72C964.234 558.016 962.602 557.664 960.778 557.664H952.666V555.888H960.778C962.602 555.888 964.234 555.568 965.674 554.928C967.146 554.288 968.298 553.296 969.13 551.952C969.962 550.576 970.378 548.816 970.378 546.672H972.106V567.264H970.378ZM268.088 709V707.224H278.648V638.776H269.048C266.232 638.776 263.944 639.24 262.184 640.168C260.456 641.064 259.112 642.376 258.152 644.104C257.224 645.832 256.584 647.928 256.232 650.392C255.88 652.824 255.704 655.56 255.704 658.6H253.88V637H312.536V658.6H310.76C310.76 655.56 310.584 652.824 310.232 650.392C309.88 647.928 309.224 645.832 308.264 644.104C307.304 642.376 305.944 641.064 304.184 640.168C302.456 639.24 300.184 638.776 297.368 638.776H287.768V707.224H298.328V709H268.088ZM382.606 637V638.776H373.966V707.224H382.606V709H355.246V707.224H364.846V674.392H333.214V707.224H342.766V709H315.406V707.224H324.046V638.776H315.406V637H342.766V638.776H333.214V672.568H364.846V638.776H355.246V637H382.606ZM385.464 709V707.224H394.104V638.776H385.464V637H436.632V656.68H434.904C434.904 653.256 434.408 650.2 433.416 647.512C432.424 644.792 430.808 642.664 428.568 641.128C426.328 639.56 423.336 638.776 419.592 638.776H403.272V707.224H418.584C422.968 707.224 426.408 706.424 428.904 704.824C431.432 703.192 433.224 700.904 434.28 697.96C435.336 694.984 435.864 691.464 435.864 687.4H437.592V709H385.464ZM418.584 682.264C418.584 680.12 418.168 678.344 417.336 676.936C416.504 675.496 415.352 674.424 413.88 673.72C412.44 673.016 410.808 672.664 408.984 672.664H400.872V670.888H408.984C410.808 670.888 412.44 670.568 413.88 669.928C415.352 669.288 416.504 668.296 417.336 666.952C418.168 665.576 418.584 663.816 418.584 661.672H420.312V682.264H418.584ZM476.684 709.96L449.996 637H459.212L481.436 697L502.22 637H504.14L478.892 709.96H476.684ZM450.908 637V707.224H458.012V709H442.22V707.224H449.036V638.776H441.74V637H450.908ZM519.452 637V638.776H512.732V707.224H519.452V709H495.884V707.224H503.612V637H519.452ZM570.154 710.392C566.026 710.392 562.458 709.752 559.45 708.472C556.442 707.192 553.93 705.432 551.914 703.192L547.402 709.96H545.866V690.232H547.642C548.154 692.888 548.97 695.32 550.09 697.528C551.21 699.736 552.65 701.672 554.41 703.336C556.202 704.968 558.33 706.248 560.794 707.176C563.258 708.072 566.09 708.52 569.29 708.52C572.682 708.52 575.626 707.944 578.122 706.792C580.618 705.64 582.538 703.96 583.882 701.752C585.226 699.544 585.898 696.856 585.898 693.688C585.898 690.872 585.21 688.504 583.834 686.584C582.458 684.632 580.618 682.952 578.314 681.544C576.042 680.104 573.546 678.776 570.826 677.56C568.106 676.344 565.37 675.08 562.618 673.768C559.898 672.456 557.386 670.936 555.082 669.208C552.81 667.448 550.986 665.336 549.61 662.872C548.234 660.376 547.546 657.352 547.546 653.8C547.546 650.248 548.442 647.144 550.234 644.488C552.026 641.832 554.426 639.768 557.434 638.296C560.474 636.792 563.818 636.04 567.466 636.04C570.634 636.04 573.546 636.552 576.202 637.576C578.858 638.568 581.162 640.088 583.114 642.136L587.626 636.04H589.114V655.768H587.386C586.746 651.736 585.546 648.408 583.786 645.784C582.026 643.16 579.834 641.224 577.21 639.976C574.586 638.696 571.642 638.056 568.378 638.056C563.802 638.056 560.33 639.144 557.962 641.32C555.626 643.464 554.458 646.328 554.458 649.912C554.458 652.44 555.13 654.584 556.474 656.344C557.85 658.104 559.658 659.656 561.898 661C564.138 662.312 566.602 663.56 569.29 664.744C571.978 665.928 574.666 667.208 577.354 668.584C580.042 669.928 582.506 671.544 584.746 673.432C586.986 675.288 588.778 677.544 590.122 680.2C591.498 682.824 592.186 686.024 592.186 689.8C592.186 693.96 591.29 697.592 589.498 700.696C587.706 703.768 585.162 706.152 581.866 707.848C578.57 709.544 574.666 710.392 570.154 710.392ZM662.956 637V638.776H654.316V707.224H662.956V709H635.596V707.224H645.196V674.392H613.564V707.224H623.116V709H595.756V707.224H604.396V638.776H595.756V637H623.116V638.776H613.564V672.568H645.196V638.776H635.596V637H662.956ZM665.814 709V707.224H676.374V638.776H665.814V637H697.014V638.776H685.494V707.224H697.014V709H665.814ZM711.535 637V707.224H722.911V709H699.871V707.224H709.711V638.776H699.871V637H711.535ZM768.127 637V638.776H757.999V709.96H755.551L710.239 637H721.279L756.175 694.168V638.776H745.087V637H768.127ZM770.96 709V707.224H779.6V638.776H770.96V637H822.128V656.68H820.4C820.4 653.256 819.904 650.2 818.912 647.512C817.92 644.792 816.304 642.664 814.064 641.128C811.824 639.56 808.832 638.776 805.088 638.776H788.768V707.224H804.08C808.464 707.224 811.904 706.424 814.4 704.824C816.928 703.192 818.72 700.904 819.776 697.96C820.832 694.984 821.36 691.464 821.36 687.4H823.088V709H770.96ZM804.08 682.264C804.08 680.12 803.664 678.344 802.832 676.936C802 675.496 800.848 674.424 799.376 673.72C797.936 673.016 796.304 672.664 794.48 672.664H786.368V670.888H794.48C796.304 670.888 797.936 670.568 799.376 669.928C800.848 669.288 802 668.296 802.832 666.952C803.664 665.576 804.08 663.816 804.08 661.672H805.808V682.264H804.08Z" fill="#22223A"/>
</g>
<defs>
<clipPath id="clip0_1_1135">
<rect width="1920" height="1080" fill="white"/>
</clipPath>
</defs>
</svg>
