<svg width="1920" height="1080" viewBox="0 0 1920 1080" fill="none" xmlns="http://www.w3.org/2000/svg">
<g opacity="0.25">
<rect width="1920" height="1080" fill="#9A8C99"/>
</g>
<path d="M888.741 947.725V181.267H769.526V161.75H1052.27V947.725H888.741ZM751.591 953V933.482H1168.32V953H751.591Z" fill="#9A8C99"/>
<path opacity="0.75" d="M610 90L1310 540L610 990V90Z" fill="#F2E9E4"/>
<path d="M288.824 479.96L262.136 407H271.352L293.576 467L314.36 407H316.28L291.032 479.96H288.824ZM263.048 407V477.224H270.152V479H254.36V477.224H261.176V408.776H253.88V407H263.048ZM331.592 407V408.776H324.872V477.224H331.592V479H308.024V477.224H315.752V407H331.592ZM352.198 456.44V454.664H383.254V456.44H352.198ZM370.294 405.608L395.11 477.224H402.55V479H374.71V477.224H384.598L365.686 418.712L345.286 477.224H355.558V479H334.438V477.224H343.27L368.47 405.608H370.294ZM414.745 458.168L451.417 408.776H440.953V407H463.993V408.776H454.009L417.337 458.168H414.745ZM405.433 479V477.224H414.073V408.776H405.433V407H432.793V408.776H423.241V477.224H432.793V479H405.433ZM438.553 479V477.224H448.345L428.041 441.224L433.993 433.784L459.817 477.224H468.313V479H438.553ZM470.053 479V477.224H478.693V408.776H470.053V407H521.221V426.68H519.493C519.493 423.256 518.997 420.2 518.005 417.512C517.013 414.792 515.397 412.664 513.157 411.128C510.917 409.56 507.925 408.776 504.181 408.776H487.861V477.224H503.173C507.557 477.224 510.997 476.424 513.493 474.824C516.021 473.192 517.813 470.904 518.869 467.96C519.925 464.984 520.453 461.464 520.453 457.4H522.181V479H470.053ZM503.173 452.264C503.173 450.12 502.757 448.344 501.925 446.936C501.093 445.496 499.941 444.424 498.469 443.72C497.029 443.016 495.397 442.664 493.573 442.664H485.461V440.888H493.573C495.397 440.888 497.029 440.568 498.469 439.928C499.941 439.288 501.093 438.296 501.925 436.952C502.757 435.576 503.173 433.816 503.173 431.672H504.901V452.264H503.173ZM547.449 479V477.224H556.089V408.776H547.449V407H598.617V426.68H596.889C596.889 423.256 596.393 420.2 595.401 417.512C594.409 414.792 592.793 412.664 590.553 411.128C588.313 409.56 585.321 408.776 581.577 408.776H565.257V477.224H580.569C584.953 477.224 588.393 476.424 590.889 474.824C593.417 473.192 595.209 470.904 596.265 467.96C597.321 464.984 597.849 461.464 597.849 457.4H599.577V479H547.449ZM580.569 452.264C580.569 450.12 580.153 448.344 579.321 446.936C578.489 445.496 577.337 444.424 575.865 443.72C574.425 443.016 572.793 442.664 570.969 442.664H562.857V440.888H570.969C572.793 440.888 574.425 440.568 575.865 439.928C577.337 439.288 578.489 438.296 579.321 436.952C580.153 435.576 580.569 433.816 580.569 431.672H582.297V452.264H580.569ZM621.485 456.44V454.664H652.541V456.44H621.485ZM639.581 405.608L664.397 477.224H671.837V479H643.997V477.224H653.885L634.973 418.712L614.573 477.224H624.845V479H603.725V477.224H612.557L637.757 405.608H639.581ZM709.664 479.96C703.168 479.96 697.472 478.36 692.576 475.16C687.68 471.96 683.872 467.576 681.152 462.008C678.432 456.44 677.072 450.104 677.072 443C677.072 435.864 678.432 429.528 681.152 423.992C683.872 418.424 687.68 414.04 692.576 410.84C697.472 407.64 703.168 406.04 709.664 406.04C712.864 406.04 715.904 406.6 718.784 407.72C721.696 408.808 724.24 410.344 726.416 412.328L731.456 407H733.04V426.68H731.216C731.088 422.936 730.032 419.672 728.048 416.888C726.064 414.104 723.536 411.96 720.464 410.456C717.392 408.92 714.112 408.152 710.624 408.152C706.464 408.152 702.928 409.144 700.016 411.128C697.136 413.08 694.816 415.72 693.056 419.048C691.328 422.376 690.064 426.12 689.264 430.28C688.464 434.408 688.064 438.648 688.064 443C688.064 447.352 688.464 451.608 689.264 455.768C690.064 459.896 691.328 463.624 693.056 466.952C694.816 470.28 697.136 472.936 700.016 474.92C702.928 476.872 706.464 477.848 710.624 477.848C713.792 477.848 716.672 477.368 719.264 476.408C721.856 475.448 724.096 474.12 725.984 472.424C727.904 470.728 729.392 468.76 730.448 466.52C731.504 464.28 732.08 461.88 732.176 459.32H734V479H732.416L727.808 473.336C725.632 475.384 722.976 477 719.84 478.184C716.736 479.368 713.344 479.96 709.664 479.96ZM807.384 407V408.776H798.744V477.224H807.384V479H780.024V477.224H789.624V444.392H757.992V477.224H767.544V479H740.184V477.224H748.824V408.776H740.184V407H767.544V408.776H757.992V442.568H789.624V408.776H780.024V407H807.384ZM859.681 480.392C856.705 480.392 854.017 479.896 851.617 478.904C849.249 477.912 847.105 476.584 845.185 474.92L834.001 479.96H832.321V454.52H834.145C835.393 457.176 836.769 459.912 838.273 462.728C839.777 465.512 841.505 468.12 843.457 470.552C845.409 472.952 847.665 474.904 850.225 476.408C852.817 477.88 855.825 478.616 859.249 478.616C861.937 478.616 864.241 478.088 866.161 477.032C868.081 475.976 869.553 474.568 870.577 472.808C871.633 471.048 872.161 469.112 872.161 467C872.161 464.6 871.457 462.616 870.049 461.048C868.641 459.48 866.785 458.136 864.481 457.016C862.177 455.896 859.633 454.808 856.849 453.752C854.097 452.696 851.329 451.512 848.545 450.2C845.793 448.856 843.265 447.192 840.961 445.208C838.657 443.224 836.801 440.744 835.393 437.768C833.985 434.76 833.281 431.064 833.281 426.68C833.281 422.2 834.369 418.424 836.545 415.352C838.721 412.28 841.537 409.96 844.993 408.392C848.481 406.824 852.161 406.04 856.033 406.04C858.593 406.04 860.993 406.456 863.233 407.288C865.473 408.088 867.537 409.24 869.425 410.744L880.225 406.04H881.713V429.608H879.889C877.969 425.448 875.921 421.736 873.745 418.472C871.569 415.176 869.073 412.584 866.257 410.696C863.473 408.808 860.209 407.864 856.465 407.864C853.425 407.864 851.041 408.728 849.313 410.456C847.585 412.152 846.721 414.36 846.721 417.08C846.721 419.224 847.425 421.032 848.833 422.504C850.241 423.976 852.097 425.304 854.401 426.488C856.705 427.64 859.233 428.792 861.985 429.944C864.769 431.096 867.537 432.392 870.289 433.832C873.041 435.272 875.569 437 877.873 439.016C880.177 441.032 882.033 443.496 883.441 446.408C884.849 449.288 885.553 452.792 885.553 456.92C885.553 461.72 884.337 465.88 881.905 469.4C879.473 472.888 876.289 475.592 872.353 477.512C868.417 479.432 864.193 480.392 859.681 480.392ZM887.837 479V477.224H896.525V408.776H887.837V407H946.925V426.68H945.149C944.189 423.256 942.621 420.2 940.445 417.512C938.269 414.792 935.613 412.664 932.477 411.128C929.373 409.56 925.949 408.776 922.205 408.776H917.165V477.224H921.245C925.629 477.224 929.501 476.424 932.861 474.824C936.253 473.192 939.069 470.904 941.309 467.96C943.549 464.984 945.149 461.464 946.109 457.4H947.885V479H887.837ZM931.661 455.192C930.701 453.048 929.453 451.016 927.917 449.096C926.381 447.176 924.685 445.624 922.829 444.44C921.005 443.224 919.181 442.616 917.357 442.616H914.477V440.888H917.357C919.181 440.888 921.005 440.344 922.829 439.256C924.685 438.136 926.381 436.648 927.917 434.792C929.453 432.936 930.701 430.936 931.661 428.792H933.485V455.192H931.661ZM988.104 479.96C980.328 479.96 973.72 478.36 968.28 475.16C962.872 471.96 958.744 467.576 955.896 462.008C953.048 456.44 951.624 450.104 951.624 443C951.624 435.864 953.048 429.528 955.896 423.992C958.744 418.424 962.872 414.04 968.28 410.84C973.72 407.64 980.328 406.04 988.104 406.04C990.824 406.04 993.288 406.504 995.496 407.432C997.704 408.328 999.736 409.624 1001.59 411.32L1012.01 407H1013.54V429.608H1011.62C1009.42 425.416 1007.22 421.72 1005.05 418.52C1002.87 415.32 1000.5 412.84 997.944 411.08C995.416 409.288 992.456 408.392 989.064 408.392C986.088 408.392 983.624 409.368 981.672 411.32C979.752 413.24 978.248 415.848 977.16 419.144C976.072 422.44 975.304 426.152 974.856 430.28C974.408 434.376 974.184 438.616 974.184 443C974.184 447.352 974.408 451.592 974.856 455.72C975.304 459.848 976.072 463.56 977.16 466.856C978.248 470.152 979.752 472.776 981.672 474.728C983.624 476.648 986.088 477.608 989.064 477.608C992.2 477.608 994.904 477.064 997.176 475.976C999.48 474.888 1001.5 473.384 1003.22 471.464C1004.98 469.544 1006.62 467.304 1008.12 464.744C1009.62 462.152 1011.13 459.368 1012.63 456.392H1014.55V479H1012.92L1003.27 474.392C1001.26 476.184 999 477.56 996.504 478.52C994.04 479.48 991.24 479.96 988.104 479.96ZM1053.8 479.96C1048.46 479.96 1043.66 479.048 1039.4 477.224C1035.15 475.4 1031.52 472.824 1028.51 469.496C1025.5 466.168 1023.2 462.264 1021.6 457.784C1020.03 453.272 1019.24 448.344 1019.24 443C1019.24 437.656 1020.08 432.744 1021.74 428.264C1023.4 423.752 1025.77 419.832 1028.84 416.504C1031.92 413.176 1035.56 410.6 1039.79 408.776C1044.01 406.952 1048.68 406.04 1053.8 406.04C1058.92 406.04 1063.6 406.952 1067.82 408.776C1072.04 410.6 1075.69 413.176 1078.76 416.504C1081.84 419.832 1084.2 423.752 1085.87 428.264C1087.53 432.744 1088.36 437.656 1088.36 443C1088.36 448.344 1087.56 453.272 1085.96 457.784C1084.4 462.264 1082.11 466.168 1079.1 469.496C1076.09 472.824 1072.46 475.4 1068.2 477.224C1063.95 479.048 1059.15 479.96 1053.8 479.96ZM1053.8 478.28C1056.3 478.28 1058.33 477.496 1059.9 475.928C1061.47 474.36 1062.68 472.056 1063.55 469.016C1064.41 465.976 1065 462.28 1065.32 457.928C1065.64 453.544 1065.8 448.568 1065.8 443C1065.8 437.432 1065.6 432.472 1065.18 428.12C1064.76 423.736 1064.09 420.024 1063.16 416.984C1062.27 413.944 1061.05 411.64 1059.52 410.072C1057.98 408.504 1056.08 407.72 1053.8 407.72C1051.56 407.72 1049.66 408.504 1048.09 410.072C1046.56 411.64 1045.32 413.944 1044.4 416.984C1043.5 420.024 1042.84 423.736 1042.43 428.12C1042.01 432.472 1041.8 437.432 1041.8 443C1041.8 448.568 1041.96 453.544 1042.28 457.928C1042.6 462.28 1043.2 465.976 1044.06 469.016C1044.92 472.056 1046.14 474.36 1047.71 475.928C1049.28 477.496 1051.31 478.28 1053.8 478.28ZM1102.27 407V477.224H1113.16V479H1090.6V477.224H1100.44V408.776H1090.6V407H1102.27ZM1163.61 407V408.776H1153.53V479.96H1151.08L1101.02 407H1125.45L1151.71 444.728V408.776H1141.15V407H1163.61ZM1198.08 407C1206.18 407 1213.09 408.456 1218.82 411.368C1224.55 414.248 1228.91 418.376 1231.92 423.752C1234.96 429.128 1236.48 435.544 1236.48 443C1236.48 448.6 1235.57 453.624 1233.75 458.072C1231.95 462.488 1229.38 466.264 1226.02 469.4C1222.66 472.504 1218.61 474.888 1213.87 476.552C1209.17 478.184 1203.91 479 1198.08 479H1163.47V477.224H1172.16V408.776H1163.47V407H1198.08ZM1192.8 477.224H1198.08C1201.06 477.224 1203.55 476.408 1205.57 474.776C1207.62 473.144 1209.25 470.808 1210.47 467.768C1211.68 464.728 1212.56 461.112 1213.11 456.92C1213.65 452.728 1213.92 448.088 1213.92 443C1213.92 437.912 1213.6 433.272 1212.96 429.08C1212.35 424.888 1211.39 421.272 1210.08 418.232C1208.8 415.192 1207.17 412.856 1205.19 411.224C1203.2 409.592 1200.83 408.776 1198.08 408.776H1192.8V477.224ZM1296.33 479.96C1289.84 479.96 1284.14 478.36 1279.24 475.16C1274.35 471.96 1270.54 467.576 1267.82 462.008C1265.1 456.44 1263.74 450.104 1263.74 443C1263.74 435.864 1265.1 429.528 1267.82 423.992C1270.54 418.424 1274.35 414.04 1279.24 410.84C1284.14 407.64 1289.84 406.04 1296.33 406.04C1299.53 406.04 1302.57 406.6 1305.45 407.72C1308.36 408.808 1310.91 410.344 1313.08 412.328L1318.12 407H1319.71V426.68H1317.88C1317.76 422.936 1316.7 419.672 1314.72 416.888C1312.73 414.104 1310.2 411.96 1307.13 410.456C1304.06 408.92 1300.78 408.152 1297.29 408.152C1293.13 408.152 1289.6 409.144 1286.68 411.128C1283.8 413.08 1281.48 415.72 1279.72 419.048C1278 422.376 1276.73 426.12 1275.93 430.28C1275.13 434.408 1274.73 438.648 1274.73 443C1274.73 447.352 1275.13 451.608 1275.93 455.768C1276.73 459.896 1278 463.624 1279.72 466.952C1281.48 470.28 1283.8 472.936 1286.68 474.92C1289.6 476.872 1293.13 477.848 1297.29 477.848C1300.46 477.848 1303.34 477.368 1305.93 476.408C1308.52 475.448 1310.76 474.12 1312.65 472.424C1314.57 470.728 1316.06 468.76 1317.12 466.52C1318.17 464.28 1318.75 461.88 1318.84 459.32H1320.67V479H1319.08L1314.48 473.336C1312.3 475.384 1309.64 477 1306.51 478.184C1303.4 479.368 1300.01 479.96 1296.33 479.96ZM1359.92 479.96C1355.06 479.96 1350.72 479.016 1346.92 477.128C1343.11 475.208 1339.88 472.552 1337.22 469.16C1334.6 465.768 1332.6 461.848 1331.22 457.4C1329.88 452.92 1329.2 448.12 1329.2 443C1329.2 437.88 1329.92 433.096 1331.36 428.648C1332.84 424.168 1334.92 420.232 1337.6 416.84C1340.29 413.448 1343.52 410.808 1347.3 408.92C1351.08 407 1355.28 406.04 1359.92 406.04C1364.56 406.04 1368.76 407 1372.5 408.92C1376.28 410.808 1379.51 413.448 1382.2 416.84C1384.92 420.232 1387 424.168 1388.44 428.648C1389.88 433.096 1390.6 437.88 1390.6 443C1390.6 448.12 1389.91 452.92 1388.53 457.4C1387.19 461.848 1385.2 465.768 1382.58 469.16C1379.96 472.552 1376.74 475.208 1372.93 477.128C1369.12 479.016 1364.79 479.96 1359.92 479.96ZM1359.92 478.328C1364.12 478.328 1367.49 477.336 1370.05 475.352C1372.64 473.336 1374.63 470.632 1376 467.24C1377.41 463.848 1378.36 460.056 1378.84 455.864C1379.35 451.64 1379.6 447.352 1379.6 443C1379.6 438.648 1379.3 434.376 1378.69 430.184C1378.12 425.96 1377.11 422.152 1375.67 418.76C1374.23 415.368 1372.23 412.68 1369.67 410.696C1367.11 408.68 1363.86 407.672 1359.92 407.672C1355.99 407.672 1352.74 408.68 1350.18 410.696C1347.62 412.68 1345.6 415.368 1344.13 418.76C1342.69 422.152 1341.67 425.96 1341.06 430.184C1340.48 434.376 1340.2 438.648 1340.2 443C1340.2 447.352 1340.45 451.64 1340.96 455.864C1341.48 460.056 1342.42 463.848 1343.8 467.24C1345.17 470.632 1347.16 473.336 1349.75 475.352C1352.37 477.336 1355.76 478.328 1359.92 478.328ZM1459.24 407V408.776H1450.17V456.92C1450.17 464.824 1448.39 470.712 1444.84 474.584C1441.29 478.456 1435.72 480.392 1428.14 480.392C1419.85 480.392 1413.77 478.552 1409.9 474.872C1406.06 471.192 1404.14 465.208 1404.14 456.92V408.776H1395.55V407H1422.91V408.776H1413.31V455.96C1413.31 459.128 1413.53 462.072 1413.98 464.792C1414.46 467.512 1415.29 469.88 1416.47 471.896C1417.69 473.912 1419.39 475.496 1421.56 476.648C1423.77 477.768 1426.6 478.328 1430.06 478.328C1434.03 478.328 1437.37 477.592 1440.09 476.12C1442.84 474.648 1444.92 472.344 1446.33 469.208C1447.74 466.04 1448.44 461.944 1448.44 456.92V408.776H1439.61V407H1459.24ZM1474.04 407V477.224H1485.41V479H1462.37V477.224H1472.21V408.776H1462.37V407H1474.04ZM1530.63 407V408.776H1520.5V479.96H1518.05L1472.74 407H1483.78L1518.68 464.168V408.776H1507.59V407H1530.63ZM1548.61 479V477.224H1559.17V408.776H1549.57C1546.75 408.776 1544.46 409.24 1542.7 410.168C1540.98 411.064 1539.63 412.376 1538.67 414.104C1537.74 415.832 1537.1 417.928 1536.75 420.392C1536.4 422.824 1536.22 425.56 1536.22 428.6H1534.4V407H1593.06V428.6H1591.28C1591.28 425.56 1591.1 422.824 1590.75 420.392C1590.4 417.928 1589.74 415.832 1588.78 414.104C1587.82 412.376 1586.46 411.064 1584.7 410.168C1582.98 409.24 1580.7 408.776 1577.89 408.776H1568.29V477.224H1578.85V479H1548.61ZM1595.05 479.96C1594 479.96 1593.04 479.704 1592.17 479.192C1591.31 478.68 1590.6 477.992 1590.06 477.128C1589.55 476.232 1589.29 475.256 1589.29 474.2C1589.29 473.144 1589.55 472.184 1590.06 471.32C1590.6 470.424 1591.31 469.72 1592.17 469.208C1593.04 468.664 1594 468.392 1595.05 468.392C1596.11 468.392 1597.07 468.664 1597.93 469.208C1598.83 469.72 1599.53 470.424 1600.04 471.32C1600.56 472.184 1600.81 473.144 1600.81 474.2C1600.81 475.256 1600.56 476.232 1600.04 477.128C1599.53 477.992 1598.83 478.68 1597.93 479.192C1597.07 479.704 1596.11 479.96 1595.05 479.96ZM253.88 594V592.224H262.52V523.776H253.88V522H280.28V523.776H271.688V592.224H286.52C290.296 592.224 293.32 591.776 295.592 590.88C297.896 589.952 299.624 588.624 300.776 586.896C301.96 585.168 302.744 583.088 303.128 580.656C303.544 578.192 303.752 575.44 303.752 572.4H305.528V594H253.88ZM341.728 594.96C336.864 594.96 332.528 594.016 328.72 592.128C324.912 590.208 321.68 587.552 319.024 584.16C316.4 580.768 314.4 576.848 313.024 572.4C311.68 567.92 311.008 563.12 311.008 558C311.008 552.88 311.728 548.096 313.168 543.648C314.64 539.168 316.72 535.232 319.408 531.84C322.096 528.448 325.328 525.808 329.104 523.92C332.88 522 337.088 521.04 341.728 521.04C346.368 521.04 350.56 522 354.304 523.92C358.08 525.808 361.312 528.448 364 531.84C366.72 535.232 368.8 539.168 370.24 543.648C371.68 548.096 372.4 552.88 372.4 558C372.4 563.12 371.712 567.92 370.336 572.4C368.992 576.848 367.008 580.768 364.384 584.16C361.76 587.552 358.544 590.208 354.736 592.128C350.928 594.016 346.592 594.96 341.728 594.96ZM341.728 593.328C345.92 593.328 349.296 592.336 351.856 590.352C354.448 588.336 356.432 585.632 357.808 582.24C359.216 578.848 360.16 575.056 360.64 570.864C361.152 566.64 361.408 562.352 361.408 558C361.408 553.648 361.104 549.376 360.496 545.184C359.92 540.96 358.912 537.152 357.472 533.76C356.032 530.368 354.032 527.68 351.472 525.696C348.912 523.68 345.664 522.672 341.728 522.672C337.792 522.672 334.544 523.68 331.984 525.696C329.424 527.68 327.408 530.368 325.936 533.76C324.496 537.152 323.472 540.96 322.864 545.184C322.288 549.376 322 553.648 322 558C322 562.352 322.256 566.64 322.768 570.864C323.28 575.056 324.224 578.848 325.6 582.24C326.976 585.632 328.96 588.336 331.552 590.352C334.176 592.336 337.568 593.328 341.728 593.328ZM441.045 522V523.776H431.973V571.92C431.973 579.824 430.197 585.712 426.645 589.584C423.093 593.456 417.525 595.392 409.941 595.392C401.653 595.392 395.573 593.552 391.701 589.872C387.861 586.192 385.941 580.208 385.941 571.92V523.776H377.349V522H404.709V523.776H395.109V570.96C395.109 574.128 395.333 577.072 395.781 579.792C396.261 582.512 397.093 584.88 398.277 586.896C399.493 588.912 401.189 590.496 403.365 591.648C405.573 592.768 408.405 593.328 411.861 593.328C415.829 593.328 419.173 592.592 421.893 591.12C424.645 589.648 426.725 587.344 428.133 584.208C429.541 581.04 430.245 576.944 430.245 571.92V523.776H421.413V522H441.045ZM471.058 522C478.194 522 484.338 523.584 489.49 526.752C494.642 529.888 498.61 534.176 501.394 539.616C504.21 545.056 505.618 551.184 505.618 558C505.618 563.12 504.786 567.872 503.122 572.256C501.458 576.608 499.09 580.416 496.018 583.68C492.946 586.944 489.298 589.488 485.074 591.312C480.85 593.104 476.178 594 471.058 594H444.178V592.224H452.818V523.776H444.178V522H471.058ZM461.986 592.224H471.058C475.474 592.224 479.186 591.28 482.194 589.392C485.202 587.504 487.618 584.944 489.442 581.712C491.266 578.448 492.578 574.768 493.378 570.672C494.178 566.576 494.578 562.352 494.578 558C494.578 553.648 494.13 549.424 493.234 545.328C492.338 541.232 490.946 537.568 489.058 534.336C487.202 531.072 484.786 528.496 481.81 526.608C478.834 524.72 475.25 523.776 471.058 523.776H461.986V592.224ZM549.646 571.44V569.664H580.702V571.44H549.646ZM567.742 520.608L592.558 592.224H599.998V594H572.158V592.224H582.046L563.134 533.712L542.734 592.224H553.006V594H531.886V592.224H540.718L565.918 520.608H567.742ZM614.545 522V592.224H625.921V594H602.881V592.224H612.721V523.776H602.881V522H614.545ZM671.137 522V523.776H661.009V594.96H658.561L613.249 522H624.289L659.185 579.168V523.776H648.097V522H671.137ZM700.85 522C707.986 522 714.13 523.584 719.282 526.752C724.434 529.888 728.402 534.176 731.186 539.616C734.002 545.056 735.41 551.184 735.41 558C735.41 563.12 734.578 567.872 732.914 572.256C731.25 576.608 728.882 580.416 725.81 583.68C722.738 586.944 719.09 589.488 714.866 591.312C710.642 593.104 705.97 594 700.85 594H673.97V592.224H682.61V523.776H673.97V522H700.85ZM691.778 592.224H700.85C705.266 592.224 708.978 591.28 711.986 589.392C714.994 587.504 717.41 584.944 719.234 581.712C721.058 578.448 722.37 574.768 723.17 570.672C723.97 566.576 724.37 562.352 724.37 558C724.37 553.648 723.922 549.424 723.026 545.328C722.13 541.232 720.738 537.568 718.85 534.336C716.994 531.072 714.578 528.496 711.602 526.608C708.626 524.72 705.042 523.776 700.85 523.776H691.778V592.224ZM796.623 594.96C790.127 594.96 784.431 593.36 779.535 590.16C774.639 586.96 770.831 582.576 768.111 577.008C765.391 571.44 764.031 565.104 764.031 558C764.031 550.864 765.391 544.528 768.111 538.992C770.831 533.424 774.639 529.04 779.535 525.84C784.431 522.64 790.127 521.04 796.623 521.04C799.823 521.04 802.863 521.6 805.743 522.72C808.655 523.808 811.199 525.344 813.375 527.328L818.415 522H819.999V541.68H818.175C818.047 537.936 816.991 534.672 815.007 531.888C813.023 529.104 810.495 526.96 807.423 525.456C804.351 523.92 801.071 523.152 797.583 523.152C793.423 523.152 789.887 524.144 786.975 526.128C784.095 528.08 781.775 530.72 780.015 534.048C778.287 537.376 777.023 541.12 776.223 545.28C775.423 549.408 775.023 553.648 775.023 558C775.023 562.352 775.423 566.608 776.223 570.768C777.023 574.896 778.287 578.624 780.015 581.952C781.775 585.28 784.095 587.936 786.975 589.92C789.887 591.872 793.423 592.848 797.583 592.848C800.751 592.848 803.631 592.368 806.223 591.408C808.815 590.448 811.055 589.12 812.943 587.424C814.863 585.728 816.351 583.76 817.407 581.52C818.463 579.28 819.039 576.88 819.135 574.32H820.959V594H819.375L814.767 588.336C812.591 590.384 809.935 592 806.799 593.184C803.695 594.368 800.303 594.96 796.623 594.96ZM827.143 594V592.224H835.783V523.776H827.143V522H853.543V523.776H844.951V592.224H859.783C863.559 592.224 866.583 591.776 868.855 590.88C871.159 589.952 872.887 588.624 874.039 586.896C875.223 585.168 876.007 583.088 876.391 580.656C876.807 578.192 877.015 575.44 877.015 572.4H878.791V594H827.143ZM881.919 594V592.224H890.559V523.776H881.919V522H933.087V541.68H931.359C931.359 538.256 930.863 535.2 929.871 532.512C928.879 529.792 927.263 527.664 925.023 526.128C922.783 524.56 919.791 523.776 916.047 523.776H899.727V592.224H915.039C919.423 592.224 922.863 591.424 925.359 589.824C927.887 588.192 929.679 585.904 930.735 582.96C931.791 579.984 932.319 576.464 932.319 572.4H934.047V594H881.919ZM915.039 567.264C915.039 565.12 914.623 563.344 913.791 561.936C912.959 560.496 911.807 559.424 910.335 558.72C908.895 558.016 907.263 557.664 905.439 557.664H897.327V555.888H905.439C907.263 555.888 908.895 555.568 910.335 554.928C911.807 554.288 912.959 553.296 913.791 551.952C914.623 550.576 915.039 548.816 915.039 546.672H916.767V567.264H915.039ZM955.955 571.44V569.664H987.011V571.44H955.955ZM974.051 520.608L998.867 592.224H1006.31V594H978.467V592.224H988.355L969.443 533.712L949.043 592.224H959.315V594H938.195V592.224H947.027L972.227 520.608H974.051ZM1026.47 557.76V556.704H1040.87C1043.94 556.704 1046.55 556.08 1048.69 554.832C1050.87 553.552 1052.52 551.696 1053.64 549.264C1054.76 546.8 1055.32 543.824 1055.32 540.336C1055.32 536.848 1054.76 533.872 1053.64 531.408C1052.52 528.912 1050.87 527.024 1048.69 525.744C1046.55 524.432 1043.94 523.776 1040.87 523.776H1009.19V522H1040.87C1045.7 522 1049.91 522.672 1053.49 524.016C1057.11 525.328 1059.91 527.344 1061.89 530.064C1063.88 532.752 1064.87 536.176 1064.87 540.336C1064.87 544.496 1063.94 547.856 1062.09 550.416C1060.23 552.976 1057.51 554.848 1053.93 556.032C1050.37 557.184 1046.02 557.76 1040.87 557.76H1026.47ZM1009.19 594V592.224H1039.48V594H1009.19ZM1019.75 593.04V523.2H1028.87V593.04H1019.75ZM1064.39 594.48C1061.61 594.48 1059.43 593.984 1057.86 592.992C1056.33 591.968 1055.21 590.608 1054.5 588.912C1053.8 587.184 1053.35 585.248 1053.16 583.104C1053 580.96 1052.9 578.752 1052.87 576.48C1052.84 574.208 1052.71 572 1052.49 569.856C1052.26 567.712 1051.77 565.792 1051 564.096C1050.23 562.368 1049 561.008 1047.3 560.016C1045.64 558.992 1043.33 558.48 1040.39 558.48H1026.47V557.52H1042.31C1046.92 557.52 1050.57 558.16 1053.25 559.44C1055.97 560.688 1058.02 562.352 1059.4 564.432C1060.77 566.512 1061.7 568.8 1062.18 571.296C1062.66 573.76 1062.92 576.24 1062.95 578.736C1062.98 581.2 1063.05 583.472 1063.14 585.552C1063.27 587.632 1063.62 589.296 1064.2 590.544C1064.81 591.792 1065.93 592.416 1067.56 592.416C1068.58 592.416 1069.48 592.32 1070.25 592.128C1071.05 591.904 1071.77 591.632 1072.41 591.312L1073.03 592.992C1072.26 593.408 1071.11 593.76 1069.57 594.048C1068.07 594.336 1066.34 594.48 1064.39 594.48ZM1127 594.96L1104.88 523.776H1095.8V522H1164.06V523.776H1140.64L1158.16 580.464L1178.03 523.776H1168.91V522H1187.72V523.776H1180L1155.08 594.96H1153.12L1131.04 523.776H1114.48L1132.09 580.464L1141.98 552.912L1142.94 555.984L1128.92 594.96H1127ZM1147.5 548.64L1145.96 547.2L1154.12 522.72L1156.04 523.2L1147.5 548.64ZM1189.83 594V592.224H1200.39V523.776H1189.83V522H1221.03V523.776H1209.51V592.224H1221.03V594H1189.83ZM1239.03 594V592.224H1249.59V523.776H1239.99C1237.18 523.776 1234.89 524.24 1233.13 525.168C1231.4 526.064 1230.06 527.376 1229.1 529.104C1228.17 530.832 1227.53 532.928 1227.18 535.392C1226.83 537.824 1226.65 540.56 1226.65 543.6H1224.83V522H1283.48V543.6H1281.71C1281.71 540.56 1281.53 537.824 1281.18 535.392C1280.83 532.928 1280.17 530.832 1279.21 529.104C1278.25 527.376 1276.89 526.064 1275.13 525.168C1273.4 524.24 1271.13 523.776 1268.31 523.776H1258.71V592.224H1269.27V594H1239.03ZM1353.55 522V523.776H1344.91V592.224H1353.55V594H1326.19V592.224H1335.79V559.392H1304.16V592.224H1313.71V594H1286.35V592.224H1294.99V523.776H1286.35V522H1313.71V523.776H1304.16V557.568H1335.79V523.776H1326.19V522H1353.55ZM1395.29 571.44V569.664H1426.35V571.44H1395.29ZM1413.39 520.608L1438.2 592.224H1445.64V594H1417.8V592.224H1427.69L1408.78 533.712L1388.38 592.224H1398.65V594H1377.53V592.224H1386.36L1411.56 520.608H1413.39ZM290.36 637C296.792 637 302.056 637.848 306.152 639.544C310.248 641.24 313.272 643.624 315.224 646.696C317.208 649.736 318.2 653.336 318.2 657.496C318.2 661.656 317.208 665.24 315.224 668.248C313.272 671.256 310.248 673.576 306.152 675.208C302.056 676.808 296.792 677.608 290.36 677.608H281.72V707.224H290.36V709H252.392V707.224H261.08V638.776H252.392V637H290.36ZM281.72 675.88H286.52C288.344 675.88 289.864 675.336 291.08 674.248C292.328 673.128 293.32 671.672 294.056 669.88C294.792 668.088 295.32 666.12 295.64 663.976C295.96 661.8 296.12 659.64 296.12 657.496C296.12 655.352 295.96 653.192 295.64 651.016C295.32 648.808 294.792 646.776 294.056 644.92C293.32 643.064 292.328 641.576 291.08 640.456C289.864 639.336 288.344 638.776 286.52 638.776H281.72V675.88ZM320.012 709V707.224H328.7V638.776H320.012V637H357.98V638.776H349.34V707.224H353.42C356.684 707.224 359.676 706.776 362.396 705.88C365.148 704.952 367.58 703.624 369.692 701.896C371.804 700.168 373.58 698.088 375.02 695.656C376.492 693.192 377.58 690.44 378.284 687.4H380.06V709H320.012ZM380.413 709V707.224H389.101V638.776H380.413V637H439.501V656.68H437.725C436.765 653.256 435.197 650.2 433.021 647.512C430.845 644.792 428.189 642.664 425.053 641.128C421.949 639.56 418.525 638.776 414.781 638.776H409.741V707.224H413.821C418.205 707.224 422.077 706.424 425.437 704.824C428.829 703.192 431.645 700.904 433.885 697.96C436.125 694.984 437.725 691.464 438.685 687.4H440.461V709H380.413ZM424.237 685.192C423.277 683.048 422.029 681.016 420.493 679.096C418.957 677.176 417.261 675.624 415.405 674.44C413.581 673.224 411.757 672.616 409.933 672.616H407.053V670.888H409.933C411.757 670.888 413.581 670.344 415.405 669.256C417.261 668.136 418.957 666.648 420.493 664.792C422.029 662.936 423.277 660.936 424.237 658.792H426.061V685.192H424.237ZM458.84 686.728V685H486.488V686.728H458.84ZM486.44 635.608L511.304 707.224H518.6V709H480.392V707.224H487.352L470.744 656.104L452.696 707.224H462.968V709H441.752V707.224H450.632L476.024 635.608H486.44ZM548.274 710.392C545.298 710.392 542.61 709.896 540.21 708.904C537.842 707.912 535.698 706.584 533.778 704.92L522.594 709.96H520.914V684.52H522.738C523.986 687.176 525.362 689.912 526.866 692.728C528.37 695.512 530.098 698.12 532.05 700.552C534.002 702.952 536.258 704.904 538.818 706.408C541.41 707.88 544.418 708.616 547.842 708.616C550.53 708.616 552.834 708.088 554.754 707.032C556.674 705.976 558.146 704.568 559.17 702.808C560.226 701.048 560.754 699.112 560.754 697C560.754 694.6 560.05 692.616 558.642 691.048C557.234 689.48 555.378 688.136 553.074 687.016C550.77 685.896 548.226 684.808 545.442 683.752C542.69 682.696 539.922 681.512 537.138 680.2C534.386 678.856 531.858 677.192 529.554 675.208C527.25 673.224 525.394 670.744 523.986 667.768C522.578 664.76 521.874 661.064 521.874 656.68C521.874 652.2 522.962 648.424 525.138 645.352C527.314 642.28 530.13 639.96 533.586 638.392C537.074 636.824 540.754 636.04 544.626 636.04C547.186 636.04 549.586 636.456 551.826 637.288C554.066 638.088 556.13 639.24 558.018 640.744L568.818 636.04H570.306V659.608H568.482C566.562 655.448 564.514 651.736 562.338 648.472C560.162 645.176 557.666 642.584 554.85 640.696C552.066 638.808 548.802 637.864 545.058 637.864C542.018 637.864 539.634 638.728 537.906 640.456C536.178 642.152 535.314 644.36 535.314 647.08C535.314 649.224 536.018 651.032 537.426 652.504C538.834 653.976 540.69 655.304 542.994 656.488C545.298 657.64 547.826 658.792 550.578 659.944C553.362 661.096 556.13 662.392 558.882 663.832C561.634 665.272 564.162 667 566.466 669.016C568.77 671.032 570.626 673.496 572.034 676.408C573.442 679.288 574.146 682.792 574.146 686.92C574.146 691.72 572.93 695.88 570.498 699.4C568.066 702.888 564.882 705.592 560.946 707.512C557.01 709.432 552.786 710.392 548.274 710.392ZM590.143 686.728V685H617.791V686.728H590.143ZM617.743 635.608L642.607 707.224H649.903V709H611.695V707.224H618.655L602.047 656.104L583.999 707.224H594.271V709H573.055V707.224H581.935L607.327 635.608H617.743ZM661.432 637V707.224H672.328V709H649.768V707.224H659.608V638.776H649.768V637H661.432ZM722.776 637V638.776H712.696V709.96H710.248L660.184 637H684.616L710.872 674.728V638.776H700.312V637H722.776ZM736.104 709V707.224H746.664V638.776H744.552C742.248 638.776 740.088 639.384 738.072 640.6C736.056 641.784 734.232 643.432 732.6 645.544C730.968 647.656 729.544 650.088 728.328 652.84C727.144 655.56 726.184 658.44 725.448 661.48H723.576V637H790.344V661.48H788.568C787.864 658.44 786.904 655.56 785.688 652.84C784.472 650.088 783.048 647.656 781.416 645.544C779.784 643.432 777.96 641.784 775.944 640.6C773.928 639.384 771.768 638.776 769.464 638.776H767.304V707.224H777.864V709H736.104ZM839.653 637C846.789 637 852.933 638.584 858.085 641.752C863.237 644.888 867.205 649.176 869.989 654.616C872.805 660.056 874.213 666.184 874.213 673C874.213 678.12 873.381 682.872 871.717 687.256C870.053 691.608 867.685 695.416 864.613 698.68C861.541 701.944 857.893 704.488 853.669 706.312C849.445 708.104 844.773 709 839.653 709H812.773V707.224H821.413V638.776H812.773V637H839.653ZM830.581 707.224H839.653C844.069 707.224 847.781 706.28 850.789 704.392C853.797 702.504 856.213 699.944 858.037 696.712C859.861 693.448 861.173 689.768 861.973 685.672C862.773 681.576 863.173 677.352 863.173 673C863.173 668.648 862.725 664.424 861.829 660.328C860.933 656.232 859.541 652.568 857.653 649.336C855.797 646.072 853.381 643.496 850.405 641.608C847.429 639.72 843.845 638.776 839.653 638.776H830.581V707.224ZM879.361 709V707.224H888.001V638.776H879.361V637H930.529V656.68H928.801C928.801 653.256 928.305 650.2 927.313 647.512C926.321 644.792 924.705 642.664 922.465 641.128C920.225 639.56 917.233 638.776 913.489 638.776H897.169V707.224H912.481C916.865 707.224 920.305 706.424 922.801 704.824C925.329 703.192 927.121 700.904 928.177 697.96C929.233 694.984 929.761 691.464 929.761 687.4H931.489V709H879.361ZM912.481 682.264C912.481 680.12 912.065 678.344 911.233 676.936C910.401 675.496 909.249 674.424 907.777 673.72C906.337 673.016 904.705 672.664 902.881 672.664H894.769V670.888H902.881C904.705 670.888 906.337 670.568 907.777 669.928C909.249 669.288 910.401 668.296 911.233 666.952C912.065 665.576 912.481 663.816 912.481 661.672H914.209V682.264H912.481ZM935.638 709V707.224H944.278V638.776H935.638V637H962.038V638.776H953.446V707.224H968.278C972.054 707.224 975.078 706.776 977.35 705.88C979.654 704.952 981.382 703.624 982.534 701.896C983.718 700.168 984.502 698.088 984.886 695.656C985.302 693.192 985.51 690.44 985.51 687.4H987.286V709H935.638ZM990.414 709V707.224H1000.97V638.776H990.414V637H1021.61V638.776H1010.09V707.224H1021.61V709H990.414ZM1092.78 637V638.776H1084.47L1058.74 710.392H1056.68L1031.77 638.776H1024.47V637H1052.31V638.776H1042.33L1061.43 697.768L1082.41 638.776H1070.6V637H1092.78ZM1095.65 709V707.224H1104.29V638.776H1095.65V637H1146.82V656.68H1145.09C1145.09 653.256 1144.6 650.2 1143.61 647.512C1142.61 644.792 1141 642.664 1138.76 641.128C1136.52 639.56 1133.53 638.776 1129.78 638.776H1113.46V707.224H1128.77C1133.16 707.224 1136.6 706.424 1139.09 704.824C1141.62 703.192 1143.41 700.904 1144.47 697.96C1145.53 694.984 1146.05 691.464 1146.05 687.4H1147.78V709H1095.65ZM1128.77 682.264C1128.77 680.12 1128.36 678.344 1127.53 676.936C1126.69 675.496 1125.54 674.424 1124.07 673.72C1122.63 673.016 1121 672.664 1119.17 672.664H1111.06V670.888H1119.17C1121 670.888 1122.63 670.568 1124.07 669.928C1125.54 669.288 1126.69 668.296 1127.53 666.952C1128.36 665.576 1128.77 663.816 1128.77 661.672H1130.5V682.264H1128.77ZM1169.21 672.76V671.704H1183.61C1186.68 671.704 1189.29 671.08 1191.43 669.832C1193.61 668.552 1195.26 666.696 1196.38 664.264C1197.5 661.8 1198.06 658.824 1198.06 655.336C1198.06 651.848 1197.5 648.872 1196.38 646.408C1195.26 643.912 1193.61 642.024 1191.43 640.744C1189.29 639.432 1186.68 638.776 1183.61 638.776H1151.93V637H1183.61C1188.44 637 1192.65 637.672 1196.23 639.016C1199.85 640.328 1202.65 642.344 1204.63 645.064C1206.62 647.752 1207.61 651.176 1207.61 655.336C1207.61 659.496 1206.68 662.856 1204.83 665.416C1202.97 667.976 1200.25 669.848 1196.67 671.032C1193.11 672.184 1188.76 672.76 1183.61 672.76H1169.21ZM1151.93 709V707.224H1182.22V709H1151.93ZM1162.49 708.04V638.2H1171.61V708.04H1162.49ZM1207.13 709.48C1204.35 709.48 1202.17 708.984 1200.6 707.992C1199.07 706.968 1197.95 705.608 1197.24 703.912C1196.54 702.184 1196.09 700.248 1195.9 698.104C1195.74 695.96 1195.64 693.752 1195.61 691.48C1195.58 689.208 1195.45 687 1195.23 684.856C1195 682.712 1194.51 680.792 1193.74 679.096C1192.97 677.368 1191.74 676.008 1190.04 675.016C1188.38 673.992 1186.07 673.48 1183.13 673.48H1169.21V672.52H1185.05C1189.66 672.52 1193.31 673.16 1195.99 674.44C1198.71 675.688 1200.76 677.352 1202.14 679.432C1203.51 681.512 1204.44 683.8 1204.92 686.296C1205.4 688.76 1205.66 691.24 1205.69 693.736C1205.72 696.2 1205.79 698.472 1205.88 700.552C1206.01 702.632 1206.36 704.296 1206.94 705.544C1207.55 706.792 1208.67 707.416 1210.3 707.416C1211.32 707.416 1212.22 707.32 1212.99 707.128C1213.79 706.904 1214.51 706.632 1215.15 706.312L1215.77 707.992C1215 708.408 1213.85 708.76 1212.31 709.048C1210.81 709.336 1209.08 709.48 1207.13 709.48ZM1233.04 709V707.224H1241.68V674.392L1219.79 638.776H1212.45V637H1240.29V638.776H1230.35L1249.79 670.696L1268.75 638.776H1258.63V637H1278.21V638.776H1270.87L1250.8 672.232V707.224H1260.45V709H1233.04ZM1278.33 709.96C1277.27 709.96 1276.31 709.704 1275.45 709.192C1274.58 708.68 1273.88 707.992 1273.34 707.128C1272.82 706.232 1272.57 705.256 1272.57 704.2C1272.57 703.144 1272.82 702.184 1273.34 701.32C1273.88 700.424 1274.58 699.72 1275.45 699.208C1276.31 698.664 1277.27 698.392 1278.33 698.392C1279.38 698.392 1280.34 698.664 1281.21 699.208C1282.1 699.72 1282.81 700.424 1283.32 701.32C1283.83 702.184 1284.09 703.144 1284.09 704.2C1284.09 705.256 1283.83 706.232 1283.32 707.128C1282.81 707.992 1282.1 708.68 1281.21 709.192C1280.34 709.704 1279.38 709.96 1278.33 709.96Z" fill="#22223A"/>
          </svg>