<svg width="1920" height="1080" viewBox="0 0 1920 1080" fill="none" xmlns="http://www.w3.org/2000/svg">
<g clip-path="url(#clip0_1_1321)">
<g opacity="0.25">
<rect width="1920" height="1080" fill="#C9AEA7"/>
</g>
<circle opacity="0.5" cx="1054" cy="540" r="500" fill="#F6F6F6"/>
<path d="M685.406 953V847.5L913.814 666.567C958.475 631.752 992.059 592.014 1014.57 547.352C1037.07 502.691 1048.33 451.523 1048.33 393.85C1048.33 353.76 1042 318.066 1029.34 286.767C1017.03 255.469 999.444 231.028 976.586 213.445C954.079 195.51 927.704 186.542 897.461 186.542C864.404 186.542 833.634 194.455 805.149 210.28C777.015 225.753 754.684 248.26 738.156 277.8C721.628 307.34 714.243 343.21 716.001 385.41H698.066C698.066 372.047 702.989 359.562 712.836 347.957C722.683 336.001 735.343 326.33 750.816 318.945C766.641 311.208 782.994 307.34 799.874 307.34C815.699 307.34 830.644 311.208 844.711 318.945C859.129 326.682 870.91 337.407 880.054 351.122C889.197 364.837 893.769 380.487 893.769 398.07C893.769 417.412 889.373 434.292 880.581 448.71C871.789 463.128 859.833 474.382 844.711 482.47C829.941 490.558 813.764 494.602 796.181 494.602C778.598 494.602 762.245 490.207 747.124 481.415C732.354 472.272 720.397 459.612 711.254 443.435C702.462 426.907 697.714 407.565 697.011 385.41C695.253 339.693 704.748 299.252 725.496 264.085C746.596 228.918 777.191 201.312 817.281 181.267C857.371 161.222 904.846 151.2 959.706 151.2C1013.86 151.2 1060.11 160.167 1098.44 178.102C1136.77 196.037 1166.13 220.302 1186.53 250.897C1206.93 281.141 1217.13 314.725 1217.13 351.65C1217.13 381.19 1211.85 407.741 1201.3 431.302C1191.1 454.864 1177.56 476.14 1160.68 495.13C1143.8 514.12 1125.17 531.527 1104.77 547.352C1084.72 563.177 1064.68 578.299 1044.63 592.717L795.126 794.75H1219.24V715.625H1238.75V953H685.406Z" fill="#C9AEA7"/>
<path d="M271.64 456.44V454.664H302.696V456.44H271.64ZM289.736 405.608L314.552 477.224H321.992V479H294.152V477.224H304.04L285.128 418.712L264.728 477.224H275V479H253.88V477.224H262.712L287.912 405.608H289.736ZM383.737 407V408.776H374.665V456.92C374.665 464.824 372.889 470.712 369.337 474.584C365.785 478.456 360.217 480.392 352.633 480.392C344.345 480.392 338.265 478.552 334.393 474.872C330.553 471.192 328.633 465.208 328.633 456.92V408.776H320.041V407H347.401V408.776H337.801V455.96C337.801 459.128 338.025 462.072 338.473 464.792C338.953 467.512 339.785 469.88 340.969 471.896C342.185 473.912 343.881 475.496 346.057 476.648C348.265 477.768 351.097 478.328 354.553 478.328C358.521 478.328 361.865 477.592 364.585 476.12C367.337 474.648 369.417 472.344 370.825 469.208C372.233 466.04 372.937 461.944 372.937 456.92V408.776H364.105V407H383.737ZM401.078 479V477.224H411.638V408.776H402.038C399.222 408.776 396.934 409.24 395.174 410.168C393.446 411.064 392.102 412.376 391.142 414.104C390.214 415.832 389.574 417.928 389.222 420.392C388.87 422.824 388.694 425.56 388.694 428.6H386.87V407H445.526V428.6H443.75C443.75 425.56 443.574 422.824 443.222 420.392C442.87 417.928 442.214 415.832 441.254 414.104C440.294 412.376 438.934 411.064 437.174 410.168C435.446 409.24 433.174 408.776 430.358 408.776H420.758V477.224H431.318V479H401.078ZM515.596 407V408.776H506.956V477.224H515.596V479H488.236V477.224H497.836V444.392H466.204V477.224H475.756V479H448.396V477.224H457.036V408.776H448.396V407H475.756V408.776H466.204V442.568H497.836V408.776H488.236V407H515.596ZM551.526 479.96C546.662 479.96 542.326 479.016 538.518 477.128C534.71 475.208 531.478 472.552 528.822 469.16C526.198 465.768 524.198 461.848 522.822 457.4C521.478 452.92 520.806 448.12 520.806 443C520.806 437.88 521.526 433.096 522.966 428.648C524.438 424.168 526.518 420.232 529.206 416.84C531.894 413.448 535.126 410.808 538.902 408.92C542.678 407 546.886 406.04 551.526 406.04C556.166 406.04 560.358 407 564.102 408.92C567.878 410.808 571.11 413.448 573.798 416.84C576.518 420.232 578.598 424.168 580.038 428.648C581.478 433.096 582.198 437.88 582.198 443C582.198 448.12 581.51 452.92 580.134 457.4C578.79 461.848 576.806 465.768 574.182 469.16C571.558 472.552 568.342 475.208 564.534 477.128C560.726 479.016 556.39 479.96 551.526 479.96ZM551.526 478.328C555.718 478.328 559.094 477.336 561.654 475.352C564.246 473.336 566.23 470.632 567.606 467.24C569.014 463.848 569.958 460.056 570.438 455.864C570.95 451.64 571.206 447.352 571.206 443C571.206 438.648 570.902 434.376 570.294 430.184C569.718 425.96 568.71 422.152 567.27 418.76C565.83 415.368 563.83 412.68 561.27 410.696C558.71 408.68 555.462 407.672 551.526 407.672C547.59 407.672 544.342 408.68 541.782 410.696C539.222 412.68 537.206 415.368 535.734 418.76C534.294 422.152 533.27 425.96 532.662 430.184C532.086 434.376 531.798 438.648 531.798 443C531.798 447.352 532.054 451.64 532.566 455.864C533.078 460.056 534.022 463.848 535.398 467.24C536.774 470.632 538.758 473.336 541.35 475.352C543.974 477.336 547.366 478.328 551.526 478.328ZM604.666 442.76V441.704H619.066C622.138 441.704 624.746 441.08 626.89 439.832C629.066 438.552 630.714 436.696 631.834 434.264C632.954 431.8 633.514 428.824 633.514 425.336C633.514 421.848 632.954 418.872 631.834 416.408C630.714 413.912 629.066 412.024 626.89 410.744C624.746 409.432 622.138 408.776 619.066 408.776H587.386V407H619.066C623.898 407 628.106 407.672 631.69 409.016C635.306 410.328 638.106 412.344 640.09 415.064C642.074 417.752 643.066 421.176 643.066 425.336C643.066 429.496 642.138 432.856 640.282 435.416C638.426 437.976 635.706 439.848 632.122 441.032C628.57 442.184 624.218 442.76 619.066 442.76H604.666ZM587.386 479V477.224H617.674V479H587.386ZM597.946 478.04V408.2H607.066V478.04H597.946ZM642.586 479.48C639.802 479.48 637.626 478.984 636.058 477.992C634.522 476.968 633.402 475.608 632.698 473.912C631.994 472.184 631.546 470.248 631.354 468.104C631.194 465.96 631.098 463.752 631.066 461.48C631.034 459.208 630.906 457 630.682 454.856C630.458 452.712 629.962 450.792 629.194 449.096C628.426 447.368 627.194 446.008 625.498 445.016C623.834 443.992 621.53 443.48 618.586 443.48H604.666V442.52H620.506C625.114 442.52 628.762 443.16 631.45 444.44C634.17 445.688 636.218 447.352 637.594 449.432C638.97 451.512 639.898 453.8 640.378 456.296C640.858 458.76 641.114 461.24 641.146 463.736C641.178 466.2 641.242 468.472 641.338 470.552C641.466 472.632 641.818 474.296 642.394 475.544C643.002 476.792 644.122 477.416 645.754 477.416C646.778 477.416 647.674 477.32 648.442 477.128C649.242 476.904 649.962 476.632 650.602 476.312L651.226 477.992C650.458 478.408 649.306 478.76 647.77 479.048C646.266 479.336 644.538 479.48 642.586 479.48ZM671.829 456.44V454.664H702.885V456.44H671.829ZM689.925 405.608L714.741 477.224H722.181V479H694.341V477.224H704.229L685.317 418.712L664.917 477.224H675.189V479H654.069V477.224H662.901L688.101 405.608H689.925ZM731.115 479V477.224H741.675V408.776H732.075C729.259 408.776 726.971 409.24 725.211 410.168C723.483 411.064 722.139 412.376 721.179 414.104C720.251 415.832 719.611 417.928 719.259 420.392C718.907 422.824 718.731 425.56 718.731 428.6H716.907V407H775.563V428.6H773.787C773.787 425.56 773.611 422.824 773.26 420.392C772.907 417.928 772.251 415.832 771.292 414.104C770.332 412.376 768.972 411.064 767.211 410.168C765.483 409.24 763.211 408.776 760.395 408.776H750.795V477.224H761.355V479H731.115ZM778.434 479V477.224H788.994V408.776H778.434V407H809.634V408.776H798.114V477.224H809.634V479H778.434ZM880.795 407V408.776H872.491L846.763 480.392H844.699L819.787 408.776H812.491V407H840.331V408.776H830.347L849.451 467.768L870.427 408.776H858.619V407H880.795ZM883.674 479V477.224H892.314V408.776H883.674V407H934.842V426.68H933.114C933.114 423.256 932.618 420.2 931.626 417.512C930.634 414.792 929.018 412.664 926.778 411.128C924.538 409.56 921.546 408.776 917.802 408.776H901.482V477.224H916.794C921.178 477.224 924.618 476.424 927.114 474.824C929.642 473.192 931.434 470.904 932.49 467.96C933.546 464.984 934.074 461.464 934.074 457.4H935.802V479H883.674ZM916.794 452.264C916.794 450.12 916.378 448.344 915.546 446.936C914.714 445.496 913.562 444.424 912.09 443.72C910.65 443.016 909.018 442.664 907.194 442.664H899.082V440.888H907.194C909.018 440.888 910.65 440.568 912.09 439.928C913.562 439.288 914.714 438.296 915.546 436.952C916.378 435.576 916.794 433.816 916.794 431.672H918.522V452.264H916.794ZM978.83 456.44V454.664H1009.89V456.44H978.83ZM996.926 405.608L1021.74 477.224H1029.18V479H1001.34V477.224H1011.23L992.318 418.712L971.918 477.224H982.19V479H961.07V477.224H969.902L995.102 405.608H996.926ZM1043.73 407V477.224H1055.1V479H1032.06V477.224H1041.9V408.776H1032.06V407H1043.73ZM1100.32 407V408.776H1090.19V479.96H1087.74L1042.43 407H1053.47L1088.37 464.168V408.776H1077.28V407H1100.32ZM1130.03 407C1137.17 407 1143.31 408.584 1148.47 411.752C1153.62 414.888 1157.59 419.176 1160.37 424.616C1163.19 430.056 1164.59 436.184 1164.59 443C1164.59 448.12 1163.76 452.872 1162.1 457.256C1160.43 461.608 1158.07 465.416 1154.99 468.68C1151.92 471.944 1148.27 474.488 1144.05 476.312C1139.83 478.104 1135.15 479 1130.03 479H1103.15V477.224H1111.79V408.776H1103.15V407H1130.03ZM1120.96 477.224H1130.03C1134.45 477.224 1138.16 476.28 1141.17 474.392C1144.18 472.504 1146.59 469.944 1148.42 466.712C1150.24 463.448 1151.55 459.768 1152.35 455.672C1153.15 451.576 1153.55 447.352 1153.55 443C1153.55 438.648 1153.11 434.424 1152.21 430.328C1151.31 426.232 1149.92 422.568 1148.03 419.336C1146.18 416.072 1143.76 413.496 1140.79 411.608C1137.81 409.72 1134.23 408.776 1130.03 408.776H1120.96V477.224ZM293.624 565.632H319.592V567.648H313.784V578.16C313.08 579.664 312.04 581.376 310.664 583.296C309.288 585.216 307.528 587.072 305.384 588.864C303.272 590.624 300.728 592.08 297.752 593.232C294.776 594.384 291.336 594.96 287.432 594.96C280.776 594.96 275.128 593.36 270.488 590.16C265.848 586.96 262.312 582.576 259.88 577.008C257.448 571.44 256.232 565.104 256.232 558C256.232 552.656 257 547.744 258.536 543.264C260.104 538.752 262.328 534.832 265.208 531.504C268.088 528.176 271.528 525.6 275.528 523.776C279.528 521.952 283.96 521.04 288.824 521.04C291.992 521.04 295.016 521.6 297.896 522.72C300.808 523.808 303.352 525.328 305.528 527.28L310.616 522H312.2V541.68H310.376C310.28 538.832 309.656 536.272 308.504 534C307.352 531.728 305.8 529.792 303.848 528.192C301.928 526.56 299.752 525.312 297.32 524.448C294.92 523.584 292.408 523.152 289.784 523.152C285.624 523.152 282.088 524.144 279.176 526.128C276.296 528.08 273.976 530.72 272.216 534.048C270.488 537.376 269.224 541.12 268.424 545.28C267.624 549.408 267.224 553.648 267.224 558C267.224 562.352 267.512 566.624 268.088 570.816C268.696 574.976 269.736 578.752 271.208 582.144C272.712 585.504 274.776 588.176 277.4 590.16C280.024 592.144 283.368 593.136 287.432 593.136C290.408 593.136 292.888 592.672 294.872 591.744C296.888 590.816 298.488 589.696 299.672 588.384C300.888 587.072 301.816 585.808 302.456 584.592C303.096 583.376 303.528 582.512 303.752 582V567.648H293.624V565.632ZM321.781 594V592.224H330.421V523.776H321.781V522H372.949V541.68H371.221C371.221 538.256 370.725 535.2 369.733 532.512C368.741 529.792 367.125 527.664 364.885 526.128C362.645 524.56 359.653 523.776 355.909 523.776H339.589V592.224H354.901C359.285 592.224 362.725 591.424 365.221 589.824C367.749 588.192 369.541 585.904 370.597 582.96C371.653 579.984 372.181 576.464 372.181 572.4H373.909V594H321.781ZM354.901 567.264C354.901 565.12 354.485 563.344 353.653 561.936C352.821 560.496 351.669 559.424 350.197 558.72C348.757 558.016 347.125 557.664 345.301 557.664H337.189V555.888H345.301C347.125 555.888 348.757 555.568 350.197 554.928C351.669 554.288 352.821 553.296 353.653 551.952C354.485 550.576 354.901 548.816 354.901 546.672H356.629V567.264H354.901ZM389.721 522V592.224H401.097V594H378.057V592.224H387.897V523.776H378.057V522H389.721ZM446.314 522V523.776H436.185V594.96H433.737L388.425 522H399.465L434.361 579.168V523.776H423.274V522H446.314ZM449.146 594V592.224H457.786V523.776H449.146V522H500.314V541.68H498.586C498.586 538.256 498.09 535.2 497.098 532.512C496.106 529.792 494.49 527.664 492.25 526.128C490.01 524.56 487.018 523.776 483.274 523.776H466.954V592.224H482.266C486.65 592.224 490.09 591.424 492.586 589.824C495.114 588.192 496.906 585.904 497.962 582.96C499.018 579.984 499.546 576.464 499.546 572.4H501.274V594H449.146ZM482.266 567.264C482.266 565.12 481.85 563.344 481.018 561.936C480.186 560.496 479.034 559.424 477.562 558.72C476.122 558.016 474.49 557.664 472.666 557.664H464.554V555.888H472.666C474.49 555.888 476.122 555.568 477.562 554.928C479.034 554.288 480.186 553.296 481.018 551.952C481.85 550.576 482.266 548.816 482.266 546.672H483.994V567.264H482.266ZM522.702 557.76V556.704H537.102C540.174 556.704 542.782 556.08 544.926 554.832C547.102 553.552 548.75 551.696 549.87 549.264C550.99 546.8 551.55 543.824 551.55 540.336C551.55 536.848 550.99 533.872 549.87 531.408C548.75 528.912 547.102 527.024 544.926 525.744C542.782 524.432 540.174 523.776 537.102 523.776H505.422V522H537.102C541.934 522 546.142 522.672 549.726 524.016C553.342 525.328 556.142 527.344 558.127 530.064C560.11 532.752 561.102 536.176 561.102 540.336C561.102 544.496 560.174 547.856 558.318 550.416C556.462 552.976 553.742 554.848 550.158 556.032C546.606 557.184 542.254 557.76 537.102 557.76H522.702ZM505.422 594V592.224H535.71V594H505.422ZM515.982 593.04V523.2H525.102V593.04H515.982ZM560.622 594.48C557.838 594.48 555.662 593.984 554.094 592.992C552.558 591.968 551.438 590.608 550.734 588.912C550.03 587.184 549.582 585.248 549.39 583.104C549.23 580.96 549.134 578.752 549.102 576.48C549.07 574.208 548.942 572 548.718 569.856C548.494 567.712 547.998 565.792 547.23 564.096C546.462 562.368 545.23 561.008 543.534 560.016C541.87 558.992 539.566 558.48 536.622 558.48H522.702V557.52H538.542C543.15 557.52 546.798 558.16 549.486 559.44C552.206 560.688 554.254 562.352 555.63 564.432C557.006 566.512 557.934 568.8 558.414 571.296C558.894 573.76 559.15 576.24 559.182 578.736C559.215 581.2 559.278 583.472 559.374 585.552C559.502 587.632 559.854 589.296 560.431 590.544C561.038 591.792 562.158 592.416 563.79 592.416C564.814 592.416 565.71 592.32 566.478 592.128C567.278 591.904 567.999 591.632 568.639 591.312L569.263 592.992C568.494 593.408 567.342 593.76 565.806 594.048C564.302 594.336 562.574 594.48 560.622 594.48ZM571.636 594V592.224H582.196V523.776H571.636V522H602.836V523.776H591.316V592.224H602.836V594H571.636ZM640.638 594.96C634.142 594.96 628.446 593.36 623.55 590.16C618.654 586.96 614.846 582.576 612.126 577.008C609.406 571.44 608.046 565.104 608.046 558C608.046 550.864 609.406 544.528 612.126 538.992C614.846 533.424 618.654 529.04 623.55 525.84C628.446 522.64 634.142 521.04 640.638 521.04C643.838 521.04 646.878 521.6 649.758 522.72C652.67 523.808 655.214 525.344 657.39 527.328L662.43 522H664.014V541.68H662.19C662.062 537.936 661.006 534.672 659.022 531.888C657.038 529.104 654.51 526.96 651.438 525.456C648.366 523.92 645.086 523.152 641.598 523.152C637.438 523.152 633.902 524.144 630.99 526.128C628.11 528.08 625.79 530.72 624.03 534.048C622.302 537.376 621.038 541.12 620.238 545.28C619.438 549.408 619.038 553.648 619.038 558C619.038 562.352 619.438 566.608 620.238 570.768C621.038 574.896 622.302 578.624 624.03 581.952C625.79 585.28 628.11 587.936 630.99 589.92C633.902 591.872 637.438 592.848 641.598 592.848C644.766 592.848 647.646 592.368 650.238 591.408C652.83 590.448 655.07 589.12 656.958 587.424C658.878 585.728 660.366 583.76 661.422 581.52C662.478 579.28 663.054 576.88 663.15 574.32H664.974V594H663.39L658.782 588.336C656.606 590.384 653.95 592 650.814 593.184C647.71 594.368 644.318 594.96 640.638 594.96ZM711.957 594V592.224H720.597V559.392L698.709 523.776H691.365V522H719.205V523.776H709.269L728.709 555.696L747.669 523.776H737.541V522H757.125V523.776H749.781L729.717 557.232V592.224H739.365V594H711.957ZM759.616 594V592.224H768.256V523.776H759.616V522H810.784V541.68H809.056C809.056 538.256 808.56 535.2 807.568 532.512C806.576 529.792 804.96 527.664 802.72 526.128C800.48 524.56 797.488 523.776 793.744 523.776H777.424V592.224H792.736C797.12 592.224 800.56 591.424 803.056 589.824C805.584 588.192 807.376 585.904 808.432 582.96C809.488 579.984 810.016 576.464 810.016 572.4H811.744V594H759.616ZM792.736 567.264C792.736 565.12 792.32 563.344 791.488 561.936C790.656 560.496 789.504 559.424 788.032 558.72C786.592 558.016 784.96 557.664 783.136 557.664H775.024V555.888H783.136C784.96 555.888 786.592 555.568 788.032 554.928C789.504 554.288 790.656 553.296 791.488 551.952C792.32 550.576 792.736 548.816 792.736 546.672H794.464V567.264H792.736ZM830.101 594V592.224H840.661V523.776H831.061C828.245 523.776 825.957 524.24 824.197 525.168C822.469 526.064 821.125 527.376 820.165 529.104C819.237 530.832 818.597 532.928 818.245 535.392C817.893 537.824 817.717 540.56 817.717 543.6H815.893V522H874.549V543.6H872.773C872.773 540.56 872.597 537.824 872.245 535.392C871.893 532.928 871.237 530.832 870.277 529.104C869.317 527.376 867.957 526.064 866.197 525.168C864.469 524.24 862.197 523.776 859.381 523.776H849.781V592.224H860.341V594H830.101ZM932.571 568.272C932.571 566.128 932.155 564.384 931.323 563.04C930.523 561.664 929.243 560.656 927.483 560.016C925.723 559.376 923.451 559.056 920.667 559.056H914.379V557.328H920.667C923.451 557.328 925.723 557.056 927.483 556.512C929.243 555.968 930.523 555.056 931.323 553.776C932.155 552.496 932.571 550.784 932.571 548.64H934.347V568.272H932.571ZM948.747 522V541.68H947.019C947.019 538.256 946.507 535.2 945.483 532.512C944.491 529.792 942.875 527.664 940.635 526.128C938.395 524.56 935.403 523.776 931.659 523.776H916.347V592.224H925.899V594H898.539V592.224H907.179V523.776H898.539V522H948.747ZM1016.77 522V523.776H1007.7V571.92C1007.7 579.824 1005.92 585.712 1002.37 589.584C998.819 593.456 993.251 595.392 985.667 595.392C977.379 595.392 971.299 593.552 967.427 589.872C963.587 586.192 961.667 580.208 961.667 571.92V523.776H953.075V522H980.435V523.776H970.835V570.96C970.835 574.128 971.059 577.072 971.507 579.792C971.987 582.512 972.819 584.88 974.003 586.896C975.219 588.912 976.915 590.496 979.091 591.648C981.299 592.768 984.131 593.328 987.587 593.328C991.555 593.328 994.899 592.592 997.619 591.12C1000.37 589.648 1002.45 587.344 1003.86 584.208C1005.27 581.04 1005.97 576.944 1005.97 571.92V523.776H997.139V522H1016.77ZM1019.9 594V592.224H1028.54V523.776H1019.9V522H1046.3V523.776H1037.71V592.224H1052.54C1056.32 592.224 1059.34 591.776 1061.62 590.88C1063.92 589.952 1065.65 588.624 1066.8 586.896C1067.98 585.168 1068.77 583.088 1069.15 580.656C1069.57 578.192 1069.78 575.44 1069.78 572.4H1071.55V594H1019.9ZM1074.68 594V592.224H1083.32V523.776H1074.68V522H1101.08V523.776H1092.49V592.224H1107.32C1111.1 592.224 1114.12 591.776 1116.39 590.88C1118.7 589.952 1120.42 588.624 1121.58 586.896C1122.76 585.168 1123.54 583.088 1123.93 580.656C1124.34 578.192 1124.55 575.44 1124.55 572.4H1126.33V594H1074.68ZM1183.65 594.96C1178.78 594.96 1174.45 594.016 1170.64 592.128C1166.83 590.208 1163.6 587.552 1160.94 584.16C1158.32 580.768 1156.32 576.848 1154.94 572.4C1153.6 567.92 1152.93 563.12 1152.93 558C1152.93 552.88 1153.65 548.096 1155.09 543.648C1156.56 539.168 1158.64 535.232 1161.33 531.84C1164.02 528.448 1167.25 525.808 1171.02 523.92C1174.8 522 1179.01 521.04 1183.65 521.04C1188.29 521.04 1192.48 522 1196.22 523.92C1200 525.808 1203.23 528.448 1205.92 531.84C1208.64 535.232 1210.72 539.168 1212.16 543.648C1213.6 548.096 1214.32 552.88 1214.32 558C1214.32 563.12 1213.63 567.92 1212.26 572.4C1210.91 576.848 1208.93 580.768 1206.3 584.16C1203.68 587.552 1200.46 590.208 1196.66 592.128C1192.85 594.016 1188.51 594.96 1183.65 594.96ZM1183.65 593.328C1187.84 593.328 1191.22 592.336 1193.78 590.352C1196.37 588.336 1198.35 585.632 1199.73 582.24C1201.14 578.848 1202.08 575.056 1202.56 570.864C1203.07 566.64 1203.33 562.352 1203.33 558C1203.33 553.648 1203.02 549.376 1202.42 545.184C1201.84 540.96 1200.83 537.152 1199.39 533.76C1197.95 530.368 1195.95 527.68 1193.39 525.696C1190.83 523.68 1187.58 522.672 1183.65 522.672C1179.71 522.672 1176.46 523.68 1173.9 525.696C1171.34 527.68 1169.33 530.368 1167.86 533.76C1166.42 537.152 1165.39 540.96 1164.78 545.184C1164.21 549.376 1163.92 553.648 1163.92 558C1163.92 562.352 1164.18 566.64 1164.69 570.864C1165.2 575.056 1166.14 578.848 1167.52 582.24C1168.9 585.632 1170.88 588.336 1173.47 590.352C1176.1 592.336 1179.49 593.328 1183.65 593.328ZM1253.54 568.272C1253.54 566.128 1253.12 564.384 1252.29 563.04C1251.49 561.664 1250.21 560.656 1248.45 560.016C1246.69 559.376 1244.42 559.056 1241.64 559.056H1235.35V557.328H1241.64C1244.42 557.328 1246.69 557.056 1248.45 556.512C1250.21 555.968 1251.49 555.056 1252.29 553.776C1253.12 552.496 1253.54 550.784 1253.54 548.64H1255.32V568.272H1253.54ZM1269.72 522V541.68H1267.99C1267.99 538.256 1267.48 535.2 1266.45 532.512C1265.46 529.792 1263.84 527.664 1261.6 526.128C1259.36 524.56 1256.37 523.776 1252.63 523.776H1237.32V592.224H1246.87V594H1219.51V592.224H1228.15V523.776H1219.51V522H1269.72ZM252.392 709V707.224H263V638.776H252.392V637H295.16V638.776H283.64V707.224H295.16V709H252.392ZM329.589 637C337.685 637 344.597 638.456 350.325 641.368C356.053 644.248 360.421 648.376 363.429 653.752C366.469 659.128 367.989 665.544 367.989 673C367.989 678.6 367.077 683.624 365.253 688.072C363.461 692.488 360.885 696.264 357.525 699.4C354.165 702.504 350.117 704.888 345.381 706.552C340.677 708.184 335.413 709 329.589 709H294.981V707.224H303.669V638.776H294.981V637H329.589ZM324.309 707.224H329.589C332.565 707.224 335.061 706.408 337.077 704.776C339.125 703.144 340.757 700.808 341.973 697.768C343.189 694.728 344.069 691.112 344.613 686.92C345.157 682.728 345.429 678.088 345.429 673C345.429 667.912 345.109 663.272 344.469 659.08C343.861 654.888 342.901 651.272 341.589 648.232C340.309 645.192 338.677 642.856 336.693 641.224C334.709 639.592 332.341 638.776 329.589 638.776H324.309V707.224ZM370.288 709V707.224H378.976V638.776H370.288V637H429.376V656.68H427.6C426.64 653.256 425.072 650.2 422.896 647.512C420.72 644.792 418.064 642.664 414.928 641.128C411.824 639.56 408.4 638.776 404.656 638.776H399.616V707.224H403.696C408.08 707.224 411.952 706.424 415.312 704.824C418.704 703.192 421.52 700.904 423.76 697.96C426 694.984 427.6 691.464 428.56 687.4H430.336V709H370.288ZM414.112 685.192C413.152 683.048 411.904 681.016 410.368 679.096C408.832 677.176 407.136 675.624 405.28 674.44C403.456 673.224 401.632 672.616 399.808 672.616H396.928V670.888H399.808C401.632 670.888 403.456 670.344 405.28 669.256C407.136 668.136 408.832 666.648 410.368 664.792C411.904 662.936 413.152 660.936 414.112 658.792H415.936V685.192H414.112ZM443.291 637V707.224H454.187V709H431.627V707.224H441.467V638.776H431.627V637H443.291ZM504.635 637V638.776H494.555V709.96H492.107L442.043 637H466.475L492.731 674.728V638.776H482.171V637H504.635ZM517.962 709V707.224H528.522V638.776H526.41C524.106 638.776 521.946 639.384 519.93 640.6C517.914 641.784 516.09 643.432 514.458 645.544C512.826 647.656 511.402 650.088 510.186 652.84C509.002 655.56 508.042 658.44 507.306 661.48H505.434V637H572.202V661.48H570.426C569.722 658.44 568.762 655.56 567.546 652.84C566.33 650.088 564.906 647.656 563.274 645.544C561.642 643.432 559.818 641.784 557.802 640.6C555.786 639.384 553.626 638.776 551.322 638.776H549.162V707.224H559.722V709H517.962ZM572.023 709V707.224H582.631V638.776H572.023V637H614.791V638.776H603.271V707.224H614.791V709H572.023ZM628.078 709V707.224H638.638V638.776H636.526C634.222 638.776 632.062 639.384 630.046 640.6C628.03 641.784 626.206 643.432 624.574 645.544C622.942 647.656 621.518 650.088 620.302 652.84C619.118 655.56 618.158 658.44 617.422 661.48H615.55V637H682.318V661.48H680.542C679.838 658.44 678.878 655.56 677.662 652.84C676.446 650.088 675.022 647.656 673.39 645.544C671.758 643.432 669.934 641.784 667.918 640.6C665.902 639.384 663.742 638.776 661.438 638.776H659.278V707.224H669.838V709H628.078ZM700.452 709V707.224H709.044V674.44L689.364 638.776H682.644V637H722.004V638.776H713.316L729.156 670.024L744.036 638.776H734.004V637H754.164V638.776H746.148L729.684 672.952V707.224H739.284V709H700.452ZM772.756 686.44V684.664H803.812V686.44H772.756ZM790.852 635.608L815.668 707.224H823.108V709H795.268V707.224H805.156L786.244 648.712L765.844 707.224H776.116V709H754.996V707.224H763.828L789.028 635.608H790.852ZM837.655 637V707.224H849.031V709H825.991V707.224H835.831V638.776H825.991V637H837.655ZM894.247 637V638.776H884.119V709.96H881.671L836.359 637H847.399L882.295 694.168V638.776H871.207V637H894.247ZM923.96 637C931.096 637 937.24 638.584 942.392 641.752C947.544 644.888 951.512 649.176 954.296 654.616C957.112 660.056 958.52 666.184 958.52 673C958.52 678.12 957.688 682.872 956.024 687.256C954.36 691.608 951.992 695.416 948.92 698.68C945.848 701.944 942.2 704.488 937.976 706.312C933.752 708.104 929.08 709 923.96 709H897.08V707.224H905.72V638.776H897.08V637H923.96ZM914.888 707.224H923.96C928.376 707.224 932.088 706.28 935.096 704.392C938.104 702.504 940.52 699.944 942.344 696.712C944.168 693.448 945.48 689.768 946.28 685.672C947.08 681.576 947.48 677.352 947.48 673C947.48 668.648 947.032 664.424 946.136 660.328C945.24 656.232 943.848 652.568 941.96 649.336C940.104 646.072 937.688 643.496 934.712 641.608C931.736 639.72 928.152 638.776 923.96 638.776H914.888V707.224ZM1013.11 637C1018.9 637 1023.62 637.864 1027.27 639.592C1030.95 641.288 1033.67 643.688 1035.43 646.792C1037.19 649.864 1038.07 653.48 1038.07 657.64C1038.07 661.8 1037.19 665.4 1035.43 668.44C1033.67 671.448 1030.95 673.768 1027.27 675.4C1023.62 677 1018.9 677.8 1013.11 677.8H1002.6V707.224H1011.19V709H984.789V707.224H993.429V638.776H984.789V637H1013.11ZM1002.6 676.024H1013.11C1015.41 676.024 1017.44 675.48 1019.2 674.392C1021 673.304 1022.5 671.864 1023.72 670.072C1024.96 668.28 1025.91 666.296 1026.55 664.12C1027.19 661.944 1027.51 659.784 1027.51 657.64C1027.51 655.496 1027.19 653.32 1026.55 651.112C1025.91 648.904 1024.96 646.872 1023.72 645.016C1022.5 643.128 1021 641.624 1019.2 640.504C1017.44 639.352 1015.41 638.776 1013.11 638.776H1002.6V676.024ZM1043.03 709V707.224H1051.67V638.776H1043.03V637H1094.2V656.68H1092.47C1092.47 653.256 1091.98 650.2 1090.99 647.512C1089.99 644.792 1088.38 642.664 1086.14 641.128C1083.9 639.56 1080.91 638.776 1077.16 638.776H1060.84V707.224H1076.15C1080.54 707.224 1083.98 706.424 1086.47 704.824C1089 703.192 1090.79 700.904 1091.85 697.96C1092.91 694.984 1093.43 691.464 1093.43 687.4H1095.16V709H1043.03ZM1076.15 682.264C1076.15 680.12 1075.74 678.344 1074.91 676.936C1074.07 675.496 1072.92 674.424 1071.45 673.72C1070.01 673.016 1068.38 672.664 1066.55 672.664H1058.44V670.888H1066.55C1068.38 670.888 1070.01 670.568 1071.45 669.928C1072.92 669.288 1074.07 668.296 1074.91 666.952C1075.74 665.576 1076.15 663.816 1076.15 661.672H1077.88V682.264H1076.15ZM1116.59 672.76V671.704H1130.99C1134.06 671.704 1136.67 671.08 1138.81 669.832C1140.99 668.552 1142.64 666.696 1143.76 664.264C1144.88 661.8 1145.44 658.824 1145.44 655.336C1145.44 651.848 1144.88 648.872 1143.76 646.408C1142.64 643.912 1140.99 642.024 1138.81 640.744C1136.67 639.432 1134.06 638.776 1130.99 638.776H1099.31V637H1130.99C1135.82 637 1140.03 637.672 1143.61 639.016C1147.23 640.328 1150.03 642.344 1152.01 645.064C1154 647.752 1154.99 651.176 1154.99 655.336C1154.99 659.496 1154.06 662.856 1152.21 665.416C1150.35 667.976 1147.63 669.848 1144.05 671.032C1140.49 672.184 1136.14 672.76 1130.99 672.76H1116.59ZM1099.31 709V707.224H1129.6V709H1099.31ZM1109.87 708.04V638.2H1118.99V708.04H1109.87ZM1154.51 709.48C1151.73 709.48 1149.55 708.984 1147.98 707.992C1146.45 706.968 1145.33 705.608 1144.62 703.912C1143.92 702.184 1143.47 700.248 1143.28 698.104C1143.12 695.96 1143.02 693.752 1142.99 691.48C1142.96 689.208 1142.83 687 1142.61 684.856C1142.38 682.712 1141.89 680.792 1141.12 679.096C1140.35 677.368 1139.12 676.008 1137.42 675.016C1135.76 673.992 1133.45 673.48 1130.51 673.48H1116.59V672.52H1132.43C1137.04 672.52 1140.69 673.16 1143.37 674.44C1146.09 675.688 1148.14 677.352 1149.52 679.432C1150.89 681.512 1151.82 683.8 1152.3 686.296C1152.78 688.76 1153.04 691.24 1153.07 693.736C1153.1 696.2 1153.17 698.472 1153.26 700.552C1153.39 702.632 1153.74 704.296 1154.32 705.544C1154.93 706.792 1156.05 707.416 1157.68 707.416C1158.7 707.416 1159.6 707.32 1160.37 707.128C1161.17 706.904 1161.89 706.632 1162.53 706.312L1163.15 707.992C1162.38 708.408 1161.23 708.76 1159.69 709.048C1158.19 709.336 1156.46 709.48 1154.51 709.48ZM1192.26 710.392C1188.13 710.392 1184.56 709.752 1181.56 708.472C1178.55 707.192 1176.04 705.432 1174.02 703.192L1169.51 709.96H1167.97V690.232H1169.75C1170.26 692.888 1171.08 695.32 1172.2 697.528C1173.32 699.736 1174.76 701.672 1176.52 703.336C1178.31 704.968 1180.44 706.248 1182.9 707.176C1185.36 708.072 1188.2 708.52 1191.4 708.52C1194.79 708.52 1197.73 707.944 1200.23 706.792C1202.72 705.64 1204.64 703.96 1205.99 701.752C1207.33 699.544 1208 696.856 1208 693.688C1208 690.872 1207.32 688.504 1205.94 686.584C1204.56 684.632 1202.72 682.952 1200.42 681.544C1198.15 680.104 1195.65 678.776 1192.93 677.56C1190.21 676.344 1187.48 675.08 1184.72 673.768C1182 672.456 1179.49 670.936 1177.19 669.208C1174.92 667.448 1173.09 665.336 1171.72 662.872C1170.34 660.376 1169.65 657.352 1169.65 653.8C1169.65 650.248 1170.55 647.144 1172.34 644.488C1174.13 641.832 1176.53 639.768 1179.54 638.296C1182.58 636.792 1185.92 636.04 1189.57 636.04C1192.74 636.04 1195.65 636.552 1198.31 637.576C1200.96 638.568 1203.27 640.088 1205.22 642.136L1209.73 636.04H1211.22V655.768H1209.49C1208.85 651.736 1207.65 648.408 1205.89 645.784C1204.13 643.16 1201.94 641.224 1199.32 639.976C1196.69 638.696 1193.75 638.056 1190.48 638.056C1185.91 638.056 1182.44 639.144 1180.07 641.32C1177.73 643.464 1176.56 646.328 1176.56 649.912C1176.56 652.44 1177.24 654.584 1178.58 656.344C1179.96 658.104 1181.76 659.656 1184 661C1186.24 662.312 1188.71 663.56 1191.4 664.744C1194.08 665.928 1196.77 667.208 1199.46 668.584C1202.15 669.928 1204.61 671.544 1206.85 673.432C1209.09 675.288 1210.88 677.544 1212.23 680.2C1213.6 682.824 1214.29 686.024 1214.29 689.8C1214.29 693.96 1213.4 697.592 1211.6 700.696C1209.81 703.768 1207.27 706.152 1203.97 707.848C1200.68 709.544 1196.77 710.392 1192.26 710.392ZM1250.93 709.96C1246.07 709.96 1241.73 709.016 1237.93 707.128C1234.12 705.208 1230.89 702.552 1228.23 699.16C1225.61 695.768 1223.61 691.848 1222.23 687.4C1220.89 682.92 1220.21 678.12 1220.21 673C1220.21 667.88 1220.93 663.096 1222.37 658.648C1223.85 654.168 1225.93 650.232 1228.61 646.84C1231.3 643.448 1234.53 640.808 1238.31 638.92C1242.09 637 1246.29 636.04 1250.93 636.04C1255.57 636.04 1259.77 637 1263.51 638.92C1267.29 640.808 1270.52 643.448 1273.21 646.84C1275.93 650.232 1278.01 654.168 1279.45 658.648C1280.89 663.096 1281.61 667.88 1281.61 673C1281.61 678.12 1280.92 682.92 1279.54 687.4C1278.2 691.848 1276.21 695.768 1273.59 699.16C1270.97 702.552 1267.75 705.208 1263.94 707.128C1260.13 709.016 1255.8 709.96 1250.93 709.96ZM1250.93 708.328C1255.13 708.328 1258.5 707.336 1261.06 705.352C1263.65 703.336 1265.64 700.632 1267.01 697.24C1268.42 693.848 1269.37 690.056 1269.85 685.864C1270.36 681.64 1270.61 677.352 1270.61 673C1270.61 668.648 1270.31 664.376 1269.7 660.184C1269.13 655.96 1268.12 652.152 1266.68 648.76C1265.24 645.368 1263.24 642.68 1260.68 640.696C1258.12 638.68 1254.87 637.672 1250.93 637.672C1247 637.672 1243.75 638.68 1241.19 640.696C1238.63 642.68 1236.61 645.368 1235.14 648.76C1233.7 652.152 1232.68 655.96 1232.07 660.184C1231.49 664.376 1231.21 668.648 1231.21 673C1231.21 677.352 1231.46 681.64 1231.97 685.864C1232.49 690.056 1233.43 693.848 1234.81 697.24C1236.18 700.632 1238.17 703.336 1240.76 705.352C1243.38 707.336 1246.77 708.328 1250.93 708.328ZM1298.46 637V707.224H1309.84V709H1286.8V707.224H1296.64V638.776H1286.8V637H1298.46ZM1355.05 637V638.776H1344.92V709.96H1342.48L1297.16 637H1308.2L1343.1 694.168V638.776H1332.01V637H1355.05ZM1375.64 686.44V684.664H1406.7V686.44H1375.64ZM1393.74 635.608L1418.56 707.224H1426V709H1398.16V707.224H1408.04L1389.13 648.712L1368.73 707.224H1379V709H1357.88V707.224H1366.72L1391.92 635.608H1393.74ZM1428.88 709V707.224H1437.52V638.776H1428.88V637H1455.28V638.776H1446.69V707.224H1461.52C1465.29 707.224 1468.32 706.776 1470.59 705.88C1472.89 704.952 1474.62 703.624 1475.77 701.896C1476.96 700.168 1477.74 698.088 1478.13 695.656C1478.54 693.192 1478.75 690.44 1478.75 687.4H1480.53V709H1428.88ZM1483.66 709V707.224H1494.22V638.776H1483.66V637H1514.86V638.776H1503.34V707.224H1514.86V709H1483.66ZM1532.86 709V707.224H1543.42V638.776H1533.82C1531 638.776 1528.71 639.24 1526.95 640.168C1525.23 641.064 1523.88 642.376 1522.92 644.104C1521.99 645.832 1521.35 647.928 1521 650.392C1520.65 652.824 1520.47 655.56 1520.47 658.6H1518.65V637H1577.31V658.6H1575.53C1575.53 655.56 1575.35 652.824 1575 650.392C1574.65 647.928 1573.99 645.832 1573.03 644.104C1572.07 642.376 1570.71 641.064 1568.95 640.168C1567.23 639.24 1564.95 638.776 1562.14 638.776H1552.54V707.224H1563.1V709H1532.86ZM1600.79 709V707.224H1609.43V674.392L1587.55 638.776H1580.2V637H1608.04V638.776H1598.11L1617.55 670.696L1636.51 638.776H1626.38V637H1645.96V638.776H1638.62L1618.55 672.232V707.224H1628.2V709H1600.79Z" fill="#22223A"/>
</g>
<defs>
<clipPath id="clip0_1_1321">
<rect width="1920" height="1080" fill="white"/>
</clipPath>
</defs>
</svg>
