<svg width="1920" height="1080" viewBox="0 0 1920 1080" fill="none" xmlns="http://www.w3.org/2000/svg">
<g clip-path="url(#clip0_1_946)">
<rect width="1920" height="1080" fill="#3A3A3A"/>
<path opacity="0.3" d="M906.935 953V933.482H1007.16V257.755L693.298 716.152H1286.74V735.67H657.428L1049.36 161.75H1170.69V933.482H1249.81V953H906.935Z" fill="#F6F6F6"/>
<g opacity="0.1">
<path d="M1353.67 368.833L1353.67 230.5L800.334 230.5L800.334 368.833L1353.67 368.833Z" fill="#F2E9E4"/>
<path d="M1353.67 645.5L1353.67 507.167L800.334 507.167L800.334 645.5L1353.67 645.5Z" fill="#F2E9E4"/>
</g>
<path d="M291.32 479.96C283.544 479.96 276.936 478.36 271.496 475.16C266.088 471.96 261.96 467.576 259.112 462.008C256.264 456.44 254.84 450.104 254.84 443C254.84 435.864 256.264 429.528 259.112 423.992C261.96 418.424 266.088 414.04 271.496 410.84C276.936 407.64 283.544 406.04 291.32 406.04C294.04 406.04 296.504 406.504 298.712 407.432C300.92 408.328 302.952 409.624 304.808 411.32L315.224 407H316.76V429.608H314.84C312.632 425.416 310.44 421.72 308.264 418.52C306.088 415.32 303.72 412.84 301.16 411.08C298.632 409.288 295.672 408.392 292.28 408.392C289.304 408.392 286.84 409.368 284.888 411.32C282.968 413.24 281.464 415.848 280.376 419.144C279.288 422.44 278.52 426.152 278.072 430.28C277.624 434.376 277.4 438.616 277.4 443C277.4 447.352 277.624 451.592 278.072 455.72C278.52 459.848 279.288 463.56 280.376 466.856C281.464 470.152 282.968 472.776 284.888 474.728C286.84 476.648 289.304 477.608 292.28 477.608C295.416 477.608 298.12 477.064 300.392 475.976C302.696 474.888 304.712 473.384 306.44 471.464C308.2 469.544 309.832 467.304 311.336 464.744C312.84 462.152 314.344 459.368 315.848 456.392H317.768V479H316.136L306.488 474.392C304.472 476.184 302.216 477.56 299.72 478.52C297.256 479.48 294.456 479.96 291.32 479.96ZM398.78 407V408.776H390.14V477.224H398.78V479H361.82V477.224H369.5V444.344H349.34V477.224H357.02V479H320.012V477.224H328.7V408.776H320.012V407H357.02V408.776H349.34V442.616H369.5V408.776H361.82V407H398.78ZM415.689 456.728V455H443.337V456.728H415.689ZM443.289 405.608L468.153 477.224H475.449V479H437.241V477.224H444.201L427.593 426.104L409.545 477.224H419.817V479H398.601V477.224H407.481L432.873 405.608H443.289ZM492.691 442.232V441.128H506.083C509.155 441.128 511.683 440.632 513.667 439.64C515.651 438.616 517.123 436.92 518.083 434.552C519.043 432.152 519.523 428.888 519.523 424.76C519.523 420.632 519.043 417.416 518.083 415.112C517.123 412.776 515.651 411.144 513.667 410.216C511.683 409.256 509.155 408.776 506.083 408.776H475.315V407H510.883C516.675 407 521.811 407.624 526.291 408.872C530.771 410.088 534.291 412.008 536.851 414.632C539.411 417.224 540.691 420.6 540.691 424.76C540.691 428.92 539.475 432.28 537.043 434.84C534.643 437.4 531.203 439.272 526.723 440.456C522.275 441.64 516.995 442.232 510.883 442.232H492.691ZM475.315 479V477.224H513.283V479H475.315ZM484.003 478.04V407.72H504.643V478.04H484.003ZM534.403 479.96C530.659 479.96 527.699 479.448 525.523 478.424C523.347 477.368 521.731 475.96 520.675 474.2C519.619 472.44 518.915 470.472 518.563 468.296C518.243 466.088 518.067 463.816 518.035 461.48C518.035 459.112 517.971 456.84 517.843 454.664C517.715 452.456 517.331 450.472 516.691 448.712C516.051 446.952 514.931 445.56 513.331 444.536C511.763 443.48 509.507 442.952 506.563 442.952H492.691V441.992H520.003C524.291 441.992 527.667 442.632 530.131 443.912C532.627 445.16 534.467 446.84 535.651 448.952C536.835 451.032 537.603 453.32 537.955 455.816C538.307 458.28 538.467 460.76 538.435 463.256C538.403 465.752 538.419 468.04 538.483 470.12C538.547 472.2 538.883 473.88 539.491 475.16C540.131 476.44 541.299 477.08 542.995 477.08C544.019 477.08 544.979 476.968 545.875 476.744C546.771 476.488 547.555 476.2 548.227 475.88L548.803 477.608C548.035 478.024 546.355 478.52 543.763 479.096C541.171 479.672 538.051 479.96 534.403 479.96ZM565.741 456.728V455H593.389V456.728H565.741ZM593.341 405.608L618.205 477.224H625.501V479H587.293V477.224H594.253L577.645 426.104L559.597 477.224H569.869V479H548.653V477.224H557.533L582.925 405.608H593.341ZM664.295 479.96C656.519 479.96 649.911 478.36 644.471 475.16C639.063 471.96 634.935 467.576 632.087 462.008C629.239 456.44 627.815 450.104 627.815 443C627.815 435.864 629.239 429.528 632.087 423.992C634.935 418.424 639.063 414.04 644.471 410.84C649.911 407.64 656.519 406.04 664.295 406.04C667.015 406.04 669.479 406.504 671.687 407.432C673.895 408.328 675.927 409.624 677.783 411.32L688.199 407H689.735V429.608H687.815C685.607 425.416 683.415 421.72 681.239 418.52C679.063 415.32 676.695 412.84 674.135 411.08C671.607 409.288 668.647 408.392 665.255 408.392C662.279 408.392 659.815 409.368 657.863 411.32C655.943 413.24 654.439 415.848 653.351 419.144C652.263 422.44 651.495 426.152 651.047 430.28C650.599 434.376 650.375 438.616 650.375 443C650.375 447.352 650.599 451.592 651.047 455.72C651.495 459.848 652.263 463.56 653.351 466.856C654.439 470.152 655.943 472.776 657.863 474.728C659.815 476.648 662.279 477.608 665.255 477.608C668.391 477.608 671.095 477.064 673.367 475.976C675.671 474.888 677.687 473.384 679.415 471.464C681.175 469.544 682.807 467.304 684.311 464.744C685.815 462.152 687.319 459.368 688.823 456.392H690.743V479H689.111L679.463 474.392C677.447 476.184 675.191 477.56 672.695 478.52C670.231 479.48 667.431 479.96 664.295 479.96ZM705.515 479V477.224H716.075V408.776H713.963C711.659 408.776 709.499 409.384 707.483 410.6C705.467 411.784 703.643 413.432 702.011 415.544C700.379 417.656 698.955 420.088 697.739 422.84C696.555 425.56 695.595 428.44 694.859 431.48H692.987V407H759.755V431.48H757.979C757.275 428.44 756.315 425.56 755.099 422.84C753.883 420.088 752.459 417.656 750.827 415.544C749.195 413.432 747.371 411.784 745.355 410.6C743.339 409.384 741.179 408.776 738.875 408.776H736.715V477.224H747.275V479H705.515ZM759.576 479V477.224H768.264V408.776H759.576V407H818.664V426.68H816.888C815.928 423.256 814.36 420.2 812.184 417.512C810.008 414.792 807.352 412.664 804.216 411.128C801.112 409.56 797.688 408.776 793.944 408.776H788.904V477.224H792.984C797.368 477.224 801.24 476.424 804.6 474.824C807.992 473.192 810.808 470.904 813.048 467.96C815.288 464.984 816.888 461.464 817.848 457.4H819.624V479H759.576ZM803.4 455.192C802.44 453.048 801.192 451.016 799.656 449.096C798.12 447.176 796.424 445.624 794.568 444.44C792.744 443.224 790.92 442.616 789.096 442.616H786.216V440.888H789.096C790.92 440.888 792.744 440.344 794.568 439.256C796.424 438.136 798.12 436.648 799.656 434.792C801.192 432.936 802.44 430.936 803.4 428.792H805.224V455.192H803.4ZM838.291 442.232V441.128H851.683C854.755 441.128 857.283 440.632 859.267 439.64C861.251 438.616 862.723 436.92 863.683 434.552C864.643 432.152 865.123 428.888 865.123 424.76C865.123 420.632 864.643 417.416 863.683 415.112C862.723 412.776 861.251 411.144 859.267 410.216C857.283 409.256 854.755 408.776 851.683 408.776H820.915V407H856.483C862.275 407 867.411 407.624 871.891 408.872C876.371 410.088 879.891 412.008 882.451 414.632C885.011 417.224 886.291 420.6 886.291 424.76C886.291 428.92 885.075 432.28 882.643 434.84C880.243 437.4 876.803 439.272 872.323 440.456C867.875 441.64 862.595 442.232 856.483 442.232H838.291ZM820.915 479V477.224H858.883V479H820.915ZM829.603 478.04V407.72H850.243V478.04H829.603ZM880.003 479.96C876.259 479.96 873.299 479.448 871.123 478.424C868.947 477.368 867.331 475.96 866.275 474.2C865.219 472.44 864.515 470.472 864.163 468.296C863.843 466.088 863.667 463.816 863.635 461.48C863.635 459.112 863.571 456.84 863.443 454.664C863.315 452.456 862.931 450.472 862.291 448.712C861.651 446.952 860.531 445.56 858.931 444.536C857.363 443.48 855.107 442.952 852.163 442.952H838.291V441.992H865.603C869.891 441.992 873.267 442.632 875.731 443.912C878.227 445.16 880.067 446.84 881.251 448.952C882.435 451.032 883.203 453.32 883.555 455.816C883.907 458.28 884.067 460.76 884.035 463.256C884.003 465.752 884.019 468.04 884.083 470.12C884.147 472.2 884.483 473.88 885.091 475.16C885.731 476.44 886.899 477.08 888.595 477.08C889.619 477.08 890.579 476.968 891.475 476.744C892.371 476.488 893.155 476.2 893.827 475.88L894.403 477.608C893.635 478.024 891.955 478.52 889.363 479.096C886.771 479.672 883.651 479.96 880.003 479.96ZM946.873 479.96L924.745 408.776H915.673V407H983.929V408.776H960.505L978.025 465.464L997.897 408.776H988.777V407H1007.59V408.776H999.865L974.953 479.96H972.985L950.905 408.776H934.345L951.961 465.464L961.849 437.912L962.809 440.984L948.793 479.96H946.873ZM967.369 433.64L965.833 432.2L973.993 407.72L975.913 408.2L967.369 433.64ZM1042.77 479.96C1037.91 479.96 1033.57 479.016 1029.76 477.128C1025.96 475.208 1022.72 472.552 1020.07 469.16C1017.44 465.768 1015.44 461.848 1014.07 457.4C1012.72 452.92 1012.05 448.12 1012.05 443C1012.05 437.88 1012.77 433.096 1014.21 428.648C1015.68 424.168 1017.76 420.232 1020.45 416.84C1023.14 413.448 1026.37 410.808 1030.15 408.92C1033.92 407 1038.13 406.04 1042.77 406.04C1047.41 406.04 1051.6 407 1055.35 408.92C1059.12 410.808 1062.36 413.448 1065.04 416.84C1067.76 420.232 1069.84 424.168 1071.28 428.648C1072.72 433.096 1073.44 437.88 1073.44 443C1073.44 448.12 1072.76 452.92 1071.38 457.4C1070.04 461.848 1068.05 465.768 1065.43 469.16C1062.8 472.552 1059.59 475.208 1055.78 477.128C1051.97 479.016 1047.64 479.96 1042.77 479.96ZM1042.77 478.328C1046.96 478.328 1050.34 477.336 1052.9 475.352C1055.49 473.336 1057.48 470.632 1058.85 467.24C1060.26 463.848 1061.2 460.056 1061.68 455.864C1062.2 451.64 1062.45 447.352 1062.45 443C1062.45 438.648 1062.15 434.376 1061.54 430.184C1060.96 425.96 1059.96 422.152 1058.52 418.76C1057.08 415.368 1055.08 412.68 1052.52 410.696C1049.96 408.68 1046.71 407.672 1042.77 407.672C1038.84 407.672 1035.59 408.68 1033.03 410.696C1030.47 412.68 1028.45 415.368 1026.98 418.76C1025.54 422.152 1024.52 425.96 1023.91 430.184C1023.33 434.376 1023.04 438.648 1023.04 443C1023.04 447.352 1023.3 451.64 1023.81 455.864C1024.32 460.056 1025.27 463.848 1026.64 467.24C1028.02 470.632 1030 473.336 1032.6 475.352C1035.22 477.336 1038.61 478.328 1042.77 478.328ZM1095.91 442.76V441.704H1110.31C1113.38 441.704 1115.99 441.08 1118.14 439.832C1120.31 438.552 1121.96 436.696 1123.08 434.264C1124.2 431.8 1124.76 428.824 1124.76 425.336C1124.76 421.848 1124.2 418.872 1123.08 416.408C1121.96 413.912 1120.31 412.024 1118.14 410.744C1115.99 409.432 1113.38 408.776 1110.31 408.776H1078.63V407H1110.31C1115.14 407 1119.35 407.672 1122.94 409.016C1126.55 410.328 1129.35 412.344 1131.34 415.064C1133.32 417.752 1134.31 421.176 1134.31 425.336C1134.31 429.496 1133.38 432.856 1131.53 435.416C1129.67 437.976 1126.95 439.848 1123.37 441.032C1119.82 442.184 1115.46 442.76 1110.31 442.76H1095.91ZM1078.63 479V477.224H1108.92V479H1078.63ZM1089.19 478.04V408.2H1098.31V478.04H1089.19ZM1133.83 479.48C1131.05 479.48 1128.87 478.984 1127.3 477.992C1125.77 476.968 1124.65 475.608 1123.94 473.912C1123.24 472.184 1122.79 470.248 1122.6 468.104C1122.44 465.96 1122.34 463.752 1122.31 461.48C1122.28 459.208 1122.15 457 1121.93 454.856C1121.7 452.712 1121.21 450.792 1120.44 449.096C1119.67 447.368 1118.44 446.008 1116.74 445.016C1115.08 443.992 1112.78 443.48 1109.83 443.48H1095.91V442.52H1111.75C1116.36 442.52 1120.01 443.16 1122.7 444.44C1125.42 445.688 1127.46 447.352 1128.84 449.432C1130.22 451.512 1131.14 453.8 1131.62 456.296C1132.1 458.76 1132.36 461.24 1132.39 463.736C1132.42 466.2 1132.49 468.472 1132.58 470.552C1132.71 472.632 1133.06 474.296 1133.64 475.544C1134.25 476.792 1135.37 477.416 1137 477.416C1138.02 477.416 1138.92 477.32 1139.69 477.128C1140.49 476.904 1141.21 476.632 1141.85 476.312L1142.47 477.992C1141.7 478.408 1140.55 478.76 1139.02 479.048C1137.51 479.336 1135.78 479.48 1133.83 479.48ZM1154.16 458.168L1190.83 408.776H1180.37V407H1203.41V408.776H1193.42L1156.75 458.168H1154.16ZM1144.85 479V477.224H1153.49V408.776H1144.85V407H1172.21V408.776H1162.65V477.224H1172.21V479H1144.85ZM1177.97 479V477.224H1187.76L1167.45 441.224L1173.41 433.784L1199.23 477.224H1207.73V479H1177.97ZM271.64 571.44V569.664H302.696V571.44H271.64ZM289.736 520.608L314.552 592.224H321.992V594H294.152V592.224H304.04L285.128 533.712L264.728 592.224H275V594H253.88V592.224H262.712L287.912 520.608H289.736ZM336.539 522V592.224H347.915V594H324.875V592.224H334.715V523.776H324.875V522H336.539ZM393.131 522V523.776H383.003V594.96H380.555L335.243 522H346.283L381.179 579.168V523.776H370.091V522H393.131ZM422.844 522C429.98 522 436.124 523.584 441.276 526.752C446.428 529.888 450.396 534.176 453.18 539.616C455.996 545.056 457.404 551.184 457.404 558C457.404 563.12 456.572 567.872 454.908 572.256C453.244 576.608 450.876 580.416 447.804 583.68C444.732 586.944 441.084 589.488 436.86 591.312C432.636 593.104 427.964 594 422.844 594H395.964V592.224H404.604V523.776H395.964V522H422.844ZM413.772 592.224H422.844C427.26 592.224 430.972 591.28 433.98 589.392C436.988 587.504 439.404 584.944 441.228 581.712C443.052 578.448 444.364 574.768 445.164 570.672C445.964 566.576 446.364 562.352 446.364 558C446.364 553.648 445.916 549.424 445.02 545.328C444.124 541.232 442.732 537.568 440.844 534.336C438.988 531.072 436.572 528.496 433.596 526.608C430.62 524.72 427.036 523.776 422.844 523.776H413.772V592.224ZM516.744 594.96C511.88 594.96 507.544 594.016 503.736 592.128C499.928 590.208 496.696 587.552 494.04 584.16C491.416 580.768 489.416 576.848 488.04 572.4C486.696 567.92 486.024 563.12 486.024 558C486.024 552.88 486.744 548.096 488.184 543.648C489.656 539.168 491.736 535.232 494.424 531.84C497.112 528.448 500.344 525.808 504.12 523.92C507.896 522 512.104 521.04 516.744 521.04C521.384 521.04 525.576 522 529.32 523.92C533.096 525.808 536.328 528.448 539.016 531.84C541.736 535.232 543.816 539.168 545.256 543.648C546.696 548.096 547.416 552.88 547.416 558C547.416 563.12 546.728 567.92 545.352 572.4C544.008 576.848 542.024 580.768 539.4 584.16C536.776 587.552 533.56 590.208 529.753 592.128C525.944 594.016 521.608 594.96 516.744 594.96ZM516.744 593.328C520.936 593.328 524.312 592.336 526.872 590.352C529.464 588.336 531.448 585.632 532.825 582.24C534.232 578.848 535.176 575.056 535.656 570.864C536.168 566.64 536.424 562.352 536.424 558C536.424 553.648 536.12 549.376 535.513 545.184C534.937 540.96 533.928 537.152 532.488 533.76C531.048 530.368 529.048 527.68 526.488 525.696C523.928 523.68 520.68 522.672 516.744 522.672C512.808 522.672 509.56 523.68 507 525.696C504.44 527.68 502.424 530.368 500.952 533.76C499.512 537.152 498.488 540.96 497.88 545.184C497.304 549.376 497.016 553.648 497.016 558C497.016 562.352 497.272 566.64 497.784 570.864C498.296 575.056 499.24 578.848 500.616 582.24C501.992 585.632 503.976 588.336 506.568 590.352C509.192 592.336 512.584 593.328 516.744 593.328ZM564.269 522V592.224H575.645V594H552.605V592.224H562.445V523.776H552.605V522H564.269ZM620.861 522V523.776H610.733V594.96H608.285L562.973 522H574.013L608.909 579.168V523.776H597.821V522H620.861ZM671.55 595.392C667.422 595.392 663.854 594.752 660.846 593.472C657.838 592.192 655.326 590.432 653.31 588.192L648.798 594.96H647.262V575.232H649.038C649.55 577.888 650.366 580.32 651.486 582.528C652.606 584.736 654.046 586.672 655.806 588.336C657.598 589.968 659.726 591.248 662.19 592.176C664.654 593.072 667.486 593.52 670.686 593.52C674.078 593.52 677.022 592.944 679.518 591.792C682.014 590.64 683.934 588.96 685.278 586.752C686.622 584.544 687.294 581.856 687.294 578.688C687.294 575.872 686.606 573.504 685.23 571.584C683.854 569.632 682.014 567.952 679.71 566.544C677.438 565.104 674.942 563.776 672.222 562.56C669.502 561.344 666.766 560.08 664.014 558.768C661.294 557.456 658.782 555.936 656.478 554.208C654.206 552.448 652.382 550.336 651.006 547.872C649.63 545.376 648.942 542.352 648.942 538.8C648.942 535.248 649.838 532.144 651.63 529.488C653.422 526.832 655.822 524.768 658.83 523.296C661.87 521.792 665.214 521.04 668.862 521.04C672.03 521.04 674.942 521.552 677.598 522.576C680.254 523.568 682.558 525.088 684.51 527.136L689.022 521.04H690.51V540.768H688.782C688.142 536.736 686.942 533.408 685.182 530.784C683.422 528.16 681.23 526.224 678.606 524.976C675.982 523.696 673.038 523.056 669.774 523.056C665.198 523.056 661.726 524.144 659.358 526.32C657.022 528.464 655.854 531.328 655.854 534.912C655.854 537.44 656.526 539.584 657.87 541.344C659.246 543.104 661.054 544.656 663.294 546C665.534 547.312 667.998 548.56 670.686 549.744C673.374 550.928 676.062 552.208 678.75 553.584C681.438 554.928 683.902 556.544 686.142 558.432C688.382 560.288 690.174 562.544 691.518 565.2C692.894 567.824 693.582 571.024 693.582 574.8C693.582 578.96 692.686 582.592 690.894 585.696C689.102 588.768 686.558 591.152 683.262 592.848C679.966 594.544 676.062 595.392 671.55 595.392ZM732.096 594.96C725.6 594.96 719.904 593.36 715.008 590.16C710.112 586.96 706.304 582.576 703.584 577.008C700.864 571.44 699.504 565.104 699.504 558C699.504 550.864 700.864 544.528 703.584 538.992C706.304 533.424 710.112 529.04 715.008 525.84C719.904 522.64 725.6 521.04 732.096 521.04C735.296 521.04 738.336 521.6 741.216 522.72C744.128 523.808 746.672 525.344 748.848 527.328L753.888 522H755.472V541.68H753.648C753.52 537.936 752.464 534.672 750.48 531.888C748.496 529.104 745.968 526.96 742.896 525.456C739.824 523.92 736.544 523.152 733.056 523.152C728.896 523.152 725.36 524.144 722.448 526.128C719.568 528.08 717.248 530.72 715.488 534.048C713.76 537.376 712.496 541.12 711.696 545.28C710.896 549.408 710.496 553.648 710.496 558C710.496 562.352 710.896 566.608 711.696 570.768C712.496 574.896 713.76 578.624 715.488 581.952C717.248 585.28 719.568 587.936 722.448 589.92C725.36 591.872 728.896 592.848 733.056 592.848C736.224 592.848 739.104 592.368 741.696 591.408C744.288 590.448 746.528 589.12 748.416 587.424C750.336 585.728 751.824 583.76 752.88 581.52C753.936 579.28 754.512 576.88 754.608 574.32H756.432V594H754.848L750.24 588.336C748.064 590.384 745.408 592 742.272 593.184C739.168 594.368 735.776 594.96 732.096 594.96ZM779.896 557.76V556.704H794.296C797.368 556.704 799.976 556.08 802.12 554.832C804.296 553.552 805.944 551.696 807.064 549.264C808.184 546.8 808.744 543.824 808.744 540.336C808.744 536.848 808.184 533.872 807.064 531.408C805.944 528.912 804.296 527.024 802.12 525.744C799.976 524.432 797.368 523.776 794.296 523.776H762.616V522H794.296C799.128 522 803.336 522.672 806.92 524.016C810.536 525.328 813.336 527.344 815.32 530.064C817.304 532.752 818.296 536.176 818.296 540.336C818.296 544.496 817.368 547.856 815.512 550.416C813.656 552.976 810.936 554.848 807.352 556.032C803.8 557.184 799.448 557.76 794.296 557.76H779.896ZM762.616 594V592.224H792.904V594H762.616ZM773.176 593.04V523.2H782.296V593.04H773.176ZM817.816 594.48C815.032 594.48 812.856 593.984 811.288 592.992C809.752 591.968 808.632 590.608 807.928 588.912C807.224 587.184 806.776 585.248 806.584 583.104C806.424 580.96 806.328 578.752 806.296 576.48C806.264 574.208 806.136 572 805.912 569.856C805.688 567.712 805.192 565.792 804.424 564.096C803.656 562.368 802.424 561.008 800.728 560.016C799.064 558.992 796.76 558.48 793.816 558.48H779.896V557.52H795.736C800.344 557.52 803.992 558.16 806.68 559.44C809.4 560.688 811.448 562.352 812.824 564.432C814.2 566.512 815.128 568.8 815.608 571.296C816.088 573.76 816.344 576.24 816.376 578.736C816.408 581.2 816.472 583.472 816.568 585.552C816.696 587.632 817.048 589.296 817.624 590.544C818.232 591.792 819.352 592.416 820.984 592.416C822.008 592.416 822.904 592.32 823.672 592.128C824.472 591.904 825.192 591.632 825.832 591.312L826.456 592.992C825.688 593.408 824.536 593.76 823 594.048C821.496 594.336 819.768 594.48 817.816 594.48ZM828.83 594V592.224H837.47V523.776H828.83V522H879.998V541.68H878.27C878.27 538.256 877.774 535.2 876.782 532.512C875.79 529.792 874.174 527.664 871.934 526.128C869.694 524.56 866.702 523.776 862.958 523.776H846.638V592.224H861.95C866.334 592.224 869.774 591.424 872.27 589.824C874.798 588.192 876.59 585.904 877.646 582.96C878.702 579.984 879.23 576.464 879.23 572.4H880.958V594H828.83ZM861.95 567.264C861.95 565.12 861.534 563.344 860.702 561.936C859.87 560.496 858.718 559.424 857.246 558.72C855.806 558.016 854.174 557.664 852.35 557.664H844.238V555.888H852.35C854.174 555.888 855.806 555.568 857.246 554.928C858.718 554.288 859.87 553.296 860.702 551.952C861.534 550.576 861.95 548.816 861.95 546.672H863.678V567.264H861.95ZM885.106 594V592.224H893.746V523.776H885.106V522H936.274V541.68H934.546C934.546 538.256 934.05 535.2 933.058 532.512C932.066 529.792 930.45 527.664 928.21 526.128C925.97 524.56 922.978 523.776 919.234 523.776H902.914V592.224H918.226C922.61 592.224 926.05 591.424 928.546 589.824C931.074 588.192 932.866 585.904 933.922 582.96C934.978 579.984 935.506 576.464 935.506 572.4H937.234V594H885.106ZM918.226 567.264C918.226 565.12 917.81 563.344 916.978 561.936C916.146 560.496 914.994 559.424 913.522 558.72C912.082 558.016 910.45 557.664 908.626 557.664H900.514V555.888H908.626C910.45 555.888 912.082 555.568 913.522 554.928C914.994 554.288 916.146 553.296 916.978 551.952C917.81 550.576 918.226 548.816 918.226 546.672H919.954V567.264H918.226ZM953.047 522V592.224H964.423V594H941.383V592.224H951.223V523.776H941.383V522H953.047ZM1009.64 522V523.776H999.511V594.96H997.063L951.751 522H962.791L997.687 579.168V523.776H986.599V522H1009.64ZM1019.19 594.96C1018.14 594.96 1017.18 594.704 1016.31 594.192C1015.45 593.68 1014.74 592.992 1014.2 592.128C1013.69 591.232 1013.43 590.256 1013.43 589.2C1013.43 588.144 1013.69 587.184 1014.2 586.32C1014.74 585.424 1015.45 584.72 1016.31 584.208C1017.18 583.664 1018.14 583.392 1019.19 583.392C1020.25 583.392 1021.21 583.664 1022.07 584.208C1022.97 584.72 1023.67 585.424 1024.18 586.32C1024.7 587.184 1024.95 588.144 1024.95 589.2C1024.95 590.256 1024.7 591.232 1024.18 592.128C1023.67 592.992 1022.97 593.68 1022.07 594.192C1021.21 594.704 1020.25 594.96 1019.19 594.96ZM1084.78 594.96L1058.09 522H1067.31L1089.53 582L1110.32 522H1112.24L1086.99 594.96H1084.78ZM1059 522V592.224H1066.11V594H1050.32V592.224H1057.13V523.776H1049.84V522H1059ZM1127.55 522V523.776H1120.83V592.224H1127.55V594H1103.98V592.224H1111.71V522H1127.55ZM1150.07 594V592.224H1158.71V559.392L1136.83 523.776H1129.48V522H1157.32V523.776H1147.39L1166.83 555.696L1185.79 523.776H1175.66V522H1195.24V523.776H1187.9L1167.83 557.232V592.224H1177.48V594H1150.07ZM322.184 637V638.776H313.88L288.152 710.392H286.088L261.176 638.776H253.88V637H281.72V638.776H271.736L290.84 697.768L311.816 638.776H300.008V637H322.184ZM358.135 709.96C353.271 709.96 348.935 709.016 345.127 707.128C341.319 705.208 338.087 702.552 335.431 699.16C332.807 695.768 330.807 691.848 329.431 687.4C328.087 682.92 327.415 678.12 327.415 673C327.415 667.88 328.135 663.096 329.575 658.648C331.047 654.168 333.127 650.232 335.815 646.84C338.503 643.448 341.735 640.808 345.511 638.92C349.287 637 353.495 636.04 358.135 636.04C362.775 636.04 366.967 637 370.711 638.92C374.487 640.808 377.719 643.448 380.407 646.84C383.127 650.232 385.207 654.168 386.647 658.648C388.087 663.096 388.807 667.88 388.807 673C388.807 678.12 388.119 682.92 386.743 687.4C385.399 691.848 383.415 695.768 380.791 699.16C378.167 702.552 374.951 705.208 371.143 707.128C367.335 709.016 362.999 709.96 358.135 709.96ZM358.135 708.328C362.327 708.328 365.703 707.336 368.263 705.352C370.855 703.336 372.839 700.632 374.215 697.24C375.623 693.848 376.567 690.056 377.047 685.864C377.559 681.64 377.815 677.352 377.815 673C377.815 668.648 377.511 664.376 376.903 660.184C376.327 655.96 375.319 652.152 373.879 648.76C372.439 645.368 370.439 642.68 367.879 640.696C365.319 638.68 362.071 637.672 358.135 637.672C354.199 637.672 350.951 638.68 348.391 640.696C345.831 642.68 343.815 645.368 342.343 648.76C340.903 652.152 339.879 655.96 339.271 660.184C338.695 664.376 338.407 668.648 338.407 673C338.407 677.352 338.663 681.64 339.175 685.864C339.687 690.056 340.631 693.848 342.007 697.24C343.383 700.632 345.367 703.336 347.959 705.352C350.583 707.336 353.975 708.328 358.135 708.328ZM393.995 709V707.224H404.555V638.776H393.995V637H425.195V638.776H413.675V707.224H425.195V709H393.995ZM462.997 709.96C456.501 709.96 450.805 708.36 445.909 705.16C441.013 701.96 437.205 697.576 434.485 692.008C431.765 686.44 430.405 680.104 430.405 673C430.405 665.864 431.765 659.528 434.485 653.992C437.205 648.424 441.013 644.04 445.909 640.84C450.805 637.64 456.501 636.04 462.997 636.04C466.197 636.04 469.237 636.6 472.117 637.72C475.029 638.808 477.573 640.344 479.749 642.328L484.789 637H486.373V656.68H484.549C484.421 652.936 483.365 649.672 481.381 646.888C479.397 644.104 476.869 641.96 473.797 640.456C470.725 638.92 467.445 638.152 463.957 638.152C459.797 638.152 456.261 639.144 453.349 641.128C450.469 643.08 448.149 645.72 446.389 649.048C444.661 652.376 443.397 656.12 442.597 660.28C441.797 664.408 441.397 668.648 441.397 673C441.397 677.352 441.797 681.608 442.597 685.768C443.397 689.896 444.661 693.624 446.389 696.952C448.149 700.28 450.469 702.936 453.349 704.92C456.261 706.872 459.797 707.848 463.957 707.848C467.125 707.848 470.005 707.368 472.597 706.408C475.189 705.448 477.429 704.12 479.317 702.424C481.237 700.728 482.725 698.76 483.781 696.52C484.837 694.28 485.413 691.88 485.509 689.32H487.333V709H485.749L481.141 703.336C478.965 705.384 476.309 707 473.173 708.184C470.069 709.368 466.677 709.96 462.997 709.96ZM493.516 709V707.224H502.156V638.776H493.516V637H544.684V656.68H542.956C542.956 653.256 542.46 650.2 541.468 647.512C540.476 644.792 538.86 642.664 536.62 641.128C534.38 639.56 531.388 638.776 527.644 638.776H511.324V707.224H526.636C531.02 707.224 534.46 706.424 536.956 704.824C539.484 703.192 541.276 700.904 542.332 697.96C543.388 694.984 543.916 691.464 543.916 687.4H545.644V709H493.516ZM526.636 682.264C526.636 680.12 526.22 678.344 525.388 676.936C524.556 675.496 523.404 674.424 521.932 673.72C520.492 673.016 518.86 672.664 517.036 672.664H508.924V670.888H517.036C518.86 670.888 520.492 670.568 521.932 669.928C523.404 669.288 524.556 668.296 525.388 666.952C526.22 665.576 526.636 663.816 526.636 661.672H528.364V682.264H526.636ZM638.113 637V638.776H629.473V707.224H638.113V709H610.753V707.224H620.353V674.392H588.721V707.224H598.273V709H570.913V707.224H579.553V638.776H570.913V637H598.273V638.776H588.721V672.568H620.353V638.776H610.753V637H638.113ZM658.73 686.44V684.664H689.786V686.44H658.73ZM676.826 635.608L701.642 707.224H709.082V709H681.242V707.224H691.13L672.218 648.712L651.818 707.224H662.09V709H640.97V707.224H649.802L675.002 635.608H676.826ZM738.701 710.392C734.573 710.392 731.005 709.752 727.997 708.472C724.989 707.192 722.477 705.432 720.461 703.192L715.949 709.96H714.413V690.232H716.189C716.701 692.888 717.517 695.32 718.637 697.528C719.757 699.736 721.197 701.672 722.957 703.336C724.749 704.968 726.877 706.248 729.341 707.176C731.805 708.072 734.637 708.52 737.837 708.52C741.229 708.52 744.173 707.944 746.669 706.792C749.165 705.64 751.085 703.96 752.429 701.752C753.773 699.544 754.445 696.856 754.445 693.688C754.445 690.872 753.757 688.504 752.381 686.584C751.005 684.632 749.165 682.952 746.861 681.544C744.589 680.104 742.093 678.776 739.373 677.56C736.653 676.344 733.917 675.08 731.165 673.768C728.445 672.456 725.933 670.936 723.629 669.208C721.357 667.448 719.533 665.336 718.157 662.872C716.781 660.376 716.093 657.352 716.093 653.8C716.093 650.248 716.989 647.144 718.781 644.488C720.573 641.832 722.973 639.768 725.981 638.296C729.021 636.792 732.365 636.04 736.013 636.04C739.181 636.04 742.093 636.552 744.749 637.576C747.405 638.568 749.709 640.088 751.661 642.136L756.173 636.04H757.661V655.768H755.933C755.293 651.736 754.093 648.408 752.333 645.784C750.573 643.16 748.381 641.224 745.757 639.976C743.133 638.696 740.189 638.056 736.925 638.056C732.349 638.056 728.877 639.144 726.509 641.32C724.173 643.464 723.005 646.328 723.005 649.912C723.005 652.44 723.677 654.584 725.021 656.344C726.397 658.104 728.205 659.656 730.445 661C732.685 662.312 735.149 663.56 737.837 664.744C740.525 665.928 743.213 667.208 745.901 668.584C748.589 669.928 751.053 671.544 753.293 673.432C755.533 675.288 757.325 677.544 758.669 680.2C760.045 682.824 760.733 686.024 760.733 689.8C760.733 693.96 759.837 697.592 758.045 700.696C756.253 703.768 753.709 706.152 750.413 707.848C747.117 709.544 743.213 710.392 738.701 710.392ZM820.368 709.96L793.68 637H802.896L825.12 697L845.904 637H847.824L822.576 709.96H820.368ZM794.592 637V707.224H801.696V709H785.904V707.224H792.72V638.776H785.424V637H794.592ZM863.136 637V638.776H856.416V707.224H863.136V709H839.568V707.224H847.296V637H863.136ZM883.741 686.44V684.664H914.797V686.44H883.741ZM901.837 635.608L926.653 707.224H934.093V709H906.253V707.224H916.141L897.229 648.712L876.829 707.224H887.101V709H865.981V707.224H874.813L900.013 635.608H901.837ZM948.64 637V707.224H960.016V709H936.976V707.224H946.816V638.776H936.976V637H948.64ZM1005.23 637V638.776H995.104V709.96H992.656L947.344 637H958.384L993.28 694.168V638.776H982.192V637H1005.23ZM1027.74 709V707.224H1036.38V674.392L1014.5 638.776H1007.15V637H1034.99V638.776H1025.06L1044.5 670.696L1063.46 638.776H1053.33V637H1072.91V638.776H1065.57L1045.5 672.232V707.224H1055.15V709H1027.74ZM1137.95 687.112C1136.99 684.968 1135.84 682.904 1134.49 680.92C1133.18 678.904 1131.64 677.272 1129.88 676.024C1128.16 674.744 1126.22 674.104 1124.08 674.104H1117.84V672.28H1124.08C1126.22 672.28 1128.16 671.688 1129.88 670.504C1131.64 669.32 1133.18 667.784 1134.49 665.896C1135.84 663.976 1136.99 661.944 1137.95 659.8H1139.72V687.112H1137.95ZM1152.2 637V656.68H1150.38C1149.42 653.256 1148.03 650.2 1146.2 647.512C1144.38 644.792 1142.12 642.664 1139.44 641.128C1136.78 639.56 1133.74 638.776 1130.32 638.776H1124.36V707.224H1133.96V709H1095.04V707.224H1103.72V638.776H1095.04V637H1152.2ZM1158.46 686.728V685H1186.11V686.728H1158.46ZM1186.06 635.608L1210.93 707.224H1218.22V709H1180.01V707.224H1186.97L1170.37 656.104L1152.32 707.224H1162.59V709H1141.37V707.224H1150.25L1175.65 635.608H1186.06ZM1257.02 709.96C1249.24 709.96 1242.63 708.36 1237.19 705.16C1231.78 701.96 1227.66 697.576 1224.81 692.008C1221.96 686.44 1220.54 680.104 1220.54 673C1220.54 665.864 1221.96 659.528 1224.81 653.992C1227.66 648.424 1231.78 644.04 1237.19 640.84C1242.63 637.64 1249.24 636.04 1257.02 636.04C1259.74 636.04 1262.2 636.504 1264.41 637.432C1266.62 638.328 1268.65 639.624 1270.5 641.32L1280.92 637H1282.46V659.608H1280.54C1278.33 655.416 1276.14 651.72 1273.96 648.52C1271.78 645.32 1269.42 642.84 1266.86 641.08C1264.33 639.288 1261.37 638.392 1257.98 638.392C1255 638.392 1252.54 639.368 1250.58 641.32C1248.66 643.24 1247.16 645.848 1246.07 649.144C1244.98 652.44 1244.22 656.152 1243.77 660.28C1243.32 664.376 1243.1 668.616 1243.1 673C1243.1 677.352 1243.32 681.592 1243.77 685.72C1244.22 689.848 1244.98 693.56 1246.07 696.856C1247.16 700.152 1248.66 702.776 1250.58 704.728C1252.54 706.648 1255 707.608 1257.98 707.608C1261.11 707.608 1263.82 707.064 1266.09 705.976C1268.39 704.888 1270.41 703.384 1272.14 701.464C1273.9 699.544 1275.53 697.304 1277.03 694.744C1278.54 692.152 1280.04 689.368 1281.54 686.392H1283.46V709H1281.83L1272.18 704.392C1270.17 706.184 1267.91 707.56 1265.42 708.52C1262.95 709.48 1260.15 709.96 1257.02 709.96ZM1285.71 709V707.224H1294.4V638.776H1285.71V637H1344.8V656.68H1343.02C1342.06 653.256 1340.49 650.2 1338.32 647.512C1336.14 644.792 1333.48 642.664 1330.35 641.128C1327.24 639.56 1323.82 638.776 1320.08 638.776H1315.04V707.224H1319.12C1323.5 707.224 1327.37 706.424 1330.73 704.824C1334.12 703.192 1336.94 700.904 1339.18 697.96C1341.42 694.984 1343.02 691.464 1343.98 687.4H1345.76V709H1285.71ZM1329.53 685.192C1328.57 683.048 1327.32 681.016 1325.79 679.096C1324.25 677.176 1322.56 675.624 1320.7 674.44C1318.88 673.224 1317.05 672.616 1315.23 672.616H1312.35V670.888H1315.23C1317.05 670.888 1318.88 670.344 1320.7 669.256C1322.56 668.136 1324.25 666.648 1325.79 664.792C1327.32 662.936 1328.57 660.936 1329.53 658.792H1331.36V685.192H1329.53ZM1376.86 710.392C1373.88 710.392 1371.19 709.896 1368.79 708.904C1366.42 707.912 1364.28 706.584 1362.36 704.92L1351.18 709.96H1349.5V684.52H1351.32C1352.57 687.176 1353.94 689.912 1355.45 692.728C1356.95 695.512 1358.68 698.12 1360.63 700.552C1362.58 702.952 1364.84 704.904 1367.4 706.408C1369.99 707.88 1373 708.616 1376.42 708.616C1379.11 708.616 1381.42 708.088 1383.34 707.032C1385.26 705.976 1386.73 704.568 1387.75 702.808C1388.81 701.048 1389.34 699.112 1389.34 697C1389.34 694.6 1388.63 692.616 1387.22 691.048C1385.82 689.48 1383.96 688.136 1381.66 687.016C1379.35 685.896 1376.81 684.808 1374.02 683.752C1371.27 682.696 1368.5 681.512 1365.72 680.2C1362.97 678.856 1360.44 677.192 1358.14 675.208C1355.83 673.224 1353.98 670.744 1352.57 667.768C1351.16 664.76 1350.46 661.064 1350.46 656.68C1350.46 652.2 1351.54 648.424 1353.72 645.352C1355.9 642.28 1358.71 639.96 1362.17 638.392C1365.66 636.824 1369.34 636.04 1373.21 636.04C1375.77 636.04 1378.17 636.456 1380.41 637.288C1382.65 638.088 1384.71 639.24 1386.6 640.744L1397.4 636.04H1398.89V659.608H1397.06C1395.14 655.448 1393.1 651.736 1390.92 648.472C1388.74 645.176 1386.25 642.584 1383.43 640.696C1380.65 638.808 1377.38 637.864 1373.64 637.864C1370.6 637.864 1368.22 638.728 1366.49 640.456C1364.76 642.152 1363.9 644.36 1363.9 647.08C1363.9 649.224 1364.6 651.032 1366.01 652.504C1367.42 653.976 1369.27 655.304 1371.58 656.488C1373.88 657.64 1376.41 658.792 1379.16 659.944C1381.94 661.096 1384.71 662.392 1387.46 663.832C1390.22 665.272 1392.74 667 1395.05 669.016C1397.35 671.032 1399.21 673.496 1400.62 676.408C1402.02 679.288 1402.73 682.792 1402.73 686.92C1402.73 691.72 1401.51 695.88 1399.08 699.4C1396.65 702.888 1393.46 705.592 1389.53 707.512C1385.59 709.432 1381.37 710.392 1376.86 710.392Z" fill="#F2E9E4"/>
</g>
<defs>
<clipPath id="clip0_1_946">
<rect width="1920" height="1080" fill="white"/>
</clipPath>
</defs>
</svg>
