<svg width="1920" height="1080" viewBox="0 0 1920 1080" fill="none" xmlns="http://www.w3.org/2000/svg">
<g clip-path="url(#clip0_1_651)">
<g opacity="0.25">
<rect width="1920" height="1080" fill="#22223A"/>
</g>
<rect opacity="0.25" x="552.443" y="769.822" width="653.009" height="668.906" transform="rotate(-75 552.443 769.822)" fill="#22223A"/>
<path d="M928.74 963.55C874.583 963.55 829.394 954.758 793.173 937.175C757.303 919.24 730.224 896.733 711.938 869.655C694.003 842.225 685.035 814.092 685.035 785.255C685.035 756.77 693.651 734.087 710.883 717.207C728.466 699.976 749.742 691.36 774.71 691.36C797.569 691.36 817.086 699.097 833.263 714.57C849.439 730.043 857.528 750.616 857.528 776.287C857.528 791.761 853.483 805.652 845.395 817.96C837.307 830.268 826.757 840.115 813.745 847.5C800.733 854.533 786.667 858.05 771.545 858.05C757.127 858.05 743.412 854.709 730.4 848.027C717.388 841.346 706.663 832.554 698.223 821.652C690.134 810.399 686.09 798.267 686.09 785.255H705.08C705.08 812.685 713.52 838.181 730.4 861.742C747.28 885.304 770.138 904.47 798.975 919.24C828.163 933.658 860.868 940.867 897.09 940.867C932.96 940.867 961.973 932.252 984.128 915.02C1006.28 897.437 1022.64 873.347 1033.19 842.752C1043.74 811.806 1049.01 776.463 1049.01 736.725C1049.01 715.977 1046.55 693.997 1041.63 670.787C1036.7 647.577 1027.73 625.774 1014.72 605.377C1002.06 584.629 983.776 567.749 959.863 554.737C936.301 541.374 905.53 534.692 867.55 534.692V522.56C931.202 522.56 985.359 528.538 1030.02 540.495C1074.68 552.1 1110.9 568.101 1138.69 588.497C1166.47 608.894 1186.69 632.28 1199.35 658.655C1212.36 685.03 1218.87 712.812 1218.87 742C1218.87 776.112 1210.78 806.882 1194.6 834.312C1178.78 861.742 1157.15 885.128 1129.72 904.47C1102.29 923.46 1071.17 938.054 1036.35 948.252C1001.89 958.451 966.017 963.55 928.74 963.55ZM867.55 527.835V515.702C903.068 515.702 930.85 509.9 950.895 498.295C970.94 486.69 985.71 471.568 995.205 452.93C1004.7 434.292 1010.68 414.598 1013.14 393.85C1015.95 372.75 1017.36 352.881 1017.36 334.242C1017.36 312.791 1015.25 292.57 1011.03 273.58C1007.16 254.59 1000.83 237.71 992.04 222.94C983.6 207.818 972.523 196.037 958.808 187.597C945.444 178.806 929.268 174.41 910.278 174.41C892.694 174.41 873.88 177.575 853.835 183.905C833.79 190.235 814.8 199.378 796.865 211.335C778.93 223.292 764.336 237.534 753.083 254.062C741.829 270.591 736.203 289.053 736.203 309.45H717.213C717.213 294.68 721.608 281.668 730.4 270.415C739.543 258.81 750.797 249.842 764.16 243.512C777.523 237.182 790.711 234.017 803.723 234.017C818.844 234.017 832.911 237.358 845.923 244.04C858.934 250.722 869.484 260.392 877.573 273.052C885.661 285.361 889.705 299.779 889.705 316.307C889.705 334.946 885.309 350.595 876.518 363.255C867.726 375.915 856.648 385.41 843.285 391.74C830.274 398.07 817.086 401.235 803.723 401.235C788.953 401.235 774.886 397.542 761.523 390.157C748.159 382.772 737.258 372.222 728.818 358.507C720.378 344.792 716.158 328.44 716.158 309.45C716.158 287.998 722.663 267.777 735.675 248.787C748.687 229.446 765.918 212.566 787.37 198.147C809.174 183.729 833.263 172.476 859.638 164.387C886.013 156.299 912.564 152.255 939.29 152.255C968.83 152.255 998.194 156.123 1027.38 163.86C1056.57 171.245 1083.12 182.322 1107.04 197.092C1131.3 211.862 1150.64 230.325 1165.06 252.48C1179.83 274.635 1187.22 300.307 1187.22 329.495C1187.22 355.87 1181.94 381.014 1171.39 404.927C1160.84 428.489 1143.26 449.589 1118.64 468.227C1094.38 486.866 1061.67 501.46 1020.53 512.01C979.38 522.56 928.388 527.835 867.55 527.835Z" fill="#4B4F6A"/>
<path d="M288.824 479.96L262.136 407H271.352L293.576 467L314.36 407H316.28L291.032 479.96H288.824ZM263.048 407V477.224H270.152V479H254.36V477.224H261.176V408.776H253.88V407H263.048ZM331.592 407V408.776H324.872V477.224H331.592V479H308.024V477.224H315.752V407H331.592ZM354.118 479V477.224H362.758V444.392L340.87 408.776H333.526V407H361.366V408.776H351.43L370.87 440.696L389.83 408.776H379.702V407H399.286V408.776H391.942L371.878 442.232V477.224H381.526V479H354.118ZM460.192 407V408.776H450.592V462.68C450.112 464.376 449.472 466.312 448.672 468.488C447.872 470.664 446.832 472.776 445.552 474.824C444.304 476.872 442.72 478.568 440.8 479.912C438.88 481.256 436.544 481.928 433.792 481.928C431.328 481.928 429.232 481.4 427.504 480.344C425.776 479.288 424.448 477.96 423.52 476.36C422.624 474.76 422.176 473.16 422.176 471.56C422.176 470.216 422.432 469.08 422.944 468.152C423.456 467.224 424.128 466.52 424.96 466.04C425.792 465.56 426.688 465.32 427.648 465.32C428.448 465.32 429.264 465.512 430.096 465.896C430.928 466.28 431.632 466.888 432.208 467.72C432.784 468.552 433.072 469.624 433.072 470.936C433.072 472.216 432.784 473.256 432.208 474.056C431.632 474.856 430.896 475.432 430 475.784C429.136 476.104 428.208 476.232 427.216 476.168C426.736 476.104 426.24 475.88 425.728 475.496C425.248 475.112 424.912 474.616 424.72 474.008C425.072 475.032 425.648 476.008 426.448 476.936C427.248 477.832 428.224 478.568 429.376 479.144C430.528 479.72 431.856 480.008 433.36 480.008C435.664 480.008 437.392 479.336 438.544 477.992C439.728 476.648 440.512 474.552 440.896 471.704C441.312 468.856 441.52 465.208 441.52 460.76V408.776H429.04V407H460.192ZM463.047 479V477.224H473.607V408.776H463.047V407H494.247V408.776H482.727V477.224H494.247V479H463.047ZM508.769 407V477.224H520.145V479H497.105V477.224H506.945V408.776H497.105V407H508.769ZM565.361 407V408.776H555.233V479.96H552.785L507.473 407H518.513L553.409 464.168V408.776H542.321V407H565.361ZM607.938 450.632H633.906V452.648H628.098V463.16C627.394 464.664 626.354 466.376 624.978 468.296C623.602 470.216 621.842 472.072 619.698 473.864C617.586 475.624 615.042 477.08 612.066 478.232C609.09 479.384 605.65 479.96 601.746 479.96C595.09 479.96 589.442 478.36 584.802 475.16C580.162 471.96 576.626 467.576 574.194 462.008C571.762 456.44 570.546 450.104 570.546 443C570.546 437.656 571.314 432.744 572.85 428.264C574.418 423.752 576.642 419.832 579.522 416.504C582.402 413.176 585.842 410.6 589.842 408.776C593.842 406.952 598.274 406.04 603.138 406.04C606.306 406.04 609.33 406.6 612.21 407.72C615.122 408.808 617.666 410.328 619.842 412.28L624.93 407H626.514V426.68H624.69C624.594 423.832 623.97 421.272 622.818 419C621.666 416.728 620.114 414.792 618.162 413.192C616.242 411.56 614.066 410.312 611.634 409.448C609.234 408.584 606.722 408.152 604.098 408.152C599.938 408.152 596.402 409.144 593.49 411.128C590.61 413.08 588.29 415.72 586.53 419.048C584.802 422.376 583.538 426.12 582.738 430.28C581.938 434.408 581.538 438.648 581.538 443C581.538 447.352 581.826 451.624 582.402 455.816C583.01 459.976 584.05 463.752 585.522 467.144C587.026 470.504 589.09 473.176 591.714 475.16C594.338 477.144 597.682 478.136 601.746 478.136C604.722 478.136 607.202 477.672 609.186 476.744C611.202 475.816 612.802 474.696 613.986 473.384C615.202 472.072 616.13 470.808 616.77 469.592C617.41 468.376 617.842 467.512 618.066 467V452.648H607.938V450.632ZM636.095 479V477.224H644.735V408.776H636.095V407H662.495V408.776H653.903V477.224H668.735C672.511 477.224 675.535 476.776 677.807 475.88C680.111 474.952 681.839 473.624 682.991 471.896C684.175 470.168 684.959 468.088 685.343 465.656C685.759 463.192 685.967 460.44 685.967 457.4H687.743V479H636.095ZM690.871 479V477.224H699.511V408.776H690.871V407H742.039V426.68H740.311C740.311 423.256 739.815 420.2 738.823 417.512C737.831 414.792 736.215 412.664 733.975 411.128C731.735 409.56 728.743 408.776 724.999 408.776H708.679V477.224H723.991C728.375 477.224 731.815 476.424 734.311 474.824C736.839 473.192 738.631 470.904 739.687 467.96C740.743 464.984 741.271 461.464 741.271 457.4H742.999V479H690.871ZM723.991 452.264C723.991 450.12 723.575 448.344 722.743 446.936C721.911 445.496 720.759 444.424 719.287 443.72C717.847 443.016 716.215 442.664 714.391 442.664H706.279V440.888H714.391C716.215 440.888 717.847 440.568 719.287 439.928C720.759 439.288 721.911 438.296 722.743 436.952C723.575 435.576 723.991 433.816 723.991 431.672H725.719V452.264H723.991ZM786.028 456.44V454.664H817.084V456.44H786.028ZM804.124 405.608L828.94 477.224H836.38V479H808.54V477.224H818.428L799.516 418.712L779.116 477.224H789.388V479H768.268V477.224H777.1L802.3 405.608H804.124ZM850.927 407V477.224H862.303V479H839.263V477.224H849.103V408.776H839.263V407H850.927ZM907.519 407V408.776H897.391V479.96H894.943L849.631 407H860.671L895.567 464.168V408.776H884.479V407H907.519ZM937.231 407C944.367 407 950.511 408.584 955.663 411.752C960.815 414.888 964.783 419.176 967.567 424.616C970.383 430.056 971.791 436.184 971.791 443C971.791 448.12 970.959 452.872 969.295 457.256C967.631 461.608 965.263 465.416 962.191 468.68C959.119 471.944 955.471 474.488 951.247 476.312C947.023 478.104 942.351 479 937.231 479H910.351V477.224H918.991V408.776H910.351V407H937.231ZM928.159 477.224H937.231C941.647 477.224 945.359 476.28 948.367 474.392C951.375 472.504 953.791 469.944 955.615 466.712C957.439 463.448 958.751 459.768 959.551 455.672C960.351 451.576 960.751 447.352 960.751 443C960.751 438.648 960.303 434.424 959.407 430.328C958.511 426.232 957.119 422.568 955.231 419.336C953.375 416.072 950.959 413.496 947.983 411.608C945.007 409.72 941.423 408.776 937.231 408.776H928.159V477.224ZM998.06 479V477.224H1008.62V408.776H998.06V407H1029.26V408.776H1017.74V477.224H1029.26V479H998.06ZM284.36 594.96L262.232 523.776H253.16V522H321.416V523.776H297.992L315.512 580.464L335.384 523.776H326.264V522H345.08V523.776H337.352L312.44 594.96H310.472L288.392 523.776H271.832L289.448 580.464L299.336 552.912L300.296 555.984L286.28 594.96H284.36ZM304.856 548.64L303.32 547.2L311.48 522.72L313.4 523.2L304.856 548.64ZM347.188 594V592.224H357.748V523.776H347.188V522H378.388V523.776H366.868V592.224H378.388V594H347.188ZM381.245 594V592.224H389.885V523.776H381.245V522H407.645V523.776H399.053V592.224H413.885C417.661 592.224 420.685 591.776 422.957 590.88C425.261 589.952 426.989 588.624 428.141 586.896C429.325 585.168 430.109 583.088 430.493 580.656C430.909 578.192 431.117 575.44 431.117 572.4H432.893V594H381.245ZM436.021 594V592.224H444.661V523.776H436.021V522H462.421V523.776H453.829V592.224H468.661C472.437 592.224 475.461 591.776 477.733 590.88C480.037 589.952 481.765 588.624 482.917 586.896C484.101 585.168 484.885 583.088 485.269 580.656C485.685 578.192 485.893 575.44 485.893 572.4H487.669V594H436.021ZM546.958 594.96L517.342 523.776H509.998V522H603.118V523.776H575.086L596.014 574.512L615.886 523.776H606.958V522H626.59V523.776H617.806L590.254 594.96H583.534L553.822 523.776H541.534L562.414 574.512L569.854 555.648L570.91 558.288L556.558 594.96H546.958ZM583.678 550.944L581.95 550.032L593.278 522.432H595.246L583.678 550.944ZM643.426 557.232V556.128H656.818C659.89 556.128 662.418 555.632 664.402 554.64C666.386 553.616 667.858 551.92 668.818 549.552C669.778 547.152 670.258 543.888 670.258 539.76C670.258 535.632 669.778 532.416 668.818 530.112C667.858 527.776 666.386 526.144 664.402 525.216C662.418 524.256 659.89 523.776 656.818 523.776H626.05V522H661.618C667.41 522 672.546 522.624 677.026 523.872C681.506 525.088 685.026 527.008 687.586 529.632C690.146 532.224 691.426 535.6 691.426 539.76C691.426 543.92 690.21 547.28 687.778 549.84C685.378 552.4 681.938 554.272 677.458 555.456C673.01 556.64 667.73 557.232 661.618 557.232H643.426ZM626.05 594V592.224H664.018V594H626.05ZM634.738 593.04V522.72H655.378V593.04H634.738ZM685.138 594.96C681.394 594.96 678.434 594.448 676.258 593.424C674.082 592.368 672.466 590.96 671.41 589.2C670.354 587.44 669.65 585.472 669.298 583.296C668.978 581.088 668.802 578.816 668.77 576.48C668.77 574.112 668.706 571.84 668.578 569.664C668.45 567.456 668.066 565.472 667.426 563.712C666.786 561.952 665.666 560.56 664.066 559.536C662.498 558.48 660.242 557.952 657.298 557.952H643.426V556.992H670.738C675.026 556.992 678.402 557.632 680.866 558.912C683.362 560.16 685.202 561.84 686.386 563.952C687.57 566.032 688.338 568.32 688.69 570.816C689.042 573.28 689.202 575.76 689.17 578.256C689.138 580.752 689.154 583.04 689.218 585.12C689.282 587.2 689.618 588.88 690.226 590.16C690.866 591.44 692.034 592.08 693.73 592.08C694.754 592.08 695.714 591.968 696.61 591.744C697.506 591.488 698.29 591.2 698.962 590.88L699.538 592.608C698.77 593.024 697.09 593.52 694.498 594.096C691.906 594.672 688.786 594.96 685.138 594.96ZM716.476 571.728V570H744.124V571.728H716.476ZM744.076 520.608L768.94 592.224H776.236V594H738.028V592.224H744.988L728.38 541.104L710.332 592.224H720.604V594H699.388V592.224H708.268L733.66 520.608H744.076ZM814.07 522C820.502 522 825.766 522.848 829.862 524.544C833.958 526.24 836.982 528.624 838.934 531.696C840.918 534.736 841.91 538.336 841.91 542.496C841.91 546.656 840.918 550.24 838.934 553.248C836.982 556.256 833.958 558.576 829.862 560.208C825.766 561.808 820.502 562.608 814.07 562.608H805.43V592.224H814.07V594H776.102V592.224H784.79V523.776H776.102V522H814.07ZM805.43 560.88H810.23C812.054 560.88 813.574 560.336 814.79 559.248C816.038 558.128 817.03 556.672 817.766 554.88C818.502 553.088 819.03 551.12 819.35 548.976C819.67 546.8 819.83 544.64 819.83 542.496C819.83 540.352 819.67 538.192 819.35 536.016C819.03 533.808 818.502 531.776 817.766 529.92C817.03 528.064 816.038 526.576 814.79 525.456C813.574 524.336 812.054 523.776 810.23 523.776H805.43V560.88ZM866.33 594V592.224H876.89V523.776H866.33V522H897.53V523.776H886.01V592.224H897.53V594H866.33ZM915.533 594V592.224H926.093V523.776H916.493C913.677 523.776 911.389 524.24 909.629 525.168C907.901 526.064 906.557 527.376 905.597 529.104C904.669 530.832 904.029 532.928 903.677 535.392C903.325 537.824 903.149 540.56 903.149 543.6H901.325V522H959.981V543.6H958.205C958.205 540.56 958.029 537.824 957.677 535.392C957.325 532.928 956.669 530.832 955.709 529.104C954.749 527.376 953.389 526.064 951.629 525.168C949.901 524.24 947.629 523.776 944.813 523.776H935.213V592.224H945.773V594H915.533ZM1047.43 522V523.776H1038.36V571.92C1038.36 579.824 1036.58 585.712 1033.03 589.584C1029.48 593.456 1023.91 595.392 1016.32 595.392C1008.04 595.392 1001.96 593.552 998.083 589.872C994.243 586.192 992.323 580.208 992.323 571.92V523.776H983.731V522H1011.09V523.776H1001.49V570.96C1001.49 574.128 1001.72 577.072 1002.16 579.792C1002.64 582.512 1003.48 584.88 1004.66 586.896C1005.88 588.912 1007.57 590.496 1009.75 591.648C1011.96 592.768 1014.79 593.328 1018.24 593.328C1022.21 593.328 1025.56 592.592 1028.28 591.12C1031.03 589.648 1033.11 587.344 1034.52 584.208C1035.92 581.04 1036.63 576.944 1036.63 571.92V523.776H1027.8V522H1047.43ZM1078.88 522C1084.67 522 1089.39 522.864 1093.04 524.592C1096.72 526.288 1099.44 528.688 1101.2 531.792C1102.96 534.864 1103.84 538.48 1103.84 542.64C1103.84 546.8 1102.96 550.4 1101.2 553.44C1099.44 556.448 1096.72 558.768 1093.04 560.4C1089.39 562 1084.67 562.8 1078.88 562.8H1068.37V592.224H1076.96V594H1050.56V592.224H1059.2V523.776H1050.56V522H1078.88ZM1068.37 561.024H1078.88C1081.18 561.024 1083.22 560.48 1084.98 559.392C1086.77 558.304 1088.27 556.864 1089.49 555.072C1090.74 553.28 1091.68 551.296 1092.32 549.12C1092.96 546.944 1093.28 544.784 1093.28 542.64C1093.28 540.496 1092.96 538.32 1092.32 536.112C1091.68 533.904 1090.74 531.872 1089.49 530.016C1088.27 528.128 1086.77 526.624 1084.98 525.504C1083.22 524.352 1081.18 523.776 1078.88 523.776H1068.37V561.024ZM1141.59 522V592.224H1152.96V594H1129.92V592.224H1139.76V523.776H1129.92V522H1141.59ZM1198.18 522V523.776H1188.05V594.96H1185.6L1140.29 522H1151.33L1186.23 579.168V523.776H1175.14V522H1198.18ZM1201.01 594V592.224H1211.57V523.776H1201.01V522H1232.21V523.776H1220.69V592.224H1232.21V594H1201.01ZM1270.02 594.96C1263.52 594.96 1257.82 593.36 1252.93 590.16C1248.03 586.96 1244.22 582.576 1241.5 577.008C1238.78 571.44 1237.42 565.104 1237.42 558C1237.42 550.864 1238.78 544.528 1241.5 538.992C1244.22 533.424 1248.03 529.04 1252.93 525.84C1257.82 522.64 1263.52 521.04 1270.02 521.04C1273.22 521.04 1276.26 521.6 1279.14 522.72C1282.05 523.808 1284.59 525.344 1286.77 527.328L1291.81 522H1293.39V541.68H1291.57C1291.44 537.936 1290.38 534.672 1288.4 531.888C1286.42 529.104 1283.89 526.96 1280.82 525.456C1277.74 523.92 1274.46 523.152 1270.98 523.152C1266.82 523.152 1263.28 524.144 1260.37 526.128C1257.49 528.08 1255.17 530.72 1253.41 534.048C1251.68 537.376 1250.42 541.12 1249.62 545.28C1248.82 549.408 1248.42 553.648 1248.42 558C1248.42 562.352 1248.82 566.608 1249.62 570.768C1250.42 574.896 1251.68 578.624 1253.41 581.952C1255.17 585.28 1257.49 587.936 1260.37 589.92C1263.28 591.872 1266.82 592.848 1270.98 592.848C1274.14 592.848 1277.02 592.368 1279.62 591.408C1282.21 590.448 1284.45 589.12 1286.34 587.424C1288.26 585.728 1289.74 583.76 1290.8 581.52C1291.86 579.28 1292.43 576.88 1292.53 574.32H1294.35V594H1292.77L1288.16 588.336C1285.98 590.384 1283.33 592 1280.19 593.184C1277.09 594.368 1273.7 594.96 1270.02 594.96ZM1300.54 594V592.224H1309.18V523.776H1300.54V522H1351.7V541.68H1349.98C1349.98 538.256 1349.48 535.2 1348.49 532.512C1347.5 529.792 1345.88 527.664 1343.64 526.128C1341.4 524.56 1338.41 523.776 1334.66 523.776H1318.34V592.224H1333.66C1338.04 592.224 1341.48 591.424 1343.98 589.824C1346.5 588.192 1348.3 585.904 1349.35 582.96C1350.41 579.984 1350.94 576.464 1350.94 572.4H1352.66V594H1300.54ZM1333.66 567.264C1333.66 565.12 1333.24 563.344 1332.41 561.936C1331.58 560.496 1330.42 559.424 1328.95 558.72C1327.51 558.016 1325.88 557.664 1324.06 557.664H1315.94V555.888H1324.06C1325.88 555.888 1327.51 555.568 1328.95 554.928C1330.42 554.288 1331.58 553.296 1332.41 551.952C1333.24 550.576 1333.66 548.816 1333.66 546.672H1335.38V567.264H1333.66ZM1356.81 594V592.224H1365.45V523.776H1356.81V522H1383.21V523.776H1374.62V592.224H1389.45C1393.23 592.224 1396.25 591.776 1398.52 590.88C1400.83 589.952 1402.56 588.624 1403.71 586.896C1404.89 585.168 1405.68 583.088 1406.06 580.656C1406.48 578.192 1406.68 575.44 1406.68 572.4H1408.46V594H1356.81ZM1421.8 594V592.224H1430.44V559.392L1408.55 523.776H1401.21V522H1429.05V523.776H1419.11L1438.55 555.696L1457.51 523.776H1447.38V522H1466.97V523.776H1459.62L1439.56 557.232V592.224H1449.21V594H1421.8Z" fill="#F2E9E4"/>
</g>
<defs>
<clipPath id="clip0_1_651">
<rect width="1920" height="1080" fill="white"/>
</clipPath>
</defs>
</svg>
